G04*
G04 #@! TF.GenerationSoftware,Altium Limited,Altium Designer,22.4.2 (48)*
G04*
G04 Layer_Color=8388736*
%FSLAX25Y25*%
%MOIN*%
G70*
G04*
G04 #@! TF.SameCoordinates,FCC6E733-986C-46BB-B2DB-BDB73C4B9051*
G04*
G04*
G04 #@! TF.FilePolarity,Negative*
G04*
G01*
G75*
%ADD37C,0.01981*%
%ADD38R,0.06706X0.04737*%
%ADD39R,0.06706X0.04343*%
%ADD40R,0.01581X0.04928*%
%ADD41R,0.02762X0.04928*%
%ADD42R,0.03550X0.03943*%
%ADD43R,0.03575X0.03802*%
%ADD44R,0.05910X0.05120*%
%ADD45R,0.03943X0.03550*%
%ADD46R,0.03802X0.03575*%
%ADD47R,0.07970X0.09060*%
%ADD48R,0.01981X0.05524*%
%ADD49R,0.03162X0.01587*%
%ADD50R,0.03950X0.01784*%
%ADD51O,0.03950X0.01784*%
%ADD52R,0.02769X0.07493*%
%ADD53R,0.04731X0.10243*%
%ADD54R,0.14573X0.09613*%
%ADD55R,0.05131X0.03556*%
%ADD56O,0.04337X0.07487*%
%ADD57O,0.04337X0.08668*%
%ADD58R,0.06400X0.06400*%
%ADD59C,0.06400*%
%ADD60R,0.06115X0.06115*%
%ADD61C,0.06115*%
%ADD62R,0.04737X0.04737*%
%ADD63C,0.04737*%
D37*
X205937Y287343D02*
D03*
X200031Y287343D02*
D03*
X196095Y273563D02*
D03*
Y271595D02*
D03*
X209874Y271595D02*
D03*
X207906Y271595D02*
D03*
X205937Y271595D02*
D03*
X203969D02*
D03*
X202000D02*
D03*
X200031D02*
D03*
X198063D02*
D03*
X209874Y273563D02*
D03*
X207906D02*
D03*
X205937D02*
D03*
X203969D02*
D03*
X202000D02*
D03*
X200031D02*
D03*
X198063D02*
D03*
X209874Y275532D02*
D03*
X207906D02*
D03*
X205937D02*
D03*
X203969D02*
D03*
X202000D02*
D03*
X200031D02*
D03*
X198063D02*
D03*
X209874Y277500D02*
D03*
X207906D02*
D03*
X205937D02*
D03*
X203969D02*
D03*
X202000D02*
D03*
X200031D02*
D03*
X198063D02*
D03*
X209874Y279468D02*
D03*
X207906D02*
D03*
X205937D02*
D03*
X203969D02*
D03*
X202000D02*
D03*
X200031D02*
D03*
X198063D02*
D03*
X209874Y281437D02*
D03*
X207906D02*
D03*
X205937D02*
D03*
X203969D02*
D03*
X202000D02*
D03*
X200031D02*
D03*
X198063D02*
D03*
X209874Y283405D02*
D03*
X207906D02*
D03*
X205937D02*
D03*
X203969D02*
D03*
X202000D02*
D03*
X200031D02*
D03*
X198063D02*
D03*
X209874Y285374D02*
D03*
X207906D02*
D03*
X205937D02*
D03*
X203969D02*
D03*
X202000D02*
D03*
X200031D02*
D03*
X198063D02*
D03*
X196095Y275532D02*
D03*
Y277500D02*
D03*
Y279468D02*
D03*
Y281437D02*
D03*
Y283405D02*
D03*
Y285374D02*
D03*
X209874Y287343D02*
D03*
X207906D02*
D03*
X202000D02*
D03*
X198063D02*
D03*
X196095D02*
D03*
X203969Y287343D02*
D03*
D38*
X242621Y486799D02*
D03*
Y480500D02*
D03*
Y474201D02*
D03*
X261000Y486799D02*
D03*
Y480500D02*
D03*
Y474201D02*
D03*
D39*
X166701Y472819D02*
D03*
Y485811D02*
D03*
X145500Y473000D02*
D03*
Y485992D02*
D03*
D40*
X211890Y470699D02*
D03*
X209921D02*
D03*
X207953D02*
D03*
X205984D02*
D03*
X204016D02*
D03*
X202047D02*
D03*
X200079D02*
D03*
X198110D02*
D03*
D41*
X195551D02*
D03*
X192402D02*
D03*
X214449D02*
D03*
X217599D02*
D03*
D42*
X175187Y270704D02*
D03*
X180699D02*
D03*
X180731Y277358D02*
D03*
X175219D02*
D03*
X180764Y290603D02*
D03*
X175252D02*
D03*
X180756Y284000D02*
D03*
X175244D02*
D03*
X172028Y338213D02*
D03*
X166516D02*
D03*
X172284Y359213D02*
D03*
X166772D02*
D03*
D43*
X168894Y290542D02*
D03*
X162962D02*
D03*
X168966Y284000D02*
D03*
X163034D02*
D03*
X168932Y277448D02*
D03*
X163000D02*
D03*
X168966Y271000D02*
D03*
X163034D02*
D03*
X166306Y333713D02*
D03*
X172238D02*
D03*
D44*
X256304Y343668D02*
D03*
Y330288D02*
D03*
D45*
X240612Y343000D02*
D03*
Y348512D02*
D03*
X234000Y349012D02*
D03*
Y343500D02*
D03*
X191000Y399744D02*
D03*
Y405256D02*
D03*
X178650Y345457D02*
D03*
Y350969D02*
D03*
X160150Y350347D02*
D03*
Y344835D02*
D03*
X198000Y399744D02*
D03*
Y405256D02*
D03*
X218000Y399744D02*
D03*
Y405256D02*
D03*
X211500Y399744D02*
D03*
Y405256D02*
D03*
X204750Y405317D02*
D03*
Y399805D02*
D03*
D46*
X234105Y359410D02*
D03*
Y365342D02*
D03*
X227804Y343046D02*
D03*
Y348978D02*
D03*
X228304Y365444D02*
D03*
Y359512D02*
D03*
X239907Y359478D02*
D03*
Y365410D02*
D03*
D47*
X243804Y328978D02*
D03*
X224804D02*
D03*
D48*
X169650Y347713D02*
D03*
D49*
X172799Y343776D02*
D03*
Y345350D02*
D03*
Y346925D02*
D03*
Y348500D02*
D03*
Y350075D02*
D03*
Y351650D02*
D03*
X166500Y343776D02*
D03*
Y345350D02*
D03*
Y346925D02*
D03*
Y348500D02*
D03*
Y350075D02*
D03*
Y351650D02*
D03*
D50*
X205961Y347107D02*
D03*
Y345138D02*
D03*
Y343170D02*
D03*
Y349075D02*
D03*
X194150Y347107D02*
D03*
Y345138D02*
D03*
Y343170D02*
D03*
D51*
Y349075D02*
D03*
D52*
X200000Y346000D02*
D03*
D53*
X231445Y401807D02*
D03*
X240500D02*
D03*
X249555D02*
D03*
X160945D02*
D03*
X170000D02*
D03*
X179055D02*
D03*
D54*
X240500Y425193D02*
D03*
X170000D02*
D03*
D55*
X257398Y358234D02*
D03*
Y361974D02*
D03*
X257398Y365722D02*
D03*
X247210D02*
D03*
Y358241D02*
D03*
D56*
X187992Y489301D02*
D03*
X222008D02*
D03*
D57*
Y472963D02*
D03*
X187992D02*
D03*
D58*
X293500Y234008D02*
D03*
X121000D02*
D03*
D59*
X285626D02*
D03*
X293500Y241882D02*
D03*
X285626D02*
D03*
X293500Y249756D02*
D03*
X285626D02*
D03*
X293500Y257630D02*
D03*
X285626D02*
D03*
X293500Y265504D02*
D03*
X285626D02*
D03*
X293500Y273378D02*
D03*
X285626D02*
D03*
X293500Y281252D02*
D03*
X285626D02*
D03*
X293500Y289126D02*
D03*
X285626D02*
D03*
X293500Y297000D02*
D03*
X285626D02*
D03*
X293500Y304874D02*
D03*
X285626D02*
D03*
X293500Y312748D02*
D03*
X285626D02*
D03*
X293500Y320622D02*
D03*
X285626D02*
D03*
X293500Y328496D02*
D03*
X285626D02*
D03*
X293500Y336370D02*
D03*
X285626D02*
D03*
X293500Y344244D02*
D03*
X285626D02*
D03*
X293500Y352118D02*
D03*
X285626D02*
D03*
X293500Y359992D02*
D03*
X285626D02*
D03*
X293500Y367866D02*
D03*
X285626D02*
D03*
X293500Y375740D02*
D03*
X285626D02*
D03*
X293500Y383614D02*
D03*
X285626D02*
D03*
X113126Y234008D02*
D03*
X121000Y241882D02*
D03*
X113126D02*
D03*
X121000Y249756D02*
D03*
X113126D02*
D03*
X121000Y257630D02*
D03*
X113126D02*
D03*
X121000Y265504D02*
D03*
X113126D02*
D03*
X121000Y273378D02*
D03*
X113126D02*
D03*
X121000Y281252D02*
D03*
X113126D02*
D03*
X121000Y289126D02*
D03*
X113126D02*
D03*
X121000Y297000D02*
D03*
X113126D02*
D03*
X121000Y304874D02*
D03*
X113126D02*
D03*
X121000Y312748D02*
D03*
X113126D02*
D03*
X121000Y320622D02*
D03*
X113126D02*
D03*
X121000Y328496D02*
D03*
X113126D02*
D03*
X121000Y336370D02*
D03*
X113126D02*
D03*
X121000Y344244D02*
D03*
X113126D02*
D03*
X121000Y352118D02*
D03*
X113126D02*
D03*
X121000Y359992D02*
D03*
X113126D02*
D03*
X121000Y367866D02*
D03*
X113126D02*
D03*
X121000Y375740D02*
D03*
X113126D02*
D03*
X121000Y383614D02*
D03*
X113126D02*
D03*
D60*
X214843Y423500D02*
D03*
D61*
X195158Y423500D02*
D03*
D62*
X117500Y431500D02*
D03*
X290500D02*
D03*
D63*
X117500Y436500D02*
D03*
Y441500D02*
D03*
Y446500D02*
D03*
X290500Y436500D02*
D03*
Y441500D02*
D03*
Y446500D02*
D03*
M02*
