G04*
G04 #@! TF.GenerationSoftware,Altium Limited,Altium Designer,22.4.2 (48)*
G04*
G04 Layer_Physical_Order=2*
G04 Layer_Color=16711680*
%FSLAX25Y25*%
%MOIN*%
G70*
G04*
G04 #@! TF.SameCoordinates,FCC6E733-986C-46BB-B2DB-BDB73C4B9051*
G04*
G04*
G04 #@! TF.FilePolarity,Positive*
G04*
G01*
G75*
%ADD11C,0.01000*%
%ADD12C,0.00787*%
%ADD18C,0.01181*%
%ADD65C,0.04000*%
%ADD66C,0.00236*%
%ADD68C,0.01181*%
%ADD76C,0.01968*%
%ADD77O,0.03937X0.07087*%
%ADD78O,0.03937X0.08268*%
%ADD79R,0.06000X0.06000*%
%ADD80C,0.06000*%
%ADD81R,0.05315X0.05315*%
%ADD82C,0.05315*%
%ADD83R,0.03937X0.03937*%
%ADD84C,0.03937*%
%ADD85C,0.01968*%
%ADD86C,0.04724*%
D11*
X290500Y431500D02*
X293468D01*
X287531D02*
X290500D01*
Y428532D02*
Y431500D01*
X281626Y352118D02*
X285626D01*
X195158Y423500D02*
Y427157D01*
Y423500D02*
X198815D01*
X195158Y419842D02*
Y423500D01*
X191500D02*
X195158D01*
X293500Y289126D02*
X297500D01*
X285626D02*
Y293126D01*
X293500Y285126D02*
Y289126D01*
Y293126D01*
Y273378D02*
Y277378D01*
X281626Y289126D02*
X285626D01*
Y285126D02*
Y289126D01*
Y273378D02*
Y277378D01*
X293500Y273378D02*
X297500D01*
X293500Y269378D02*
Y273378D01*
Y257630D02*
Y261630D01*
Y257630D02*
X297500D01*
X293500Y253630D02*
Y257630D01*
Y241882D02*
Y245882D01*
Y241882D02*
X297500D01*
X293500Y237882D02*
Y241882D01*
X281626Y273378D02*
X285626D01*
Y269378D02*
Y273378D01*
Y257630D02*
Y261630D01*
X281626Y257630D02*
X285626D01*
Y253630D02*
Y257630D01*
Y241882D02*
Y245882D01*
X281626Y241882D02*
X285626D01*
Y237882D02*
Y241882D01*
X117500Y431500D02*
X120468D01*
X114532D02*
X117500D01*
Y428532D02*
Y431500D01*
X109126Y352118D02*
X113126D01*
X109126Y344244D02*
X113126D01*
X121000Y304874D02*
X125000D01*
X121000Y300874D02*
Y304874D01*
X109126D02*
X113126D01*
Y300874D02*
Y304874D01*
X121000Y285126D02*
Y289126D01*
X125000D01*
X121000D02*
Y293126D01*
Y273378D02*
Y277378D01*
X113126Y285126D02*
Y289126D01*
Y293126D01*
X109126Y289126D02*
X113126D01*
Y273378D02*
Y277378D01*
X121000Y273378D02*
X125000D01*
X121000Y269378D02*
Y273378D01*
Y257630D02*
Y261630D01*
Y257630D02*
X125000D01*
X121000Y253630D02*
Y257630D01*
Y241882D02*
Y245882D01*
Y241882D02*
X125000D01*
X121000Y237882D02*
Y241882D01*
X109126Y273378D02*
X113126D01*
Y269378D02*
Y273378D01*
Y257630D02*
Y261630D01*
X109126Y257630D02*
X113126D01*
Y253630D02*
Y257630D01*
Y241882D02*
Y245882D01*
X109126Y241882D02*
X113126D01*
Y237882D02*
Y241882D01*
D12*
X292442Y443980D02*
G03*
X293681Y446500I-1942J2520D01*
G01*
D02*
G03*
X290500Y449681I-3181J0D01*
G01*
X293650Y441500D02*
G03*
X292442Y443980I-3150J0D01*
G01*
X293190Y434862D02*
G03*
X293650Y436500I-2690J1638D01*
G01*
X292416Y439000D02*
G03*
X293650Y441500I-1916J2500D01*
G01*
X287929Y443319D02*
G03*
X288584Y439000I2571J-1819D01*
G01*
X293650Y436500D02*
G03*
X292416Y439000I-3150J0D01*
G01*
X288584D02*
G03*
X287810Y434862I1916J-2500D01*
G01*
X294908Y379677D02*
G03*
X297681Y383614I-1408J3937D01*
G01*
D02*
G03*
X289563Y385022I-4181J0D01*
G01*
D02*
G03*
X285956Y387782I-3937J-1408D01*
G01*
X281458Y383283D02*
G03*
X284218Y379677I4168J331D01*
G01*
X294908Y348181D02*
G03*
X297681Y352118I-1408J3937D01*
G01*
Y344244D02*
G03*
X294908Y348181I-4181J0D01*
G01*
X297681Y336370D02*
G03*
X294908Y340307I-4181J0D01*
G01*
D02*
G03*
X297681Y344244I-1408J3937D01*
G01*
X294908Y371803D02*
G03*
X297681Y375740I-1408J3937D01*
G01*
Y367866D02*
G03*
X294908Y371803I-4181J0D01*
G01*
X297681Y375740D02*
G03*
X294908Y379677I-4181J0D01*
G01*
Y363929D02*
G03*
X297681Y367866I-1408J3937D01*
G01*
X282913Y364685D02*
G03*
X284218Y363929I2713J3181D01*
G01*
Y379677D02*
G03*
X281445Y375740I1408J-3937D01*
G01*
D02*
G03*
X284218Y371803I4181J0D01*
G01*
D02*
G03*
X282912Y371047I1408J-3937D01*
G01*
X297681Y359992D02*
G03*
X294908Y363929I-4181J0D01*
G01*
Y356055D02*
G03*
X297681Y359992I-1408J3937D01*
G01*
X281445D02*
G03*
X283929Y356171I4181J0D01*
G01*
X297681Y352118D02*
G03*
X294908Y356055I-4181J0D01*
G01*
X284218Y363929D02*
G03*
X281445Y359992I1408J-3937D01*
G01*
X283929Y356171D02*
G03*
X281232Y352118I1697J-4053D01*
G01*
D02*
G03*
X282476Y349055I4394J0D01*
G01*
Y349055D02*
G03*
X282222Y348850I831J-1291D01*
G01*
X284218Y340307D02*
G03*
X281445Y336370I1408J-3937D01*
G01*
Y344244D02*
G03*
X284218Y340307I4181J0D01*
G01*
X281445Y336370D02*
G03*
X284218Y332433I4181J0D01*
G01*
X294908D02*
G03*
X297681Y336370I-1408J3937D01*
G01*
Y328496D02*
G03*
X294908Y332433I-4181J0D01*
G01*
X284218D02*
G03*
X281445Y328496I1408J-3937D01*
G01*
X257772Y479500D02*
G03*
X254230Y479567I-1772J0D01*
G01*
X257772Y479500D02*
G03*
X254230Y479567I-1772J0D01*
G01*
X256067Y477730D02*
G03*
X257772Y479500I-67J1770D01*
G01*
X256067Y477730D02*
G03*
X257772Y479500I-67J1770D01*
G01*
X218071Y488514D02*
G03*
X225945Y488514I3937J0D01*
G01*
Y490088D02*
G03*
X218071Y490088I-3937J0D01*
G01*
X226536Y473750D02*
G03*
X218362Y476435I-4528J0D01*
G01*
X217480Y472176D02*
G03*
X226536Y472176I4528J0D01*
G01*
X229000Y451201D02*
G03*
X229919Y451581I0J1299D01*
G01*
X229000Y451201D02*
G03*
X229918Y451581I0J1299D01*
G01*
X280989Y392749D02*
G03*
X278740Y393681I-2249J-2249D01*
G01*
X280989Y392749D02*
G03*
X278740Y393681I-2249J-2249D01*
G01*
X191929Y490089D02*
G03*
X184055Y490089I-3937J0D01*
G01*
Y488514D02*
G03*
X191929Y488514I3937J0D01*
G01*
X191638Y476435D02*
G03*
X183464Y473750I-3646J-2685D01*
G01*
X199209Y423500D02*
G03*
X199209Y423500I-4051J0D01*
G01*
X196561Y393681D02*
G03*
X196561Y387319I-1561J-3181D01*
G01*
X183464Y472176D02*
G03*
X192520Y472176I4528J0D01*
G01*
X192204Y453799D02*
G03*
X192204Y451201I-1204J-1299D01*
G01*
Y453799D02*
G03*
X192204Y451201I-1204J-1299D01*
G01*
X179799Y440296D02*
G03*
X180272Y441500I-1299J1204D01*
G01*
X276385Y365616D02*
G03*
X278634Y364685I2249J2249D01*
G01*
X276385Y365616D02*
G03*
X278634Y364685I2249J2249D01*
G01*
X276081Y342709D02*
G03*
X275701Y341791I919J-919D01*
G01*
X276081Y342709D02*
G03*
X275701Y341791I919J-918D01*
G01*
X274126Y376873D02*
G03*
X269048Y378976I-5078J-5078D01*
G01*
X269623Y372378D02*
G03*
X269048Y372614I-575J-583D01*
G01*
X225772Y355000D02*
G03*
X222796Y356299I-1772J0D01*
G01*
Y353701D02*
G03*
X225772Y355000I1204J1299D01*
G01*
X222796Y353701D02*
G03*
X225772Y355000I1204J1299D01*
G01*
X210835Y386000D02*
G03*
X215165Y386000I2165J0D01*
G01*
X210835D02*
G03*
X215165Y386000I2165J0D01*
G01*
X225772Y355000D02*
G03*
X222796Y356299I-1772J0D01*
G01*
X210835Y386000D02*
G03*
X215165Y386000I2165J0D01*
G01*
X223272Y342000D02*
G03*
X220247Y343253I-1772J0D01*
G01*
X222753Y340747D02*
G03*
X223272Y342000I-1253J1253D01*
G01*
D02*
G03*
X220247Y343253I-1772J0D01*
G01*
X222753Y340747D02*
G03*
X223272Y342000I-1253J1253D01*
G01*
X222753Y340747D02*
G03*
X223272Y342000I-1253J1253D01*
G01*
D02*
G03*
X220247Y343253I-1772J0D01*
G01*
X268799Y333795D02*
G03*
X269272Y335000I-1299J1204D01*
G01*
X268799Y333795D02*
G03*
X269272Y335000I-1299J1204D01*
G01*
D02*
G03*
X266201Y333795I-1772J0D01*
G01*
X269272Y335000D02*
G03*
X266201Y333795I-1772J0D01*
G01*
X278772Y332500D02*
G03*
X278299Y333704I-1772J0D01*
G01*
X278772Y332500D02*
G03*
X278299Y333704I-1772J0D01*
G01*
X275701D02*
G03*
X278772Y332500I1299J-1204D01*
G01*
X275701Y333704D02*
G03*
X278772Y332500I1299J-1204D01*
G01*
X258272Y330000D02*
G03*
X256500Y331772I-1772J0D01*
G01*
X258272Y330000D02*
G03*
X256500Y331772I-1772J0D01*
G01*
X214489Y333218D02*
G03*
X215742Y333736I0J1772D01*
G01*
X214489Y333218D02*
G03*
X215742Y333736I0J1772D01*
G01*
X256500Y328228D02*
G03*
X258272Y330000I0J1772D01*
G01*
D02*
G03*
X256500Y331772I-1772J0D01*
G01*
Y328228D02*
G03*
X258272Y330000I0J1772D01*
G01*
X256500Y328228D02*
G03*
X258272Y330000I0J1772D01*
G01*
X201737Y356299D02*
G03*
X200673Y355857I14J-1535D01*
G01*
X189272Y350000D02*
G03*
X187567Y351770I-1772J0D01*
G01*
X189272Y350000D02*
G03*
X187567Y351770I-1772J0D01*
G01*
X189547Y378976D02*
G03*
X189547Y372614I0J-3181D01*
G01*
X185730Y349933D02*
G03*
X189272Y350000I1770J67D01*
G01*
X185730Y349933D02*
G03*
X189272Y350000I1770J67D01*
G01*
X207272Y341000D02*
G03*
X203880Y341718I-1772J0D01*
G01*
X207272Y341000D02*
G03*
X203880Y341718I-1772J0D01*
G01*
X205109Y339272D02*
G03*
X207272Y341000I391J1728D01*
G01*
X205109Y339272D02*
G03*
X207272Y341000I391J1728D01*
G01*
X203269Y341106D02*
G03*
X199919Y341799I-1768J-106D01*
G01*
X203500Y338201D02*
G03*
X204419Y338581I0J1299D01*
G01*
X203500Y338201D02*
G03*
X204418Y338581I0J1299D01*
G01*
X192204Y341799D02*
G03*
X191376Y342231I-1204J-1299D01*
G01*
X203269Y341106D02*
G03*
X199919Y341799I-1768J-106D01*
G01*
X192204D02*
G03*
X191376Y342231I-1204J-1299D01*
G01*
X189933Y345117D02*
G03*
X188247Y343090I67J-1770D01*
G01*
X189933Y345117D02*
G03*
X188247Y343090I67J-1770D01*
G01*
X191376Y342231D02*
G03*
X191770Y343280I-1376J1116D01*
G01*
X191376Y342231D02*
G03*
X191770Y343280I-1376J1116D01*
G01*
X191385Y338771D02*
G03*
X194204Y338201I1615J729D01*
G01*
X189795Y339201D02*
G03*
X191385Y338771I1204J1299D01*
G01*
X201608Y326954D02*
G03*
X198685Y328165I-2923J-2923D01*
G01*
X191385Y338771D02*
G03*
X194204Y338201I1615J729D01*
G01*
X188082Y339581D02*
G03*
X189000Y339201I918J919D01*
G01*
X188081Y339581D02*
G03*
X189000Y339201I919J919D01*
G01*
X189795D02*
G03*
X191385Y338771I1204J1299D01*
G01*
X300753Y310758D02*
G03*
X297796Y311799I-1753J-258D01*
G01*
X297572D02*
G03*
X297681Y312748I-4072J949D01*
G01*
X294908Y316685D02*
G03*
X297681Y320622I-1408J3937D01*
G01*
D02*
G03*
X294908Y324559I-4181J0D01*
G01*
X302067Y307730D02*
G03*
X303772Y309500I-67J1770D01*
G01*
X302067Y307730D02*
G03*
X303772Y309500I-67J1770D01*
G01*
D02*
G03*
X300753Y310758I-1772J0D01*
G01*
X300988Y307189D02*
G03*
X301907Y307570I0J1299D01*
G01*
X300988Y307189D02*
G03*
X301906Y307569I0J1299D01*
G01*
X300753Y310758D02*
G03*
X297796Y311799I-1753J-258D01*
G01*
X303772Y309500D02*
G03*
X300753Y310758I-1772J0D01*
G01*
X297681Y304874D02*
G03*
X296982Y307189I-4181J0D01*
G01*
X297681Y312748D02*
G03*
X294908Y316685I-4181J0D01*
G01*
Y324559D02*
G03*
X297681Y328496I-1408J3937D01*
G01*
X297051Y297000D02*
G03*
X289949Y297000I-3551J0D01*
G01*
D02*
G03*
X292974Y293488I3551J0D01*
G01*
X289563Y303466D02*
G03*
X297681Y304874I3937J1408D01*
G01*
X294026Y293488D02*
G03*
X297051Y297000I-526J3512D01*
G01*
X292974Y293488D02*
G03*
X289563Y291077I526J-4362D01*
G01*
X297894Y289126D02*
G03*
X294026Y293488I-4394J0D01*
G01*
X281445Y304874D02*
G03*
X289563Y303466I4181J0D01*
G01*
X289177Y297000D02*
G03*
X282075Y297000I-3551J0D01*
G01*
X284218Y324559D02*
G03*
X281445Y320622I1408J-3937D01*
G01*
D02*
G03*
X284218Y316685I4181J0D01*
G01*
X281445Y328496D02*
G03*
X284218Y324559I4181J0D01*
G01*
Y316685D02*
G03*
X281445Y312748I1408J-3937D01*
G01*
X286152Y293488D02*
G03*
X289177Y297000I-526J3512D01*
G01*
X289563Y291077D02*
G03*
X286152Y293488I-3937J-1951D01*
G01*
X282075Y297000D02*
G03*
X285100Y293488I3551J0D01*
G01*
D02*
G03*
X281232Y289126I526J-4362D01*
G01*
X294026Y284764D02*
G03*
X297894Y289126I-526J4362D01*
G01*
X297051Y281252D02*
G03*
X294026Y284764I-3551J0D01*
G01*
X292974D02*
G03*
X289949Y281252I526J-3512D01*
G01*
X289563Y287176D02*
G03*
X292974Y284764I3937J1951D01*
G01*
X294026Y277740D02*
G03*
X297051Y281252I-526J3512D01*
G01*
X289949D02*
G03*
X292974Y277740I3551J0D01*
G01*
X297894Y273378D02*
G03*
X294026Y277740I-4394J0D01*
G01*
X292974D02*
G03*
X289563Y275329I526J-4362D01*
G01*
X286152Y284764D02*
G03*
X289563Y287176I-526J4362D01*
G01*
X289177Y281252D02*
G03*
X286152Y284764I-3551J0D01*
G01*
X281232Y289126D02*
G03*
X285100Y284764I4394J0D01*
G01*
X282075Y281252D02*
G03*
X285100Y277740I3551J0D01*
G01*
Y284764D02*
G03*
X282075Y281252I526J-3512D01*
G01*
X289563Y275329D02*
G03*
X286152Y277740I-3937J-1951D01*
G01*
D02*
G03*
X289177Y281252I-526J3512D01*
G01*
X285100Y277740D02*
G03*
X281232Y273378I526J-4362D01*
G01*
X294026Y269016D02*
G03*
X297894Y273378I-526J4362D01*
G01*
X297051Y265504D02*
G03*
X294026Y269016I-3551J0D01*
G01*
Y253268D02*
G03*
X297894Y257630I-526J4362D01*
G01*
D02*
G03*
X294026Y261992I-4394J0D01*
G01*
D02*
G03*
X297051Y265504I-526J3512D01*
G01*
X294026Y246244D02*
G03*
X297051Y249756I-526J3512D01*
G01*
D02*
G03*
X294026Y253268I-3551J0D01*
G01*
X297894Y241882D02*
G03*
X294026Y246244I-4394J0D01*
G01*
X294286Y237559D02*
G03*
X297894Y241882I-786J4323D01*
G01*
X289563Y271428D02*
G03*
X292974Y269016I3937J1951D01*
G01*
D02*
G03*
X289949Y265504I526J-3512D01*
G01*
D02*
G03*
X292974Y261992I3551J0D01*
G01*
D02*
G03*
X289563Y259581I526J-4362D01*
G01*
Y255680D02*
G03*
X292974Y253268I3937J1951D01*
G01*
X286152Y269016D02*
G03*
X289563Y271428I-526J4362D01*
G01*
X286152Y261992D02*
G03*
X289177Y265504I-526J3512D01*
G01*
D02*
G03*
X286152Y269016I-3551J0D01*
G01*
X281232Y273378D02*
G03*
X285100Y269016I4394J0D01*
G01*
X282075Y265504D02*
G03*
X285100Y261992I3551J0D01*
G01*
Y269016D02*
G03*
X282075Y265504I526J-3512D01*
G01*
X289563Y259581D02*
G03*
X286152Y261992I-3937J-1951D01*
G01*
Y253268D02*
G03*
X289563Y255680I-526J4362D01*
G01*
X285100Y261992D02*
G03*
X285100Y253268I526J-4362D01*
G01*
X292974Y246244D02*
G03*
X289563Y243833I526J-4362D01*
G01*
X292974Y253268D02*
G03*
X292974Y246244I526J-3512D01*
G01*
X289563Y239932D02*
G03*
X292714Y237559I3937J1951D01*
G01*
X286152Y246244D02*
G03*
X289177Y249756I-526J3512D01*
G01*
X289563Y243833D02*
G03*
X286152Y246244I-3937J-1951D01*
G01*
X289177Y249756D02*
G03*
X286152Y253268I-3551J0D01*
G01*
Y237520D02*
G03*
X289563Y239932I-526J4362D01*
G01*
X285100Y253268D02*
G03*
X285100Y246244I526J-3512D01*
G01*
D02*
G03*
X285100Y237520I526J-4362D01*
G01*
D02*
G03*
X289177Y234008I526J-3512D01*
G01*
D02*
G03*
X286152Y237520I-3551J0D01*
G01*
X269327Y324445D02*
G03*
X268799Y325706I-1772J0D01*
G01*
X281445Y312748D02*
G03*
X281974Y310713I4181J0D01*
G01*
X266201Y325587D02*
G03*
X269327Y324445I1354J-1142D01*
G01*
D02*
G03*
X268799Y325706I-1772J0D01*
G01*
X266201Y325587D02*
G03*
X269327Y324445I1354J-1142D01*
G01*
X282144Y307189D02*
G03*
X281445Y304874I3482J-2315D01*
G01*
X221768Y308114D02*
G03*
X224705Y307189I1732J374D01*
G01*
X225772Y303000D02*
G03*
X222796Y304299I-1772J0D01*
G01*
X225772Y303000D02*
G03*
X222796Y304299I-1772J0D01*
G01*
X220899Y310713D02*
G03*
X221733Y308114I-659J-1645D01*
G01*
X221768D02*
G03*
X224705Y307189I1732J374D01*
G01*
X220899Y310713D02*
G03*
X221733Y308114I-659J-1645D01*
G01*
X215704Y304299D02*
G03*
X213544Y301509I-1204J-1299D01*
G01*
X215704Y304299D02*
G03*
X213544Y301509I-1204J-1299D01*
G01*
X226772Y300500D02*
G03*
X225569Y302178I-1772J0D01*
G01*
X226772Y300500D02*
G03*
X225569Y302178I-1772J0D01*
G01*
X226518Y299587D02*
G03*
X226772Y300500I-1518J913D01*
G01*
X226518Y299587D02*
G03*
X226772Y300500I-1518J913D01*
G01*
X225569Y302178D02*
G03*
X225772Y303000I-1569J822D01*
G01*
X225569Y302178D02*
G03*
X225772Y303000I-1569J822D01*
G01*
X269272Y293500D02*
G03*
X266296Y294799I-1772J0D01*
G01*
X228663Y296551D02*
G03*
X230087Y298288I-348J1737D01*
G01*
X228663Y296551D02*
G03*
X230087Y298288I-348J1737D01*
G01*
D02*
G03*
X227111Y299587I-1772J0D01*
G01*
X269272Y293500D02*
G03*
X266296Y294799I-1772J0D01*
G01*
Y292201D02*
G03*
X269272Y293500I1204J1299D01*
G01*
X266296Y292201D02*
G03*
X269272Y293500I1204J1299D01*
G01*
X230272Y291500D02*
G03*
X230127Y292201I-1772J0D01*
G01*
X230272Y291500D02*
G03*
X230127Y292201I-1772J0D01*
G01*
X230087Y298288D02*
G03*
X227111Y299587I-1772J0D01*
G01*
X214599Y296989D02*
G03*
X214561Y294799I1374J-1119D01*
G01*
X214599Y296989D02*
G03*
X214561Y294799I1374J-1119D01*
G01*
X213544Y301509D02*
G03*
X213482Y299587I1457J-1009D01*
G01*
X213544Y301509D02*
G03*
X213482Y299587I1457J-1009D01*
G01*
X213287D02*
G03*
X213955Y296989I-787J-1587D01*
G01*
X213287Y299587D02*
G03*
X213955Y296989I-787J-1587D01*
G01*
X229023Y295481D02*
G03*
X228663Y296551I-1772J0D01*
G01*
X229023Y295481D02*
G03*
X228663Y296551I-1772J0D01*
G01*
X228886Y294799D02*
G03*
X229023Y295481I-1635J682D01*
G01*
X228886Y294799D02*
G03*
X229023Y295481I-1635J682D01*
G01*
X213568Y294799D02*
G03*
X213096Y292201I-1398J-1088D01*
G01*
X213373D02*
G03*
X213276Y291093I1627J-701D01*
G01*
X213373Y292201D02*
G03*
X213276Y291093I1627J-701D01*
G01*
X208102Y319563D02*
G03*
X207468Y321094I-2165J0D01*
G01*
X208102Y319563D02*
G03*
X207468Y321094I-2165J0D01*
G01*
X197730Y308933D02*
G03*
X199590Y307231I1770J67D01*
G01*
X197730Y308933D02*
G03*
X199590Y307231I1770J67D01*
G01*
Y306925D02*
G03*
X200629Y303784I1122J-1371D01*
G01*
X199590Y306925D02*
G03*
X200629Y303784I1122J-1371D01*
G01*
X213568Y294799D02*
G03*
X213096Y292201I-1398J-1088D01*
G01*
X192299Y299796D02*
G03*
X192772Y301000I-1299J1204D01*
G01*
X192299Y299796D02*
G03*
X192772Y301000I-1299J1204D01*
G01*
D02*
G03*
X189245Y300761I-1772J0D01*
G01*
X192772Y301000D02*
G03*
X189245Y300761I-1772J0D01*
G01*
D02*
G03*
X186701Y298295I-1245J-1261D01*
G01*
X189245Y300761D02*
G03*
X186701Y298295I-1245J-1261D01*
G01*
X231108Y289575D02*
G03*
X230227Y291106I-1772J0D01*
G01*
X231108Y289575D02*
G03*
X230227Y291106I-1772J0D01*
G01*
X230192Y288024D02*
G03*
X231108Y289575I-856J1551D01*
G01*
X230192Y288024D02*
G03*
X231108Y289575I-856J1551D01*
G01*
X230272Y287500D02*
G03*
X230192Y288024I-1772J0D01*
G01*
X230272Y287500D02*
G03*
X230192Y288024I-1772J0D01*
G01*
X227295Y286201D02*
G03*
X230272Y287500I1204J1299D01*
G01*
X227295Y286201D02*
G03*
X230272Y287500I1204J1299D01*
G01*
X230227Y291106D02*
G03*
X230272Y291500I-1727J394D01*
G01*
X230227Y291106D02*
G03*
X230272Y291500I-1727J394D01*
G01*
X213276Y291093D02*
G03*
X210771Y289115I-776J-1593D01*
G01*
X213276Y291093D02*
G03*
X210771Y289115I-776J-1593D01*
G01*
Y289115D02*
G03*
X212704Y286201I729J-1615D01*
G01*
X210771Y289115D02*
G03*
X212704Y286201I729J-1615D01*
G01*
X224796Y281201D02*
G03*
X227772Y282500I1204J1299D01*
G01*
D02*
G03*
X224796Y283799I-1772J0D01*
G01*
X227772Y282500D02*
G03*
X224796Y283799I-1772J0D01*
G01*
Y281201D02*
G03*
X227772Y282500I1204J1299D01*
G01*
X211000Y283799D02*
G03*
X210012Y283343I0J-1299D01*
G01*
X211000Y283799D02*
G03*
X210012Y283343I0J-1299D01*
G01*
X208010Y281935D02*
G03*
X208102Y282560I-2073J626D01*
G01*
X208854Y282185D02*
G03*
X208010Y281935I67J-1770D01*
G01*
Y281935D02*
G03*
X208102Y282560I-2073J626D01*
G01*
X208854Y282185D02*
G03*
X208010Y281935I67J-1770D01*
G01*
X202993Y282531D02*
G03*
X206451Y280012I1927J-987D01*
G01*
X207179Y280740D02*
G03*
X210691Y280348I1742J-325D01*
G01*
X207179Y280740D02*
G03*
X210691Y280348I1742J-325D01*
G01*
X208763Y276509D02*
G03*
X207057Y278280I-1772J0D01*
G01*
X205268Y276100D02*
G03*
X208763Y276509I1724J409D01*
G01*
X207057Y278280D02*
G03*
X206003Y278699I-1054J-1116D01*
G01*
X200081Y289919D02*
G03*
X199701Y289000I919J-919D01*
G01*
X200081Y289918D02*
G03*
X199701Y289000I919J-918D01*
G01*
Y285980D02*
G03*
X198152Y285774I-564J-1679D01*
G01*
X202235Y282740D02*
G03*
X202993Y282531I839J1560D01*
G01*
X199701Y285980D02*
G03*
X198152Y285774I-564J-1679D01*
G01*
X200840Y282426D02*
G03*
X202235Y282740I342J1738D01*
G01*
X200840Y282426D02*
G03*
X202235Y282740I342J1738D01*
G01*
X199701Y285980D02*
G03*
X198152Y285774I-564J-1679D01*
G01*
D02*
G03*
X196223Y285799I-984J-1473D01*
G01*
X196272Y286500D02*
G03*
X194567Y288270I-1772J0D01*
G01*
X186701Y291705D02*
G03*
X187933Y288730I1299J-1204D01*
G01*
X196272Y286500D02*
G03*
X194567Y288270I-1772J0D01*
G01*
X186701Y291705D02*
G03*
X187933Y288730I1299J-1204D01*
G01*
X184753Y288253D02*
G03*
X183500Y288772I-1253J-1253D01*
G01*
X184753Y288253D02*
G03*
X183500Y288772I-1253J-1253D01*
G01*
X196127Y285799D02*
G03*
X196272Y286500I-1627J701D01*
G01*
X196127Y285799D02*
G03*
X196272Y286500I-1627J701D01*
G01*
X201532Y278699D02*
G03*
X202698Y280364I-606J1665D01*
G01*
D02*
G03*
X200861Y282134I-1772J0D01*
G01*
X195963Y275127D02*
G03*
X198909Y276100I1204J1299D01*
G01*
X195963Y275127D02*
G03*
X198909Y276100I1204J1299D01*
G01*
X187497Y278699D02*
G03*
X186412Y278249I0J-1536D01*
G01*
X183902Y272701D02*
G03*
X184980Y273143I0J1535D01*
G01*
X182635Y266336D02*
G03*
X183554Y266717I0J1299D01*
G01*
X182635Y266336D02*
G03*
X183553Y266716I0J1299D01*
G01*
X180272Y441500D02*
G03*
X176750Y441776I-1772J0D01*
G01*
X179799Y440296D02*
G03*
X180272Y441500I-1299J1204D01*
G01*
D02*
G03*
X176750Y441776I-1772J0D01*
G01*
Y441224D02*
G03*
X177201Y440296I1750J276D01*
G01*
X176750Y441224D02*
G03*
X177201Y440296I1750J276D01*
G01*
X176750Y441776D02*
G03*
X173701Y440296I-1750J-276D01*
G01*
X176299D02*
G03*
X176750Y441224I-1299J1204D01*
G01*
Y441776D02*
G03*
X173701Y440296I-1750J-276D01*
G01*
X176299D02*
G03*
X176750Y441224I-1299J1204D01*
G01*
X179419Y371082D02*
G03*
X179799Y372000I-919J918D01*
G01*
X179419Y371081D02*
G03*
X179799Y372000I-919J919D01*
G01*
X173701Y354500D02*
G03*
X174081Y353582I1299J0D01*
G01*
X173701Y354500D02*
G03*
X174081Y353581I1299J0D01*
G01*
X119416Y439000D02*
G03*
X120650Y441500I-1916J2500D01*
G01*
D02*
G03*
X120071Y443319I-3150J0D01*
G01*
X120190Y434862D02*
G03*
X120650Y436500I-2690J1638D01*
G01*
D02*
G03*
X119416Y439000I-3150J0D01*
G01*
X117500Y449681D02*
G03*
X115559Y443980I0J-3181D01*
G01*
D02*
G03*
X115584Y439000I1942J-2480D01*
G01*
D02*
G03*
X114810Y434862I1916J-2500D01*
G01*
X146299Y388795D02*
G03*
X146772Y390000I-1299J1204D01*
G01*
D02*
G03*
X143247Y389746I-1772J0D01*
G01*
X146299Y388795D02*
G03*
X146772Y390000I-1299J1204D01*
G01*
D02*
G03*
X143247Y389746I-1772J0D01*
G01*
Y389746D02*
G03*
X141701Y386781I-254J-1753D01*
G01*
X143247Y389746D02*
G03*
X141701Y386781I-254J-1753D01*
G01*
X125181Y383614D02*
G03*
X117063Y385022I-4181J0D01*
G01*
D02*
G03*
X108945Y383614I-3937J-1408D01*
G01*
X122408Y379677D02*
G03*
X125181Y383614I-1408J3937D01*
G01*
X108945D02*
G03*
X111718Y379677I4181J0D01*
G01*
X146772Y370000D02*
G03*
X146299Y371204I-1772J0D01*
G01*
X146772Y370000D02*
G03*
X146299Y371204I-1772J0D01*
G01*
X144615Y368271D02*
G03*
X146772Y370000I385J1729D01*
G01*
X144615Y368271D02*
G03*
X146772Y370000I385J1729D01*
G01*
X156272Y366000D02*
G03*
X154500Y367772I-1772J0D01*
G01*
X156272Y366000D02*
G03*
X154500Y367772I-1772J0D01*
G01*
X144277D02*
G03*
X144615Y368271I-1277J1228D01*
G01*
X156272Y366000D02*
G03*
X154500Y367772I-1772J0D01*
G01*
X141701Y370204D02*
G03*
X141723Y367772I1299J-1204D01*
G01*
X144277D02*
G03*
X144615Y368271I-1277J1228D01*
G01*
X141701Y370204D02*
G03*
X141723Y367772I1299J-1204D01*
G01*
X158272Y360000D02*
G03*
X156471Y361771I-1772J0D01*
G01*
X156529Y358229D02*
G03*
X158272Y360000I-29J1771D01*
G01*
D02*
G03*
X156471Y361771I-1772J0D01*
G01*
X156529Y358229D02*
G03*
X158272Y360000I-29J1771D01*
G01*
X156529Y358229D02*
G03*
X158272Y360000I-29J1771D01*
G01*
X154500Y364228D02*
G03*
X156272Y366000I0J1772D01*
G01*
X154500Y364228D02*
G03*
X156272Y366000I0J1772D01*
G01*
X158272Y360000D02*
G03*
X156471Y361771I-1772J0D01*
G01*
X123339Y364401D02*
G03*
X124101Y364228I762J1599D01*
G01*
X123339Y364401D02*
G03*
X124101Y364228I762J1599D01*
G01*
X154500D02*
G03*
X156272Y366000I0J1772D01*
G01*
X152576Y341430D02*
G03*
X151323Y341949I-1253J-1253D01*
G01*
X152576Y341430D02*
G03*
X151323Y341949I-1253J-1253D01*
G01*
X124495D02*
G03*
X125181Y344244I-3495J2295D01*
G01*
X122408Y356055D02*
G03*
X124787Y358220I-1408J3937D01*
G01*
X125181Y375740D02*
G03*
X122408Y379677I-4181J0D01*
G01*
Y371803D02*
G03*
X125181Y375740I-1408J3937D01*
G01*
X108945D02*
G03*
X111718Y371803I4181J0D01*
G01*
X125181Y367866D02*
G03*
X122408Y371803I-4181J0D01*
G01*
X111718D02*
G03*
X108945Y367866I1408J-3937D01*
G01*
X111718Y379677D02*
G03*
X108945Y375740I1408J-3937D01*
G01*
Y367866D02*
G03*
X111718Y363929I4181J0D01*
G01*
X122408D02*
G03*
X123339Y364401I-1408J3937D01*
G01*
X124787Y361764D02*
G03*
X122408Y363929I-3787J-1771D01*
G01*
X111718D02*
G03*
X108945Y359992I1408J-3937D01*
G01*
X125181Y352118D02*
G03*
X122408Y356055I-4181J0D01*
G01*
X108945Y359992D02*
G03*
X111429Y356171I4181J0D01*
G01*
X122408Y348181D02*
G03*
X125181Y352118I-1408J3937D01*
G01*
X108732D02*
G03*
X111176Y348181I4394J0D01*
G01*
X111429Y356171D02*
G03*
X108732Y352118I1697J-4053D01*
G01*
X125181Y344244D02*
G03*
X122408Y348181I-4181J0D01*
G01*
X111176D02*
G03*
X108732Y344244I1951J-3937D01*
G01*
D02*
G03*
X111429Y340191I4394J0D01*
G01*
X155247Y333747D02*
G03*
X156500Y333228I1253J1253D01*
G01*
X155247Y333747D02*
G03*
X156500Y333228I1253J1253D01*
G01*
X160774Y328228D02*
G03*
X160349Y324299I2226J-2228D01*
G01*
X160774Y328228D02*
G03*
X160349Y324299I2226J-2228D01*
G01*
X150349Y333157D02*
G03*
X148261Y334022I-2088J-2088D01*
G01*
X149408Y329087D02*
G03*
X151489Y328228I2081J2094D01*
G01*
X145270Y325067D02*
G03*
X143433Y323230I-1770J-67D01*
G01*
X145270Y325067D02*
G03*
X143433Y323230I-1770J-67D01*
G01*
X144509Y322154D02*
G03*
X145380Y321716I1089J1082D01*
G01*
X145380D02*
G03*
X145745Y319750I1620J-716D01*
G01*
X145380Y321716D02*
G03*
X145745Y319750I1620J-716D01*
G01*
D02*
G03*
X145697Y317299I1256J-1250D01*
G01*
X145745Y319750D02*
G03*
X145697Y317299I1256J-1250D01*
G01*
X171165Y306500D02*
G03*
X166835Y306500I-2165J0D01*
G01*
X171165D02*
G03*
X166835Y306500I-2165J0D01*
G01*
X144689Y310738D02*
G03*
X145000Y310701I311J1261D01*
G01*
X171165Y306500D02*
G03*
X166835Y306500I-2165J0D01*
G01*
X142776Y312907D02*
G03*
X144689Y310738I1724J-407D01*
G01*
D02*
G03*
X145000Y310701I311J1261D01*
G01*
X142776Y312907D02*
G03*
X144689Y310738I1724J-407D01*
G01*
X144789Y303468D02*
G03*
X143084Y305238I-1772J0D01*
G01*
X144789Y303468D02*
G03*
X143084Y305238I-1772J0D01*
G01*
X141246Y303401D02*
G03*
X144789Y303468I1770J67D01*
G01*
X141246Y303401D02*
G03*
X144789Y303468I1770J67D01*
G01*
X144770Y317567D02*
G03*
X141742Y316253I-1770J-67D01*
G01*
X144770Y317567D02*
G03*
X141742Y316253I-1770J-67D01*
G01*
X124459Y334022D02*
G03*
X125181Y336370I-3459J2348D01*
G01*
Y328496D02*
G03*
X124681Y330478I-4181J0D01*
G01*
X125181Y336370D02*
G03*
X124652Y338405I-4181J0D01*
G01*
X131772Y316500D02*
G03*
X128796Y317799I-1772J0D01*
G01*
X122408Y324559D02*
G03*
X125181Y328496I-1408J3937D01*
G01*
X124084Y317799D02*
G03*
X125181Y320622I-3084J2823D01*
G01*
D02*
G03*
X122408Y324559I-4181J0D01*
G01*
X131772Y316500D02*
G03*
X128796Y317799I-1772J0D01*
G01*
X141742Y316253D02*
G03*
X142776Y312907I258J-1753D01*
G01*
X141742Y316253D02*
G03*
X142776Y312907I258J-1753D01*
G01*
X128796Y315201D02*
G03*
X131772Y316500I1204J1299D01*
G01*
X128796Y315201D02*
G03*
X131772Y316500I1204J1299D01*
G01*
X137990Y310332D02*
G03*
X137071Y310713I-919J-919D01*
G01*
X137989Y310333D02*
G03*
X137071Y310713I-918J-919D01*
G01*
X125181Y312748D02*
G03*
X124386Y315201I-4181J0D01*
G01*
X125394Y304874D02*
G03*
X123968Y308114I-4394J0D01*
G01*
X121526Y300512D02*
G03*
X125394Y304874I-526J4362D01*
G01*
X171253Y288772D02*
G03*
X169388Y285338I-1753J-1272D01*
G01*
X166835Y294500D02*
G03*
X171165Y294500I2165J0D01*
G01*
X166835D02*
G03*
X171165Y294500I2165J0D01*
G01*
X171253Y288772D02*
G03*
X169388Y285338I-1753J-1272D01*
G01*
X166835Y294500D02*
G03*
X171165Y294500I2165J0D01*
G01*
X167294Y287717D02*
G03*
X164192Y286547I-1772J0D01*
G01*
X166790Y286480D02*
G03*
X167294Y287717I-1268J1237D01*
G01*
X166790Y286480D02*
G03*
X167294Y287717I-1268J1237D01*
G01*
D02*
G03*
X164192Y286547I-1772J0D01*
G01*
X169388Y285338D02*
G03*
X170000Y285228I612J1662D01*
G01*
X169388Y285338D02*
G03*
X170000Y285228I612J1662D01*
G01*
X169204Y282299D02*
G03*
X166790Y282294I-1204J-1299D01*
G01*
X169204Y282299D02*
G03*
X166790Y282294I-1204J-1299D01*
G01*
X166024Y279139D02*
G03*
X167084Y278701I1074J1098D01*
G01*
X167204Y275299D02*
G03*
X167204Y272701I-1204J-1299D01*
G01*
X164192Y281607D02*
G03*
X164634Y280529I1536J0D01*
G01*
X167204Y275299D02*
G03*
X167204Y272701I-1204J-1299D01*
G01*
X178975Y268935D02*
G03*
X178975Y266336I-1204J-1299D01*
G01*
Y268935D02*
G03*
X178975Y266336I-1204J-1299D01*
G01*
X125394Y289126D02*
G03*
X121526Y293488I-4394J0D01*
G01*
Y284764D02*
G03*
X125394Y289126I-526J4362D01*
G01*
Y273378D02*
G03*
X121526Y277740I-4394J0D01*
G01*
X125394Y257630D02*
G03*
X121526Y261992I-4394J0D01*
G01*
Y269016D02*
G03*
X125394Y273378I-526J4362D01*
G01*
X121526Y253268D02*
G03*
X125394Y257630I-526J4362D01*
G01*
Y241882D02*
G03*
X121526Y246244I-4394J0D01*
G01*
X121786Y237559D02*
G03*
X125394Y241882I-786J4323D01*
G01*
X124652Y310713D02*
G03*
X125181Y312748I-3652J2035D01*
G01*
X124551Y297000D02*
G03*
X121526Y300512I-3551J0D01*
G01*
X120474D02*
G03*
X117449Y297000I526J-3512D01*
G01*
X117063Y302923D02*
G03*
X120474Y300512I3937J1951D01*
G01*
X121526Y293488D02*
G03*
X124551Y297000I-526J3512D01*
G01*
X117449D02*
G03*
X120474Y293488I3551J0D01*
G01*
X108945Y320622D02*
G03*
X111718Y316685I4181J0D01*
G01*
D02*
G03*
X108945Y312748I1408J-3937D01*
G01*
X111718Y324559D02*
G03*
X108945Y320622I1408J-3937D01*
G01*
Y312748D02*
G03*
X111429Y308927I4181J0D01*
G01*
X108945Y336370D02*
G03*
X111718Y332433I4181J0D01*
G01*
D02*
G03*
X108945Y328496I1408J-3937D01*
G01*
X111429Y340191D02*
G03*
X108945Y336370I1697J-3821D01*
G01*
Y328496D02*
G03*
X111718Y324559I4181J0D01*
G01*
X111429Y308927D02*
G03*
X108732Y304874I1697J-4053D01*
G01*
X113652Y300512D02*
G03*
X117063Y302923I-526J4362D01*
G01*
X116677Y297000D02*
G03*
X113652Y300512I-3551J0D01*
G01*
Y293488D02*
G03*
X116677Y297000I-526J3512D01*
G01*
X108732Y304874D02*
G03*
X112600Y300512I4394J0D01*
G01*
X109575Y297000D02*
G03*
X112600Y293488I3551J0D01*
G01*
Y300512D02*
G03*
X109575Y297000I526J-3512D01*
G01*
X124551Y281252D02*
G03*
X121526Y284764I-3551J0D01*
G01*
X120474D02*
G03*
X117449Y281252I526J-3512D01*
G01*
X120474Y293488D02*
G03*
X117063Y291077I526J-4362D01*
G01*
Y287176D02*
G03*
X120474Y284764I3937J1951D01*
G01*
X117449Y281252D02*
G03*
X120474Y277740I3551J0D01*
G01*
X121526D02*
G03*
X124551Y281252I-526J3512D01*
G01*
X120474Y277740D02*
G03*
X117063Y275329I526J-4362D01*
G01*
Y291077D02*
G03*
X113652Y293488I-3937J-1951D01*
G01*
Y284764D02*
G03*
X117063Y287176I-526J4362D01*
G01*
X116677Y281252D02*
G03*
X113652Y284764I-3551J0D01*
G01*
X112600Y293488D02*
G03*
X108732Y289126I526J-4362D01*
G01*
X112600Y284764D02*
G03*
X109575Y281252I526J-3512D01*
G01*
X108732Y289126D02*
G03*
X112600Y284764I4394J0D01*
G01*
X117063Y275329D02*
G03*
X113652Y277740I-3937J-1951D01*
G01*
D02*
G03*
X116677Y281252I-526J3512D01*
G01*
X109575D02*
G03*
X112600Y277740I3551J0D01*
G01*
D02*
G03*
X108732Y273378I526J-4362D01*
G01*
X124551Y265504D02*
G03*
X121526Y269016I-3551J0D01*
G01*
Y261992D02*
G03*
X124551Y265504I-526J3512D01*
G01*
X117449D02*
G03*
X120474Y261992I3551J0D01*
G01*
X117063Y271428D02*
G03*
X120474Y269016I3937J1951D01*
G01*
D02*
G03*
X117449Y265504I526J-3512D01*
G01*
X120474Y261992D02*
G03*
X117063Y259581I526J-4362D01*
G01*
Y255680D02*
G03*
X120474Y253268I3937J1951D01*
G01*
X113652Y269016D02*
G03*
X117063Y271428I-526J4362D01*
G01*
X113652Y261992D02*
G03*
X116677Y265504I-526J3512D01*
G01*
D02*
G03*
X113652Y269016I-3551J0D01*
G01*
X117063Y259581D02*
G03*
X113652Y261992I-3937J-1951D01*
G01*
X124551Y249756D02*
G03*
X121526Y253268I-3551J0D01*
G01*
Y246244D02*
G03*
X124551Y249756I-526J3512D01*
G01*
X120474Y253268D02*
G03*
X120474Y246244I526J-3512D01*
G01*
D02*
G03*
X117063Y243833I526J-4362D01*
G01*
Y239932D02*
G03*
X120214Y237559I3937J1951D01*
G01*
X113652Y246244D02*
G03*
X116677Y249756I-526J3512D01*
G01*
X117063Y243833D02*
G03*
X113652Y246244I-3937J-1951D01*
G01*
X116677Y249756D02*
G03*
X113652Y253268I-3551J0D01*
G01*
Y237520D02*
G03*
X117063Y239932I-526J4362D01*
G01*
X116677Y234008D02*
G03*
X113652Y237520I-3551J0D01*
G01*
X108732Y273378D02*
G03*
X112600Y269016I4394J0D01*
G01*
X109575Y265504D02*
G03*
X112600Y261992I3551J0D01*
G01*
Y269016D02*
G03*
X109575Y265504I526J-3512D01*
G01*
X113652Y253268D02*
G03*
X117063Y255680I-526J4362D01*
G01*
X112600Y253268D02*
G03*
X112600Y246244I526J-3512D01*
G01*
D02*
G03*
X112600Y237520I526J-4362D01*
G01*
Y261992D02*
G03*
X112600Y253268I526J-4362D01*
G01*
Y237520D02*
G03*
X116677Y234008I526J-3512D01*
G01*
X257771Y479527D02*
X305819D01*
X257600Y478739D02*
X305819D01*
X257574Y480314D02*
X305819D01*
X293080Y443306D02*
X305819D01*
X292581Y444094D02*
X305819D01*
X256861Y477952D02*
X305819D01*
X255502Y477164D02*
X305819D01*
X256758Y481101D02*
X305819D01*
X253927Y475590D02*
X305819D01*
X254714Y476377D02*
X305819D01*
X293641Y441731D02*
X305819D01*
X293600Y440944D02*
X305819D01*
X293480Y442519D02*
X305819D01*
X293637Y436220D02*
X305819D01*
X293608Y437007D02*
X305819D01*
X292819Y439369D02*
X305819D01*
X292863Y438582D02*
X305819D01*
X293349Y440157D02*
X305819D01*
X293463Y435432D02*
X305819D01*
X293371Y437794D02*
X305819D01*
X293289Y448031D02*
X305819D01*
X293593Y447243D02*
X305819D01*
X292679Y448818D02*
X305819D01*
X293681Y446456D02*
X305819D01*
X252352Y474015D02*
X305819D01*
X251565Y473227D02*
X305819D01*
X253140Y474802D02*
X305819D01*
X291190Y449605D02*
X305819D01*
X293570Y445668D02*
X305819D01*
X293238Y444881D02*
X305819D01*
X293190Y434862D02*
X293862D01*
Y430708D02*
X305819D01*
X293862Y429920D02*
X305819D01*
X293862Y431495D02*
X305819D01*
X293862Y428346D02*
X305819D01*
X293862Y429133D02*
X305819D01*
X280813Y392913D02*
X305819D01*
X281613Y392125D02*
X305819D01*
X293862Y432283D02*
X305819D01*
X283188Y390550D02*
X305819D01*
X282401Y391338D02*
X305819D01*
X297048Y385826D02*
X305819D01*
X297431Y385039D02*
X305819D01*
X296413Y386613D02*
X305819D01*
X297678Y383464D02*
X305819D01*
X297632Y384251D02*
X305819D01*
X284763Y388976D02*
X305819D01*
X283976Y389763D02*
X305819D01*
X295273Y387401D02*
X305819D01*
X285550Y388188D02*
X305819D01*
X293862Y433857D02*
X305819D01*
X293862Y433070D02*
X305819D01*
X293862Y434645D02*
X305819D01*
X293862Y428138D02*
Y434862D01*
X287138D02*
X287810D01*
X287138Y428138D02*
X293862D01*
X287138D02*
Y434862D01*
X287399Y387401D02*
X291727D01*
X288539Y386613D02*
X290587D01*
X289174Y385826D02*
X289952D01*
X280989Y392749D02*
X285956Y387782D01*
X277422Y387319D02*
X281458Y383283D01*
X244478Y466141D02*
X305819D01*
X243691Y465353D02*
X305819D01*
X245266Y466928D02*
X305819D01*
X242116Y463779D02*
X305819D01*
X242903Y464566D02*
X305819D01*
X240541Y462204D02*
X305819D01*
X239754Y461416D02*
X305819D01*
X241329Y462991D02*
X305819D01*
X238179Y459842D02*
X305819D01*
X238966Y460629D02*
X305819D01*
X236604Y458267D02*
X305819D01*
X235817Y457479D02*
X305819D01*
X237392Y459054D02*
X305819D01*
X234242Y455905D02*
X305819D01*
X235029Y456692D02*
X305819D01*
X232667Y454330D02*
X305819D01*
X233455Y455117D02*
X305819D01*
X231092Y452755D02*
X305819D01*
X231880Y453542D02*
X305819D01*
X225945Y489763D02*
X305819D01*
X225945Y488975D02*
X305819D01*
X225918Y490550D02*
X305819D01*
X225784Y487401D02*
X305819D01*
X225932Y488188D02*
X305819D01*
X224751Y492912D02*
X305819D01*
X225377Y492125D02*
X305819D01*
X223576Y493700D02*
X305819D01*
X225456Y486613D02*
X305819D01*
X225742Y491338D02*
X305819D01*
X249990Y471653D02*
X305819D01*
X249203Y470865D02*
X305819D01*
X250777Y472440D02*
X305819D01*
X247628Y469290D02*
X305819D01*
X248415Y470078D02*
X305819D01*
X223858Y485038D02*
X305819D01*
X224885Y485826D02*
X305819D01*
X246053Y467716D02*
X305819D01*
X246840Y468503D02*
X305819D01*
X179799Y411810D02*
X305819D01*
X179799Y411023D02*
X305819D01*
X179799Y412598D02*
X305819D01*
X179799Y409448D02*
X305819D01*
X179799Y410235D02*
X305819D01*
X179799Y416535D02*
X305819D01*
X179799Y415747D02*
X305819D01*
X179799Y417322D02*
X305819D01*
X179799Y413385D02*
X305819D01*
X179799Y414172D02*
X305819D01*
X179799Y404724D02*
X305819D01*
X179799Y396062D02*
X305819D01*
X179799Y405511D02*
X305819D01*
X196521Y393700D02*
X305819D01*
X179799Y395275D02*
X305819D01*
X179799Y407873D02*
X305819D01*
X179799Y408661D02*
X305819D01*
X179799Y406298D02*
X305819D01*
X179799Y407086D02*
X305819D01*
X230305Y451968D02*
X305819D01*
X192182Y451180D02*
X305819D01*
X180256Y441731D02*
X287359D01*
X218681Y426771D02*
X305819D01*
X180182Y440944D02*
X287400D01*
X179949Y442519D02*
X287520D01*
X179799Y433857D02*
X287138D01*
X179799Y434645D02*
X287138D01*
X179799Y427558D02*
X305819D01*
X179799Y433070D02*
X287138D01*
X218681Y422046D02*
X305819D01*
X218681Y421259D02*
X305819D01*
X218681Y422834D02*
X305819D01*
X218681Y419684D02*
X305819D01*
X218681Y420472D02*
X305819D01*
X218681Y425196D02*
X305819D01*
X218681Y425983D02*
X305819D01*
X218681Y423621D02*
X305819D01*
X218681Y424409D02*
X305819D01*
X297575Y366928D02*
X305819D01*
X297309Y366141D02*
X305819D01*
X297678Y367716D02*
X305819D01*
X297632Y360629D02*
X305819D01*
X297431Y361417D02*
X305819D01*
X296068Y364566D02*
X305819D01*
X295273Y363779D02*
X305819D01*
X296842Y365354D02*
X305819D01*
X297048Y362204D02*
X305819D01*
X296413Y362991D02*
X305819D01*
X297575Y359054D02*
X305819D01*
X297309Y358267D02*
X305819D01*
X297678Y359842D02*
X305819D01*
X297431Y353543D02*
X305819D01*
X297048Y354330D02*
X305819D01*
X296068Y356692D02*
X305819D01*
X296842Y357480D02*
X305819D01*
X296413Y355117D02*
X305819D01*
X295273Y355905D02*
X305819D01*
X297309Y381889D02*
X305819D01*
X297431Y377165D02*
X305819D01*
X297575Y382676D02*
X305819D01*
X297678Y375590D02*
X305819D01*
X297632Y376377D02*
X305819D01*
X296068Y380314D02*
X305819D01*
X295273Y379527D02*
X305819D01*
X296842Y381102D02*
X305819D01*
X297048Y377952D02*
X305819D01*
X296413Y378739D02*
X305819D01*
X297309Y374015D02*
X305819D01*
X297048Y370078D02*
X305819D01*
X297575Y374802D02*
X305819D01*
X297632Y368503D02*
X305819D01*
X297431Y369291D02*
X305819D01*
X296068Y372440D02*
X305819D01*
X296842Y373228D02*
X305819D01*
X296413Y370865D02*
X305819D01*
X295273Y371653D02*
X305819D01*
X297431Y337795D02*
X305819D01*
X297632Y337007D02*
X305819D01*
X297632Y352755D02*
X305819D01*
X297575Y335432D02*
X305819D01*
X297678Y336220D02*
X305819D01*
X296413Y339369D02*
X305819D01*
X297048Y338582D02*
X305819D01*
X295273Y340157D02*
X305819D01*
X296842Y333858D02*
X305819D01*
X297309Y334645D02*
X305819D01*
X297632Y329133D02*
X305819D01*
X297678Y328346D02*
X305819D01*
X297431Y329921D02*
X305819D01*
X297309Y326771D02*
X305819D01*
X297575Y327558D02*
X305819D01*
X295273Y332283D02*
X305819D01*
X296068Y333070D02*
X305819D01*
X297048Y330708D02*
X305819D01*
X296413Y331495D02*
X305819D01*
X297575Y351180D02*
X305819D01*
X297309Y350393D02*
X305819D01*
X297678Y351968D02*
X305819D01*
X297048Y346456D02*
X305819D01*
X296842Y349606D02*
X305819D01*
X296068Y348818D02*
X305819D01*
X295273Y348031D02*
X305819D01*
X296413Y347243D02*
X305819D01*
X297632Y344881D02*
X305819D01*
X297678Y344094D02*
X305819D01*
X297431Y345669D02*
X305819D01*
X297309Y342519D02*
X305819D01*
X297575Y343306D02*
X305819D01*
X296068Y340944D02*
X305819D01*
X296842Y341732D02*
X305819D01*
X278559Y372440D02*
X283059D01*
X279346Y371653D02*
X283853D01*
X224525Y356692D02*
X283059D01*
X225523Y355905D02*
X283398D01*
X276984Y374015D02*
X281817D01*
X277771Y373228D02*
X282284D01*
X276196Y374802D02*
X281551D01*
X278634Y364685D02*
X282913D01*
X279952Y371047D02*
X282912D01*
X270877Y378739D02*
X282713D01*
X272744Y377952D02*
X282078D01*
X273816Y377165D02*
X281695D01*
X274622Y376377D02*
X281494D01*
X275409Y375590D02*
X281448D01*
X225768Y355117D02*
X282415D01*
X225640Y354330D02*
X281830D01*
X225007Y353543D02*
X281470D01*
X201246Y352755D02*
X281279D01*
X200458Y351968D02*
X281235D01*
X181070Y358267D02*
X281817D01*
X180283Y359054D02*
X281551D01*
X181858Y357480D02*
X282284D01*
X199671Y351180D02*
X281333D01*
X278778Y341732D02*
X282284D01*
X276082Y342710D02*
X282221Y348849D01*
X278299Y340944D02*
X283059D01*
X197309Y348818D02*
X282190D01*
X278299Y340157D02*
X283853D01*
X278299Y339369D02*
X282713D01*
X278758Y332283D02*
X283853D01*
X278677Y333070D02*
X283059D01*
X278299Y333858D02*
X282284D01*
X278459Y331495D02*
X282713D01*
X268799Y325984D02*
X282284D01*
X280353Y343306D02*
X281551D01*
X279566Y342519D02*
X281817D01*
X281140Y344094D02*
X281448D01*
X278299Y337795D02*
X281695D01*
X278299Y337007D02*
X281494D01*
X198883Y350393D02*
X281585D01*
X198096Y349606D02*
X282022D01*
X196521Y348031D02*
X281403D01*
X278299Y338582D02*
X282078D01*
X278299Y341252D02*
X281448Y344401D01*
X278299Y335432D02*
X281551D01*
X278299Y334645D02*
X281817D01*
X278299Y336220D02*
X281448D01*
X268799Y326771D02*
X281817D01*
X268799Y327558D02*
X281551D01*
X268799Y330708D02*
X282078D01*
X268799Y329921D02*
X281695D01*
X268799Y329133D02*
X281494D01*
X268799Y328346D02*
X281448D01*
X225945Y488514D02*
Y490088D01*
X223695Y477952D02*
X252614D01*
X217476Y477164D02*
X219034D01*
X225696Y476377D02*
X251040D01*
X226145Y475590D02*
X250252D01*
X226412Y474802D02*
X249465D01*
X226528Y474015D02*
X248677D01*
X226536Y473227D02*
X247890D01*
X224982Y477164D02*
X251827D01*
X218575Y476117D02*
X218770Y475646D01*
X218844Y475277D01*
X218575Y473745D02*
X218770Y474216D01*
X218071Y488514D02*
Y490088D01*
X217093Y477323D02*
X217564Y477128D01*
X216633Y477415D02*
X217093Y477323D01*
X217954Y476867D02*
X218314Y476507D01*
X217564Y477128D02*
X217954Y476867D01*
X216124Y477415D02*
X216633D01*
X215663Y477323D02*
X216032Y477396D01*
X215192Y477128D02*
X215663Y477323D01*
X214802Y476867D02*
X215192Y477128D01*
X214442Y476507D02*
X214802Y476867D01*
X218362Y476435D02*
X218575Y476117D01*
X218314Y473355D02*
X218575Y473745D01*
X214442Y473355D02*
X214802Y472995D01*
X217954D02*
X218314Y473355D01*
X217093Y472539D02*
X217480Y472699D01*
X213986Y475646D02*
X214181Y476117D01*
X213894Y475185D02*
X213986Y475646D01*
Y474216D02*
X214181Y473745D01*
X213894Y474677D02*
X213986Y474216D01*
X226536Y472440D02*
X247103D01*
X226505Y471653D02*
X246315D01*
X226536Y472176D02*
Y473750D01*
X229919Y451582D02*
X256067Y477730D01*
X228462Y453799D02*
X254230Y479567D01*
X226342Y470865D02*
X245528D01*
X226020Y470078D02*
X244740D01*
X225497Y469290D02*
X243953D01*
X224656Y468503D02*
X243166D01*
X222787Y467716D02*
X242378D01*
X211004Y419661D02*
X218681D01*
X211004Y427339D02*
X218681D01*
X210000Y393681D02*
X278740D01*
X218681Y419661D02*
Y427339D01*
X215663Y472539D02*
X216124Y472447D01*
X216124D02*
X216633D01*
X215192Y472734D02*
X215663Y472539D01*
X217480Y472176D02*
Y472699D01*
X216633Y472447D02*
X217093Y472539D01*
X198358Y425983D02*
X211004D01*
X198837Y425196D02*
X211004D01*
X197548Y426771D02*
X211004D01*
Y419661D02*
Y427339D01*
X199106Y424409D02*
X211004D01*
X199153Y422834D02*
X211004D01*
X198939Y422046D02*
X211004D01*
X199207Y423621D02*
X211004D01*
X215165Y386000D02*
Y387319D01*
X210119D02*
X210835Y386603D01*
X197848Y420472D02*
X211004D01*
X198532Y421259D02*
X211004D01*
X196518Y419684D02*
X211004D01*
X196561Y393681D02*
X210000D01*
X191902Y490550D02*
X218098D01*
X191929Y488975D02*
X218071D01*
X191929Y489763D02*
X218071D01*
X191768Y487401D02*
X218232D01*
X191916Y488188D02*
X218085D01*
X189560Y493700D02*
X220440D01*
X190735Y492912D02*
X219265D01*
X191361Y492125D02*
X218639D01*
X191440Y486613D02*
X218560D01*
X191726Y491338D02*
X218274D01*
X195645Y476377D02*
X214355D01*
X196025Y475590D02*
X213975D01*
X196106Y474802D02*
X213894D01*
X195931Y474015D02*
X214069D01*
X196014Y474216D02*
X196106Y474677D01*
X189842Y485038D02*
X220158D01*
X190869Y485826D02*
X219131D01*
X189679Y477952D02*
X220321D01*
X194720Y477164D02*
X215280D01*
X193368Y477415D02*
X193877D01*
X194337Y477323D01*
X192907Y477323D02*
X193276Y477396D01*
X194337Y477323D02*
X194808Y477128D01*
X192436D02*
X192907Y477323D01*
X191929Y488514D02*
Y490089D01*
X184055Y488514D02*
Y490089D01*
X195198Y476867D02*
X195558Y476507D01*
X195819Y476117D01*
X194808Y477128D02*
X195198Y476867D01*
X196014Y475646D02*
X196088Y475277D01*
X195819Y476117D02*
X196014Y475646D01*
X190966Y477164D02*
X192524D01*
X192046Y476867D02*
X192436Y477128D01*
X191686Y476507D02*
X192046Y476867D01*
X191230Y475646D02*
X191425Y476117D01*
X195819Y473745D02*
X196014Y474216D01*
X195431Y473227D02*
X214569D01*
X195558Y473355D02*
X195819Y473745D01*
X192520Y472440D02*
X217480D01*
X195198Y472995D02*
X195558Y473355D01*
X192326Y470865D02*
X217674D01*
X192004Y470078D02*
X217996D01*
X192489Y471653D02*
X217511D01*
X190640Y468503D02*
X219360D01*
X191481Y469290D02*
X218519D01*
X192204Y453799D02*
X228462D01*
X192204Y451201D02*
X229000D01*
X188771Y467716D02*
X221229D01*
X194337Y472539D02*
X194808Y472734D01*
X192907Y472539D02*
X193368Y472447D01*
X192520Y472699D02*
X192907Y472539D01*
X193877Y472447D02*
X194337Y472539D01*
X193368Y472447D02*
X193877D01*
X191230Y474216D02*
X191425Y473745D01*
X191686Y473355D02*
X192046Y472995D01*
X183464Y472176D02*
Y473750D01*
X192520Y472176D02*
Y472699D01*
X179799Y391338D02*
X191557D01*
X179799Y388188D02*
X192315D01*
X179799Y390550D02*
X191457D01*
X179799Y426771D02*
X192767D01*
X179799Y425983D02*
X191957D01*
X179799Y425196D02*
X191478D01*
X274132Y376867D02*
X279952Y371047D01*
X269627Y372374D02*
X276385Y365616D01*
X222697Y343306D02*
X276678D01*
X215165Y386613D02*
X278128D01*
X215158Y385826D02*
X278915D01*
X215165Y387319D02*
X277422D01*
X214277Y384251D02*
X280490D01*
X214940Y385039D02*
X279702D01*
X223194Y342519D02*
X275924D01*
X222923Y340944D02*
X275701D01*
X223251Y341732D02*
X275701D01*
X221375Y339369D02*
X275701D01*
X222162Y340157D02*
X275701D01*
X219800Y337795D02*
X275701D01*
X220587Y338582D02*
X275701D01*
X210835Y386000D02*
Y386603D01*
X207114Y341732D02*
X218726D01*
X207271Y340944D02*
X217939D01*
X207058Y340157D02*
X217151D01*
X269218Y335432D02*
X275701D01*
X278299Y333704D02*
Y341252D01*
X275701Y333704D02*
Y341791D01*
X219013Y337007D02*
X275701D01*
X268785Y336220D02*
X275701D01*
X218225D02*
X266215D01*
X269236Y334645D02*
X275701D01*
X268854Y333858D02*
X275701D01*
X268799Y333070D02*
X275323D01*
X268799Y331495D02*
X275541D01*
X268799Y332283D02*
X275242D01*
X217438Y335432D02*
X265782D01*
X215863Y333858D02*
X266146D01*
X216651Y334645D02*
X265764D01*
X213755Y336761D02*
X220247Y343253D01*
X215742Y333736D02*
X222753Y340747D01*
X213511Y333218D02*
X214489D01*
X258124Y330708D02*
X266201D01*
X258270Y329921D02*
X266201D01*
X257450Y331495D02*
X266201D01*
X257134Y328346D02*
X266201D01*
X258045Y329133D02*
X266201D01*
X189547Y372614D02*
X269048D01*
X201751Y356299D02*
X222796D01*
X196561Y387319D02*
X210000D01*
X189933Y345117D02*
X200666Y355850D01*
X189547Y378976D02*
X269048D01*
X182645Y356692D02*
X223475D01*
X183433Y355905D02*
X200723D01*
X184220Y355117D02*
X199933D01*
X185007Y354330D02*
X199146D01*
X202033Y353543D02*
X222993D01*
X195734Y347243D02*
X280615D01*
X202191Y353701D02*
X222796D01*
X194946Y346456D02*
X279828D01*
X194159Y345669D02*
X279041D01*
X185795Y353543D02*
X198358D01*
X186582Y352755D02*
X197571D01*
X193372Y344881D02*
X278253D01*
X192584Y344094D02*
X277466D01*
X187370Y351968D02*
X196783D01*
X188821Y351180D02*
X195996D01*
X189227Y350393D02*
X195209D01*
X180944D02*
X185270D01*
X180157Y351180D02*
X184482D01*
X189227Y349606D02*
X194421D01*
X188820Y348818D02*
X193634D01*
X184881Y346456D02*
X191272D01*
X185669Y345669D02*
X190484D01*
X186456Y344881D02*
X189114D01*
X182519Y348818D02*
X186180D01*
X181732Y349606D02*
X185773D01*
X183307Y348031D02*
X192847D01*
X184094Y347243D02*
X192059D01*
X206412Y342519D02*
X219514D01*
X191797Y343306D02*
X220303D01*
X202412Y342519D02*
X204588D01*
X203114Y341732D02*
X203887D01*
X203269Y341106D02*
X203880Y341718D01*
X206193Y339369D02*
X216364D01*
X204419Y338582D02*
X215577D01*
X204419Y338582D02*
X205109Y339272D01*
X193480Y337795D02*
X214789D01*
X194204Y338201D02*
X203500D01*
X201791Y326771D02*
X266201D01*
X200840Y327558D02*
X266201D01*
X191770Y343280D02*
X202191Y353701D01*
X191566Y342519D02*
X200588D01*
X187244Y344094D02*
X188393D01*
X192204Y341799D02*
X199919D01*
X189000Y339201D02*
X189795D01*
X297632Y321259D02*
X305819D01*
X297678Y320472D02*
X305819D01*
X297431Y322047D02*
X305819D01*
X297309Y318897D02*
X305819D01*
X297575Y319684D02*
X305819D01*
X296068Y325196D02*
X305819D01*
X295273Y324409D02*
X305819D01*
X296842Y325984D02*
X305819D01*
X297048Y322834D02*
X305819D01*
X296413Y323621D02*
X305819D01*
X303612Y310236D02*
X305819D01*
X303771Y309448D02*
X305819D01*
X302905Y311023D02*
X305819D01*
X302702Y307873D02*
X305819D01*
X303560Y308661D02*
X305819D01*
X297678Y312598D02*
X305819D01*
X300192Y311810D02*
X305819D01*
X296842Y318110D02*
X305819D01*
X297431Y306299D02*
X305819D01*
X297048Y307086D02*
X305819D01*
X297431Y314173D02*
X305819D01*
X297632Y313385D02*
X305819D01*
X297048Y314960D02*
X305819D01*
X296068Y317322D02*
X305819D01*
X296413Y315747D02*
X305819D01*
X295273Y316535D02*
X305819D01*
X300693Y311023D02*
X301095D01*
X296982Y307189D02*
X300988D01*
X297891Y288976D02*
X305819D01*
X297793Y288188D02*
X305819D01*
X297847Y289763D02*
X305819D01*
Y220681D02*
Y498819D01*
X297541Y287401D02*
X305819D01*
X296401Y285826D02*
X305819D01*
X295112Y285039D02*
X305819D01*
X297104Y286614D02*
X305819D01*
X296278Y283464D02*
X305819D01*
X295401Y284251D02*
X305819D01*
X296994Y281889D02*
X305819D01*
X297048Y281102D02*
X305819D01*
X296753Y282677D02*
X305819D01*
X297296Y275590D02*
X305819D01*
X296925Y280314D02*
X305819D01*
X296010Y278740D02*
X305819D01*
X296604Y279527D02*
X305819D01*
X296711Y276377D02*
X305819D01*
X295728Y277165D02*
X305819D01*
X297632Y305511D02*
X305819D01*
X297678Y304724D02*
X305819D01*
X297309Y303149D02*
X305819D01*
X297575Y303936D02*
X305819D01*
X296068Y301574D02*
X305819D01*
X295401Y299999D02*
X305819D01*
X296842Y302362D02*
X305819D01*
X296753Y298425D02*
X305819D01*
X296278Y299212D02*
X305819D01*
X297048Y296850D02*
X305819D01*
X296925Y296062D02*
X305819D01*
X296994Y297637D02*
X305819D01*
X297656Y290551D02*
X305819D01*
X297296Y291338D02*
X305819D01*
X296010Y294488D02*
X305819D01*
X296604Y295275D02*
X305819D01*
X296711Y292125D02*
X305819D01*
X295728Y292913D02*
X305819D01*
X294381Y300787D02*
X305819D01*
X286507D02*
X292619D01*
X288193Y301574D02*
X290932D01*
X287527Y299999D02*
X291599D01*
X288404Y299212D02*
X290722D01*
X294812Y293700D02*
X305819D01*
X288136Y294488D02*
X290990D01*
X288730Y295275D02*
X290396D01*
X286938Y293700D02*
X292188D01*
X287854Y292913D02*
X291272D01*
X288968Y302362D02*
X290158D01*
X288879Y298425D02*
X290247D01*
X289120Y297637D02*
X290006D01*
X226748Y300787D02*
X284745D01*
X289174Y296850D02*
X289952D01*
X289051Y296062D02*
X290075D01*
X288837Y292125D02*
X290289D01*
X269260Y293700D02*
X284314D01*
X287238Y285039D02*
X291888D01*
X288527Y285826D02*
X290599D01*
X287527Y284251D02*
X291599D01*
X288404Y283464D02*
X290722D01*
X294812Y277952D02*
X305819D01*
X286938D02*
X292188D01*
X288136Y278740D02*
X290990D01*
X287854Y277165D02*
X291272D01*
X289230Y286614D02*
X289896D01*
X288879Y282677D02*
X290247D01*
X289120Y281889D02*
X290006D01*
X289051Y280314D02*
X290075D01*
X288730Y279527D02*
X290396D01*
X289174Y281102D02*
X289952D01*
X288837Y276377D02*
X290289D01*
X208019Y277952D02*
X284314D01*
X297847Y274015D02*
X305819D01*
X297891Y273228D02*
X305819D01*
X297656Y274803D02*
X305819D01*
X297541Y271653D02*
X305819D01*
X297793Y272440D02*
X305819D01*
X296010Y262992D02*
X305819D01*
X294812Y262204D02*
X305819D01*
X297104Y270866D02*
X305819D01*
X296711Y260629D02*
X305819D01*
X295728Y261417D02*
X305819D01*
X297847Y258267D02*
X305819D01*
X297891Y257480D02*
X305819D01*
X297656Y259055D02*
X305819D01*
X297541Y255905D02*
X305819D01*
X297793Y256692D02*
X305819D01*
X297104Y255118D02*
X305819D01*
X297296Y259842D02*
X305819D01*
X295112Y253543D02*
X305819D01*
X296401Y254330D02*
X305819D01*
X295401Y268503D02*
X305819D01*
X296278Y267716D02*
X305819D01*
X296401Y270078D02*
X305819D01*
X296994Y266141D02*
X305819D01*
X296753Y266929D02*
X305819D01*
X295112Y269291D02*
X305819D01*
X296925Y264566D02*
X305819D01*
X296604Y263779D02*
X305819D01*
X297048Y265354D02*
X305819D01*
X297891Y241732D02*
X305819D01*
X297793Y240944D02*
X305819D01*
X296994Y250393D02*
X305819D01*
X297104Y239370D02*
X305819D01*
X297541Y240157D02*
X305819D01*
X296278Y251968D02*
X305819D01*
X296753Y251181D02*
X305819D01*
X295401Y252755D02*
X305819D01*
X295112Y237795D02*
X305819D01*
X296401Y238582D02*
X305819D01*
X297051Y233070D02*
X305819D01*
X297051Y232283D02*
X305819D01*
X297051Y233858D02*
X305819D01*
X297051Y230708D02*
X305819D01*
X297051Y231496D02*
X305819D01*
X297051Y236220D02*
X305819D01*
X297051Y237007D02*
X305819D01*
X297051Y234645D02*
X305819D01*
X297051Y235433D02*
X305819D01*
X296925Y248818D02*
X305819D01*
X296604Y248031D02*
X305819D01*
X297048Y249606D02*
X305819D01*
X295728Y245669D02*
X305819D01*
X296010Y247244D02*
X305819D01*
X294812Y246456D02*
X305819D01*
X297296Y244094D02*
X305819D01*
X297656Y243307D02*
X305819D01*
X296711Y244881D02*
X305819D01*
X297847Y242519D02*
X305819D01*
X297051Y230457D02*
Y237559D01*
X294286D02*
X297051D01*
X288879Y266929D02*
X290247D01*
X288730Y263779D02*
X290396D01*
X287238Y269291D02*
X291888D01*
X287527Y268503D02*
X291599D01*
X288527Y270078D02*
X290599D01*
X288136Y262992D02*
X290990D01*
X288404Y267716D02*
X290722D01*
X288527Y254330D02*
X290599D01*
X288837Y260629D02*
X290289D01*
X288404Y251968D02*
X290722D01*
X286938Y262204D02*
X292188D01*
X287854Y261417D02*
X291272D01*
X287238Y253543D02*
X291888D01*
X287527Y252755D02*
X291599D01*
X289230Y270866D02*
X289896D01*
X289120Y266141D02*
X290006D01*
X289174Y265354D02*
X289952D01*
X289051Y264566D02*
X290075D01*
X289230Y255118D02*
X289896D01*
X289120Y250393D02*
X290006D01*
X289051Y248818D02*
X290075D01*
X289174Y249606D02*
X289952D01*
X288730Y248031D02*
X290396D01*
X288136Y247244D02*
X290990D01*
X288879Y251181D02*
X290247D01*
X286938Y246456D02*
X292188D01*
X287854Y245669D02*
X291272D01*
X289949Y237559D02*
X292714D01*
X288837Y244881D02*
X290289D01*
X289949Y230457D02*
X297051D01*
X288730Y232283D02*
X289949D01*
X287238Y237795D02*
X291888D01*
X288527Y238582D02*
X290599D01*
X286938Y230708D02*
X289949D01*
X288136Y231496D02*
X289949D01*
X289230Y239370D02*
X289896D01*
X289120Y234645D02*
X289949D01*
X289174Y233858D02*
X289949D01*
X288879Y235433D02*
X289949D01*
Y230457D02*
Y237559D01*
X289051Y233070D02*
X289949D01*
X288404Y236220D02*
X289949D01*
X287527Y237007D02*
X289949D01*
X269160Y325196D02*
X283059D01*
X269326Y324409D02*
X283853D01*
X269124Y323621D02*
X282713D01*
X268292Y322834D02*
X282078D01*
X220899Y310713D02*
X281974Y310713D01*
X225653Y302362D02*
X282284D01*
X225765Y303149D02*
X281817D01*
X228773Y299999D02*
X283725D01*
X226409Y301574D02*
X283059D01*
X224705Y307189D02*
X282144D01*
X224583Y307086D02*
X282078D01*
X225504Y303936D02*
X281551D01*
X224409Y304724D02*
X281448D01*
X266201Y325587D02*
Y333795D01*
X268799Y325706D02*
Y333795D01*
X226699Y299999D02*
X227857D01*
X214909Y304724D02*
X223591D01*
X215704Y304299D02*
X222796D01*
X229827Y299212D02*
X282848D01*
X230082Y298425D02*
X282373D01*
X229963Y297637D02*
X282132D01*
X229350Y296850D02*
X282078D01*
X229011Y295275D02*
X282522D01*
X228925Y296062D02*
X282201D01*
X268971Y294488D02*
X283116D01*
X269172Y292913D02*
X283398D01*
X230127Y292201D02*
X266296D01*
X228886Y294799D02*
X266296D01*
X226518Y299587D02*
X227111D01*
X213955Y296989D02*
X214599D01*
X213847Y296850D02*
X214497D01*
X213568Y294799D02*
X214561D01*
X213003Y295275D02*
X214304D01*
X208102Y318897D02*
X281817D01*
X208102Y318110D02*
X282284D01*
X208099Y319684D02*
X281551D01*
X208102Y316535D02*
X283853D01*
X208102Y317322D02*
X283059D01*
X205728Y322834D02*
X266818D01*
X206516Y322047D02*
X281695D01*
X202579Y325984D02*
X266201D01*
X207303Y321259D02*
X281494D01*
X207902Y320472D02*
X281448D01*
X208102Y311810D02*
X281551D01*
X208102Y311023D02*
X281817D01*
X208102Y312598D02*
X281448D01*
X208102Y306299D02*
X281695D01*
X208102Y305511D02*
X281494D01*
X208102Y315747D02*
X282713D01*
X208102Y314960D02*
X282078D01*
X208102Y314173D02*
X281695D01*
X208102Y313385D02*
X281494D01*
X204941Y323621D02*
X265986D01*
X208102Y310236D02*
X218908D01*
X208102Y309448D02*
X218510D01*
X203366Y325196D02*
X265951D01*
X204153Y324409D02*
X265784D01*
X201614Y326949D02*
X207468Y321094D01*
X195962Y310701D02*
X197730Y308933D01*
X208102Y307873D02*
X218932D01*
X208102Y307086D02*
X222417D01*
X208102Y308661D02*
X218516D01*
X208102Y304724D02*
X214091D01*
X208102Y303936D02*
X212996D01*
X199590Y306925D02*
Y307231D01*
X208102Y300787D02*
X213252D01*
X208102Y299999D02*
X213301D01*
X208102Y299212D02*
X211208D01*
X208102Y298425D02*
X210780D01*
X208102Y297637D02*
X210766D01*
X208102Y302362D02*
X212847D01*
X208102Y301574D02*
X213448D01*
X208102Y303149D02*
X212735D01*
X208102Y282560D02*
Y319563D01*
X200629Y290466D02*
Y303784D01*
X208102Y295275D02*
X211337D01*
X208102Y294488D02*
X210577D01*
X208102Y293700D02*
X210398D01*
X208102Y292913D02*
X210588D01*
X208102Y296062D02*
X214212D01*
X208102Y296850D02*
X211153D01*
X192299Y292913D02*
X200629D01*
X192299Y293700D02*
X200629D01*
X192759Y300787D02*
X200629D01*
X192462Y299999D02*
X200629D01*
X192676Y301574D02*
X200629D01*
X192133Y302362D02*
X200629D01*
X192299Y296850D02*
X200629D01*
X192299Y296062D02*
X200629D01*
X192299Y297637D02*
X200629D01*
X192299Y294488D02*
X200629D01*
X192299Y295275D02*
X200629D01*
X192299Y298425D02*
X200629D01*
X192299Y299212D02*
X200629D01*
X192299Y290538D02*
Y299796D01*
X186701Y291705D02*
Y298295D01*
X268618Y292125D02*
X282415D01*
X230264Y291338D02*
X281830D01*
X230815Y290551D02*
X281470D01*
X231098Y289763D02*
X281279D01*
X231003Y288976D02*
X281235D01*
X230158Y292125D02*
X266382D01*
X230439Y288188D02*
X281333D01*
X230034Y286614D02*
X282022D01*
X230269Y287401D02*
X281585D01*
X229081Y285826D02*
X282725D01*
X208102Y285039D02*
X284014D01*
X212960Y292125D02*
X213342D01*
X208102D02*
X211380D01*
X208102Y291338D02*
X213236D01*
X208102Y290551D02*
X211073D01*
X208102Y289763D02*
X210748D01*
X212704Y286201D02*
X227295D01*
X212081Y285826D02*
X227919D01*
X208102D02*
X210919D01*
X208102Y284251D02*
X225733D01*
X208102Y288976D02*
X210520D01*
X208102Y288188D02*
X209868D01*
X208102Y286614D02*
X209966D01*
X208102Y287401D02*
X209731D01*
X226267Y284251D02*
X283725D01*
X227486Y283464D02*
X282848D01*
X227763Y282677D02*
X282373D01*
X227663Y281889D02*
X282132D01*
X211000Y283799D02*
X224796D01*
X211544Y281201D02*
X224796D01*
X227088Y281102D02*
X282078D01*
X210689Y280314D02*
X282201D01*
X211445Y281102D02*
X224912D01*
X209497Y278740D02*
X283116D01*
X210454Y279527D02*
X282522D01*
X208637Y277165D02*
X283398D01*
X208758Y276377D02*
X282415D01*
X208506Y275590D02*
X281830D01*
X207467Y274803D02*
X281470D01*
X208102Y283464D02*
X210129D01*
X208854Y282185D02*
X210012Y283343D01*
X208102Y282677D02*
X209345D01*
X210691Y280348D02*
X211544Y281201D01*
X206753Y280314D02*
X207152D01*
X205709Y279527D02*
X207388D01*
X206451Y280012D02*
X207179Y280740D01*
X200082Y289919D02*
X200629Y290466D01*
X199701Y285980D02*
Y289000D01*
X195037Y288188D02*
X199701D01*
X192299Y291338D02*
X200629D01*
X192299Y290551D02*
X200629D01*
X192299Y292125D02*
X200629D01*
X193074Y289763D02*
X199949D01*
X193862Y288976D02*
X199701D01*
X196268Y286614D02*
X199701D01*
X196025Y287401D02*
X199701D01*
X192299Y290538D02*
X194567Y288270D01*
X187933Y288730D02*
X192457Y284206D01*
X184753Y288253D02*
X188800Y284206D01*
X184817Y288188D02*
X188474D01*
X187967Y285039D02*
X191624D01*
X188800Y284206D02*
X192457D01*
X188754Y284251D02*
X192411D01*
X186392Y286614D02*
X190049D01*
X185605Y287401D02*
X189262D01*
X187179Y285826D02*
X190836D01*
X182766Y285228D02*
X185695Y282299D01*
X202698Y280314D02*
X203138D01*
X202488Y279527D02*
X204132D01*
X201827Y281889D02*
X202783D01*
X201635Y278740D02*
X208345D01*
X201532Y278699D02*
X206003D01*
X198909Y276100D02*
X205268D01*
X198730Y275590D02*
X205477D01*
X190853Y274015D02*
X281279D01*
X197876Y274803D02*
X206516D01*
X189278Y272440D02*
X281333D01*
X188490Y271653D02*
X281585D01*
X190065Y273228D02*
X281235D01*
X186916Y270078D02*
X282725D01*
X187703Y270866D02*
X282022D01*
X186128Y269291D02*
X284014D01*
X185341Y268503D02*
X283725D01*
X184553Y267716D02*
X282848D01*
X183766Y266929D02*
X282373D01*
X187503Y278699D02*
X196995Y278699D01*
X187938Y276100D02*
X189263D01*
X187427Y275590D02*
X188753D01*
X183462Y275299D02*
X186411Y278248D01*
X182097Y268935D02*
X189263Y276100D01*
X184987Y273150D02*
X187938Y276100D01*
X191965Y275127D02*
X195963D01*
X191640Y274803D02*
X196460D01*
X186640D02*
X187965D01*
X185853Y274015D02*
X187178D01*
X185065Y273228D02*
X186390D01*
X183555Y266717D02*
X191965Y275127D01*
X179799Y438582D02*
X288137D01*
X179799Y437794D02*
X287629D01*
X179799Y437007D02*
X287391D01*
X179799Y435432D02*
X287537D01*
X179799Y436220D02*
X287363D01*
X179799Y439369D02*
X288181D01*
X179799Y440157D02*
X287651D01*
X179799Y430708D02*
X287138D01*
X179799Y429920D02*
X287138D01*
X179799Y431495D02*
X287138D01*
X179799Y428346D02*
X287138D01*
X179799Y429133D02*
X287138D01*
X176299Y433857D02*
X177201D01*
X176299Y433070D02*
X177201D01*
X176299Y434645D02*
X177201D01*
X179799Y432283D02*
X287138D01*
X176299Y425196D02*
X177201D01*
X176449Y442519D02*
X177051D01*
X176299Y435432D02*
X177201D01*
X176299Y436220D02*
X177201D01*
X176299Y439369D02*
X177201D01*
X176299Y438582D02*
X177201D01*
X176299Y440157D02*
X177201D01*
X176299Y437007D02*
X177201D01*
X176299Y437794D02*
X177201D01*
X176299Y428346D02*
X177201D01*
X176299Y427558D02*
X177201D01*
X176299Y429133D02*
X177201D01*
X176299Y425983D02*
X177201D01*
X176299Y426771D02*
X177201D01*
X176299Y431495D02*
X177201D01*
X176299Y432283D02*
X177201D01*
X176299Y429920D02*
X177201D01*
X176299Y430708D02*
X177201D01*
X179799Y421259D02*
X191783D01*
X179799Y420472D02*
X192467D01*
X179799Y422046D02*
X191376D01*
X179799Y418897D02*
X305819D01*
X179799Y419684D02*
X193797D01*
X179799Y424409D02*
X191209D01*
X179799Y423621D02*
X191108D01*
X176299Y424409D02*
X177201D01*
X179799Y422834D02*
X191162D01*
X179799Y372000D02*
Y440296D01*
Y418109D02*
X305819D01*
X179799Y414960D02*
X305819D01*
X176299Y412598D02*
X177201D01*
X179799Y403149D02*
X305819D01*
X179799Y403936D02*
X305819D01*
X176299Y414960D02*
X177201D01*
X176299Y415747D02*
X177201D01*
X176299Y413385D02*
X177201D01*
X176299Y414172D02*
X177201D01*
X176299Y419684D02*
X177201D01*
X176299Y418897D02*
X177201D01*
X176299Y420472D02*
X177201D01*
Y372538D02*
Y440296D01*
X176299Y418109D02*
X177201D01*
X176299Y422834D02*
X177201D01*
X176299Y422046D02*
X177201D01*
X176299Y423621D02*
X177201D01*
X176299Y421259D02*
X177201D01*
X176299Y371637D02*
Y440296D01*
Y409448D02*
X177201D01*
X176299Y408661D02*
X177201D01*
X176299Y410235D02*
X177201D01*
X176299Y407086D02*
X177201D01*
X176299Y407873D02*
X177201D01*
X176299Y416535D02*
X177201D01*
X176299Y417322D02*
X177201D01*
X176299Y411023D02*
X177201D01*
X176299Y411810D02*
X177201D01*
X100681Y495275D02*
X305819D01*
X100681Y494487D02*
X305819D01*
X100681Y493700D02*
X186424D01*
X100681Y485038D02*
X186142D01*
X100681Y492912D02*
X185249D01*
X100681Y498424D02*
X305819D01*
X100681Y497637D02*
X305819D01*
X100681Y498819D02*
X305819D01*
X100681Y496062D02*
X305819D01*
X100681Y496849D02*
X305819D01*
X100681Y481101D02*
X255242D01*
X100681Y480314D02*
X254426D01*
X100681Y479527D02*
X254189D01*
X100681Y478739D02*
X253402D01*
X100681Y477952D02*
X186305D01*
X100681Y483464D02*
X305819D01*
X100681Y484251D02*
X305819D01*
X100681Y481889D02*
X305819D01*
X100681Y482676D02*
X305819D01*
X100681Y487401D02*
X184216D01*
X100681Y486613D02*
X184544D01*
X100681Y488188D02*
X184069D01*
X100681Y485826D02*
X185115D01*
X100681Y477164D02*
X185018D01*
X100681Y492125D02*
X184623D01*
X100681Y491338D02*
X184258D01*
X100681Y490550D02*
X184082D01*
X100681Y488975D02*
X184055D01*
X100681Y489763D02*
X184055D01*
X100681Y472440D02*
X183464D01*
X100681Y471653D02*
X183495D01*
X100681Y473227D02*
X183464D01*
X100681Y470078D02*
X183980D01*
X100681Y470865D02*
X183658D01*
X100681Y476377D02*
X184304D01*
X100681Y475590D02*
X183855D01*
X100681Y474802D02*
X183588D01*
X100681Y474015D02*
X183472D01*
X100681Y462991D02*
X237654D01*
X100681Y462204D02*
X236866D01*
X100681Y461416D02*
X236079D01*
X100681Y460629D02*
X235292D01*
X100681Y459842D02*
X234504D01*
X100681Y466928D02*
X241591D01*
X100681Y466141D02*
X240803D01*
X100681Y465353D02*
X240016D01*
X100681Y464566D02*
X239229D01*
X100681Y463779D02*
X238441D01*
X100681Y450393D02*
X305819D01*
X117500Y449681D02*
X290500D01*
X100681Y455905D02*
X230567D01*
X120071Y443319D02*
X287929D01*
X120080Y443306D02*
X287920D01*
X100681Y459054D02*
X233717D01*
X100681Y458267D02*
X232929D01*
X100681Y457479D02*
X232142D01*
X100681Y456692D02*
X231355D01*
X100681Y453542D02*
X189567D01*
X100681Y451968D02*
X189310D01*
X100681Y452755D02*
X189247D01*
X100681Y451180D02*
X189818D01*
X100681Y468503D02*
X185344D01*
X100681Y467716D02*
X187213D01*
X100681Y469290D02*
X184503D01*
X100681Y455117D02*
X229780D01*
X100681Y454330D02*
X228992D01*
X176299Y405511D02*
X177201D01*
X176299Y404724D02*
X177201D01*
X176299Y406298D02*
X177201D01*
X176299Y403149D02*
X177201D01*
X176299Y403936D02*
X177201D01*
X120862Y429920D02*
X173701D01*
X179799Y397637D02*
X305819D01*
X179799Y396850D02*
X305819D01*
X179799Y398424D02*
X305819D01*
X179799Y394487D02*
X305819D01*
X179799Y386613D02*
X210824D01*
X179799Y401574D02*
X305819D01*
X179799Y400787D02*
X305819D01*
X179799Y402361D02*
X305819D01*
X179799Y399212D02*
X305819D01*
X179799Y399999D02*
X305819D01*
X179799Y381889D02*
X281817D01*
X179799Y381102D02*
X282284D01*
X179799Y382676D02*
X281551D01*
X179799Y379527D02*
X283853D01*
X179799Y380314D02*
X283059D01*
X179799Y385039D02*
X211060D01*
X179799Y385826D02*
X210842D01*
X179799Y383464D02*
X281277D01*
X179799Y384251D02*
X211723D01*
X179799Y388976D02*
X191801D01*
X179799Y387401D02*
X193282D01*
X179799Y389763D02*
X191534D01*
X179799Y378739D02*
X188343D01*
X179799Y377952D02*
X187209D01*
X179799Y393700D02*
X193479D01*
X179799Y392913D02*
X192405D01*
X179799Y392125D02*
X191851D01*
X176299Y381102D02*
X177201D01*
X176299Y386613D02*
X177201D01*
X179799Y377165D02*
X186676D01*
X179799Y376377D02*
X186420D01*
X179799Y375590D02*
X186373D01*
X179799Y374015D02*
X186911D01*
X179799Y374802D02*
X186525D01*
X176299D02*
X177201D01*
X176299Y375590D02*
X177201D01*
X176299Y373228D02*
X177201D01*
X176299Y374015D02*
X177201D01*
X179799Y372440D02*
X269552D01*
X179752Y371653D02*
X270348D01*
X179799Y373228D02*
X187669D01*
X178415Y370078D02*
X271923D01*
X179203Y370865D02*
X271136D01*
X177299Y368503D02*
X273498D01*
X177299Y367716D02*
X274285D01*
X177628Y369291D02*
X272711D01*
X177299Y366141D02*
X275860D01*
X177299Y366928D02*
X275073D01*
X177299Y362991D02*
X282713D01*
X177299Y362204D02*
X282078D01*
X177921Y361417D02*
X281695D01*
X178708Y360629D02*
X281494D01*
X179496Y359842D02*
X281448D01*
X177299Y364566D02*
X283059D01*
X177299Y365354D02*
X276683D01*
X177299Y363779D02*
X283853D01*
X176299Y355038D02*
X188247Y343090D01*
X177299Y368962D02*
X179418Y371081D01*
X177299Y362038D02*
X187567Y351770D01*
X177299Y362038D02*
Y368962D01*
X176299Y371637D02*
X177201Y372538D01*
X176299Y372440D02*
X177103D01*
X176299Y359054D02*
X176608D01*
X176299Y359363D02*
X185730Y349933D01*
X176299Y355038D02*
Y359363D01*
X177007Y354330D02*
X181333D01*
X177795Y353543D02*
X182120D01*
X176299Y355117D02*
X180545D01*
X179370Y351968D02*
X183695D01*
X178582Y352755D02*
X182907D01*
X176299Y357480D02*
X178183D01*
X176299Y358267D02*
X177396D01*
X176299Y355905D02*
X179758D01*
X176299Y356692D02*
X178970D01*
X176299Y391338D02*
X177201D01*
X176299Y390550D02*
X177201D01*
X176299Y392125D02*
X177201D01*
X176299Y388976D02*
X177201D01*
X176299Y389763D02*
X177201D01*
X176299Y395275D02*
X177201D01*
X176299Y394487D02*
X177201D01*
X176299Y402361D02*
X177201D01*
X176299Y392913D02*
X177201D01*
X176299Y393700D02*
X177201D01*
X176299Y383464D02*
X177201D01*
X176299Y382676D02*
X177201D01*
X176299Y384251D02*
X177201D01*
X176299Y380314D02*
X177201D01*
X176299Y381889D02*
X177201D01*
X176299Y387401D02*
X177201D01*
X176299Y388188D02*
X177201D01*
X176299Y385039D02*
X177201D01*
X176299Y385826D02*
X177201D01*
X176299Y398424D02*
X177201D01*
X176299Y397637D02*
X177201D01*
X176299Y399212D02*
X177201D01*
X176299Y396062D02*
X177201D01*
X176299Y396850D02*
X177201D01*
X176299Y400787D02*
X177201D01*
X176299Y399999D02*
X177201D01*
X176299Y401574D02*
X177201D01*
X146299Y386613D02*
X173701D01*
X146299Y387401D02*
X173701D01*
X146299Y381889D02*
X173701D01*
X146299Y381102D02*
X173701D01*
X146299Y382676D02*
X173701D01*
X146299Y379527D02*
X173701D01*
X146299Y380314D02*
X173701D01*
X146299Y385039D02*
X173701D01*
X146299Y385826D02*
X173701D01*
X146299Y383464D02*
X173701D01*
X146299Y384251D02*
X173701D01*
X124931Y345669D02*
X181994D01*
X125132Y344881D02*
X182781D01*
X124809Y350393D02*
X177270D01*
X174082Y353581D02*
X188081Y339582D01*
X125178Y344094D02*
X183569D01*
X123567Y348818D02*
X178844D01*
X122773Y348031D02*
X179632D01*
X124342Y349606D02*
X178057D01*
X124548Y346456D02*
X181207D01*
X123913Y347243D02*
X180419D01*
X154636Y339369D02*
X188360D01*
X155423Y338582D02*
X191485D01*
X153849Y340157D02*
X187506D01*
X156998Y337007D02*
X214002D01*
X156211Y337795D02*
X192520D01*
X124809Y342519D02*
X185144D01*
X125075Y343306D02*
X184356D01*
X153061Y340944D02*
X186718D01*
X152173Y341732D02*
X185931D01*
X176299Y378739D02*
X177201D01*
X176299Y377952D02*
X177201D01*
X176299Y379527D02*
X177201D01*
X176299Y376377D02*
X177201D01*
X176299Y377165D02*
X177201D01*
X146299Y377952D02*
X173701D01*
X146299Y376377D02*
X173701D01*
X146299Y378739D02*
X173701D01*
X146299Y374802D02*
X173701D01*
X146299Y375590D02*
X173701D01*
X146299Y373228D02*
X173701D01*
X146299Y374015D02*
X173701D01*
X125178Y351968D02*
X175695D01*
X124931Y353543D02*
X174120D01*
X124548Y354330D02*
X173712D01*
X125075Y351180D02*
X176482D01*
X125132Y352755D02*
X174907D01*
X120480Y442519D02*
X173551D01*
X120608Y437007D02*
X173701D01*
X120600Y440944D02*
X173318D01*
X120862Y434645D02*
X173701D01*
X120637Y436220D02*
X173701D01*
X119819Y439369D02*
X173701D01*
X119863Y438582D02*
X173701D01*
X120349Y440157D02*
X173701D01*
X120463Y435432D02*
X173701D01*
X120371Y437794D02*
X173701D01*
X120862Y429133D02*
X173701D01*
X120862Y428346D02*
X173701D01*
X120862Y430708D02*
X173701D01*
X146684Y390550D02*
X173701D01*
X146161Y391338D02*
X173701D01*
X120862Y433070D02*
X173701D01*
X120862Y433857D02*
X173701D01*
X120862Y431495D02*
X173701D01*
X120862Y432283D02*
X173701D01*
X120641Y441731D02*
X173243D01*
X114138Y434862D02*
X114810D01*
X114138Y428138D02*
Y434862D01*
X120190D02*
X120862D01*
Y428138D02*
Y434862D01*
X100681Y391338D02*
X143839D01*
X114138Y428138D02*
X120862D01*
X100681Y390550D02*
X143316D01*
X100681Y389763D02*
X142927D01*
X146756D02*
X173701D01*
X146446Y388976D02*
X173701D01*
Y354500D02*
Y440296D01*
X146299Y371204D02*
Y388795D01*
Y388188D02*
X173701D01*
X125075Y382676D02*
X141701D01*
X125178Y383464D02*
X141701D01*
Y370204D02*
Y386781D01*
X124809Y381889D02*
X141701D01*
X124548Y385826D02*
X141701D01*
X123913Y386613D02*
X141701D01*
X123567Y380314D02*
X141701D01*
X124342Y381102D02*
X141701D01*
X114899Y387401D02*
X119227D01*
X122773D02*
X141323D01*
X116039Y386613D02*
X118087D01*
X100681Y388976D02*
X141519D01*
X100681Y388188D02*
X141232D01*
X100681Y387401D02*
X111353D01*
X100681Y386613D02*
X110213D01*
X100681Y385826D02*
X109578D01*
X124931Y385039D02*
X141701D01*
X125132Y384251D02*
X141701D01*
X116674Y385826D02*
X117452D01*
X100681Y385039D02*
X109195D01*
X100681Y384251D02*
X108994D01*
X100681Y382676D02*
X109051D01*
X100681Y383464D02*
X108948D01*
X100681Y443306D02*
X114920D01*
X100681Y439369D02*
X115181D01*
X100681Y440157D02*
X114651D01*
X100681Y427558D02*
X173701D01*
X100681Y438582D02*
X115137D01*
X100681Y449605D02*
X116810D01*
X100681Y448818D02*
X115321D01*
X100681Y448031D02*
X114711D01*
X100681Y444094D02*
X115419D01*
X100681Y444881D02*
X114762D01*
X100681Y422834D02*
X173701D01*
X100681Y422046D02*
X173701D01*
X100681Y423621D02*
X173701D01*
X100681Y420472D02*
X173701D01*
X100681Y421259D02*
X173701D01*
X100681Y425983D02*
X173701D01*
X100681Y426771D02*
X173701D01*
X100681Y424409D02*
X173701D01*
X100681Y425196D02*
X173701D01*
X100681Y440944D02*
X114400D01*
X100681Y437794D02*
X114629D01*
X100681Y437007D02*
X114392D01*
X100681Y435432D02*
X114537D01*
X100681Y436220D02*
X114363D01*
X100681Y447243D02*
X114407D01*
X100681Y445668D02*
X114429D01*
X100681Y446456D02*
X114319D01*
X100681Y442519D02*
X114520D01*
X100681Y441731D02*
X114359D01*
X100681Y430708D02*
X114138D01*
X100681Y429920D02*
X114138D01*
X100681Y431495D02*
X114138D01*
X100681Y428346D02*
X114138D01*
X100681Y429133D02*
X114138D01*
X100681Y433857D02*
X114138D01*
X100681Y434645D02*
X114138D01*
X100681Y432283D02*
X114138D01*
X100681Y433070D02*
X114138D01*
X100681Y401574D02*
X173701D01*
X100681Y400787D02*
X173701D01*
X100681Y402361D02*
X173701D01*
X100681Y399212D02*
X173701D01*
X100681Y399999D02*
X173701D01*
X100681Y418897D02*
X173701D01*
X100681Y404724D02*
X173701D01*
X100681Y419684D02*
X173701D01*
X100681Y403149D02*
X173701D01*
X100681Y403936D02*
X173701D01*
X100681Y394487D02*
X173701D01*
X100681Y393700D02*
X173701D01*
X100681Y395275D02*
X173701D01*
X100681Y392125D02*
X173701D01*
X100681Y392913D02*
X173701D01*
X100681Y397637D02*
X173701D01*
X100681Y398424D02*
X173701D01*
X100681Y396062D02*
X173701D01*
X100681Y396850D02*
X173701D01*
X100681Y413385D02*
X173701D01*
X100681Y412598D02*
X173701D01*
X100681Y414172D02*
X173701D01*
X100681Y411023D02*
X173701D01*
X100681Y411810D02*
X173701D01*
X100681Y417322D02*
X173701D01*
X100681Y416535D02*
X173701D01*
X100681Y418109D02*
X173701D01*
X100681Y414960D02*
X173701D01*
X100681Y415747D02*
X173701D01*
X100681Y406298D02*
X173701D01*
X100681Y405511D02*
X173701D01*
X100681Y407086D02*
X173701D01*
X100681Y381102D02*
X109784D01*
X100681Y381889D02*
X109317D01*
X100681Y409448D02*
X173701D01*
X100681Y410235D02*
X173701D01*
X100681Y407873D02*
X173701D01*
X100681Y408661D02*
X173701D01*
X146546Y370865D02*
X173701D01*
X146770Y370078D02*
X173701D01*
X146623Y369291D02*
X173701D01*
X146299Y372440D02*
X173701D01*
X146299Y371653D02*
X173701D01*
X146299Y377165D02*
X173701D01*
X156009Y366928D02*
X173701D01*
X156266Y366141D02*
X173701D01*
X154941Y367716D02*
X173701D01*
X145948Y368503D02*
X173701D01*
X144277Y367772D02*
X154500D01*
X125132Y376377D02*
X141701D01*
X125178Y375590D02*
X141701D01*
X124931Y377165D02*
X141701D01*
X124809Y374015D02*
X141701D01*
X125075Y374802D02*
X141701D01*
X123913Y378739D02*
X141701D01*
X124548Y377952D02*
X141701D01*
X122773Y379527D02*
X141701D01*
X123567Y372440D02*
X141701D01*
X124342Y373228D02*
X141701D01*
X125180Y367772D02*
X141723D01*
X125132Y368503D02*
X141299D01*
X123913Y370865D02*
X141701D01*
X122773Y371653D02*
X141701D01*
X124548Y370078D02*
X141594D01*
X124931Y369291D02*
X141252D01*
X157564Y361417D02*
X173701D01*
X158156Y360629D02*
X173701D01*
X155541Y364566D02*
X173701D01*
X122773Y363779D02*
X173701D01*
X156149Y365354D02*
X173701D01*
X124548Y362204D02*
X173701D01*
X123913Y362991D02*
X173701D01*
X157998Y359054D02*
X173701D01*
X156868Y358267D02*
X173701D01*
X158265Y359842D02*
X173701D01*
X123567Y356692D02*
X173701D01*
X124342Y357480D02*
X173701D01*
X123913Y355117D02*
X173701D01*
X122773Y355905D02*
X173701D01*
X155980Y361764D02*
X156471Y361771D01*
X156032Y358221D02*
X156529Y358229D01*
X124101Y364228D02*
X154500D01*
X124787Y361764D02*
X155977D01*
X124787Y358220D02*
X155982D01*
X125132Y337007D02*
X151987D01*
X124931Y337795D02*
X151200D01*
X124495Y341949D02*
X151323D01*
X124652Y338405D02*
X150589D01*
X100681Y380314D02*
X110558D01*
X100681Y379527D02*
X111353D01*
X100681Y378739D02*
X110213D01*
X100681Y372440D02*
X110558D01*
X100681Y362991D02*
X110213D01*
X100681Y371653D02*
X111353D01*
X100681Y370865D02*
X110213D01*
X100681Y363779D02*
X111353D01*
X100681Y364566D02*
X110558D01*
X100681Y373228D02*
X109784D01*
X100681Y370078D02*
X109578D01*
X100681Y374015D02*
X109317D01*
X100681Y369291D02*
X109195D01*
X100681Y368503D02*
X108994D01*
X100681Y377952D02*
X109578D01*
X100681Y377165D02*
X109195D01*
X100681Y376377D02*
X108994D01*
X100681Y374802D02*
X109051D01*
X100681Y375590D02*
X108948D01*
X100681Y362204D02*
X109578D01*
X100681Y361417D02*
X109195D01*
X100681Y360629D02*
X108994D01*
X100681Y359054D02*
X109051D01*
X100681Y359842D02*
X108948D01*
X100681Y366928D02*
X109051D01*
X100681Y367716D02*
X108948D01*
X100681Y365354D02*
X109784D01*
X100681Y366141D02*
X109317D01*
X100681Y356692D02*
X110558D01*
X100681Y355905D02*
X110898D01*
X100681Y355117D02*
X109915D01*
X100681Y348818D02*
X110225D01*
X100681Y339369D02*
X110213D01*
X100681Y348031D02*
X110898D01*
X100681Y347243D02*
X109915D01*
X100681Y340157D02*
X111353D01*
X100681Y340944D02*
X110225D01*
X100681Y351180D02*
X108834D01*
X100681Y350393D02*
X109085D01*
X100681Y351968D02*
X108735D01*
X100681Y349606D02*
X109522D01*
X100681Y346456D02*
X109330D01*
X100681Y357480D02*
X109784D01*
X100681Y354330D02*
X109330D01*
X100681Y358267D02*
X109317D01*
X100681Y353543D02*
X108970D01*
X100681Y352755D02*
X108779D01*
X100681Y341732D02*
X109522D01*
X100681Y338582D02*
X109578D01*
X100681Y342519D02*
X109085D01*
X100681Y337795D02*
X109195D01*
X100681Y337007D02*
X108994D01*
X100681Y345669D02*
X108970D01*
X100681Y344881D02*
X108779D01*
X100681Y343306D02*
X108834D01*
X100681Y344094D02*
X108735D01*
X152576Y341430D02*
X157234Y336772D01*
X213500D01*
X156500Y333228D02*
X213316D01*
X150435Y333070D02*
X266201D01*
X151223Y332283D02*
X266201D01*
X150589Y338405D02*
X155247Y333747D01*
X151734Y331772D02*
X256500D01*
X151489Y328228D02*
X160774D01*
X165226D02*
X256500D01*
X165288Y328165D02*
X198685D01*
X146038Y324299D02*
X160349D01*
X143548Y326771D02*
X159946D01*
X144974Y325984D02*
X159850D01*
X145929Y324409D02*
X160282D01*
X145261Y325196D02*
X159955D01*
X149231Y333858D02*
X155137D01*
X150349Y333157D02*
X151734Y331772D01*
X148016Y330478D02*
X149401Y329093D01*
X145270Y325067D02*
X146038Y324299D01*
X143433Y323230D02*
X144509Y322154D01*
X145038Y317299D02*
X145697D01*
X144090Y318897D02*
X145273D01*
X144664Y318110D02*
X145272D01*
X145015Y317322D02*
X145677D01*
X144770Y317567D02*
X145038Y317299D01*
X171165Y306299D02*
X199105D01*
X171165Y304724D02*
X199147D01*
X171165Y305511D02*
X198941D01*
X171165Y303149D02*
X200629D01*
X171165Y303936D02*
X199990D01*
X169140Y308661D02*
X197761D01*
X170674Y307873D02*
X198133D01*
X145000Y310701D02*
X195962D01*
X171084Y307086D02*
X199590D01*
X171165Y294500D02*
Y306500D01*
Y298425D02*
X186592D01*
X171165Y297637D02*
X186701D01*
X171165Y299212D02*
X186252D01*
X171165Y296062D02*
X186701D01*
X171165Y296850D02*
X186701D01*
X171165Y302362D02*
X189866D01*
X171165Y301574D02*
X189324D01*
X171165Y300787D02*
X186782D01*
X171165Y299999D02*
X186300D01*
X166835Y294500D02*
Y306500D01*
X141236Y307086D02*
X166916D01*
X142023Y306299D02*
X166835D01*
X144266Y304724D02*
X166835D01*
X144725Y303936D02*
X166835D01*
X144401Y302362D02*
X166835D01*
X144760Y303149D02*
X166835D01*
X142811Y305511D02*
X166835D01*
X125178Y336220D02*
X152775D01*
X125075Y335432D02*
X153562D01*
X125132Y329133D02*
X149361D01*
X125075Y327558D02*
X160263D01*
X125178Y328346D02*
X150665D01*
X124809Y334645D02*
X154350D01*
X124459Y334022D02*
X148261D01*
X124681Y330478D02*
X148016D01*
X124931Y329921D02*
X148574D01*
X124809Y326771D02*
X143452D01*
X125178Y320472D02*
X145309D01*
X125075Y319684D02*
X145682D01*
X125132Y321259D02*
X145247D01*
X123913Y323621D02*
X142387D01*
X124342Y325984D02*
X142026D01*
X124931Y322047D02*
X144627D01*
X124548Y322834D02*
X143829D01*
X124809Y318897D02*
X141910D01*
X123567Y325196D02*
X141739D01*
X122773Y324409D02*
X141830D01*
X130740Y318110D02*
X141337D01*
X131771Y316535D02*
X141514D01*
X131569Y317322D02*
X141237D01*
X131604Y315747D02*
X140742D01*
X124342Y318110D02*
X129260D01*
X124084Y317799D02*
X128796D01*
X124548Y314960D02*
X129124D01*
X124386Y315201D02*
X128796D01*
X138874Y309448D02*
X197214D01*
X139661Y308661D02*
X168860D01*
X140448Y307873D02*
X167326D01*
X125075Y311810D02*
X142868D01*
X124809Y311023D02*
X143522D01*
X125178Y312598D02*
X142731D01*
X138086Y310236D02*
X196427D01*
X137990Y310332D02*
X143084Y305238D01*
X124604Y302362D02*
X141633D01*
X124253Y298425D02*
X166835D01*
X125041Y303149D02*
X141274D01*
X124548Y296850D02*
X166835D01*
X124494Y297637D02*
X166835D01*
X122612Y300787D02*
X166835D01*
X123901Y301574D02*
X166835D01*
X123778Y299212D02*
X166835D01*
X122901Y299999D02*
X166835D01*
X130876Y314960D02*
X140289D01*
X124931Y314173D02*
X140259D01*
X125132Y313385D02*
X140623D01*
X124652Y310713D02*
X137071D01*
X125347Y305511D02*
X139136D01*
X125391Y304724D02*
X139923D01*
X125156Y306299D02*
X138348D01*
X136533Y308114D02*
X141246Y303401D01*
X125293Y303936D02*
X140711D01*
X124211Y307873D02*
X136774D01*
X123968Y308114D02*
X136533D01*
X124796Y307086D02*
X137561D01*
X171165Y294488D02*
X186701D01*
X171012Y293700D02*
X186701D01*
X171165Y295275D02*
X186701D01*
X170473Y292913D02*
X186701D01*
X124796Y291338D02*
X186439D01*
X125347Y289763D02*
X186389D01*
X125156Y290551D02*
X186229D01*
X171084Y288976D02*
X187097D01*
X171253Y288772D02*
X183500D01*
X170000Y285228D02*
X182766D01*
X169204Y282299D02*
X185695D01*
X168572Y282677D02*
X185318D01*
X166790Y285039D02*
X182956D01*
X166790Y283464D02*
X184530D01*
X166790Y284251D02*
X183743D01*
X166769Y288976D02*
X167915D01*
X125391D02*
X164276D01*
X125293Y288188D02*
X163814D01*
X125041Y287401D02*
X163779D01*
X124604Y286614D02*
X164136D01*
X166908D02*
X167524D01*
X166790Y282677D02*
X167428D01*
X166790Y285826D02*
X168126D01*
X166790Y282294D02*
Y286480D01*
X164192Y281607D02*
Y286547D01*
X167096Y278701D02*
X196993D01*
X178722Y266141D02*
X282132D01*
X166841Y272440D02*
X185603D01*
X125347Y258267D02*
X281279D01*
X125391Y257480D02*
X281235D01*
X124796Y259842D02*
X281830D01*
X125156Y259055D02*
X281470D01*
X125041Y271653D02*
X184816D01*
X125041Y255905D02*
X281585D01*
X125293Y256692D02*
X281333D01*
X125156Y243307D02*
X281470D01*
X125347Y242519D02*
X281279D01*
X125391Y241732D02*
X281235D01*
X125041Y240157D02*
X281585D01*
X125293Y240944D02*
X281333D01*
X124604Y255118D02*
X282022D01*
X124796Y244094D02*
X281830D01*
X124551Y233858D02*
X282078D01*
X124604Y239370D02*
X282022D01*
X166781Y275590D02*
X183753D01*
X164640Y280522D02*
X166014Y279149D01*
X167204Y275299D02*
X183462D01*
X124796Y275590D02*
X165219D01*
X125156Y274803D02*
X164421D01*
X125347Y274015D02*
X164228D01*
X178401Y269291D02*
X182453D01*
X178975Y266336D02*
X182635D01*
X178975Y268935D02*
X182097D01*
X167204Y272701D02*
X183902D01*
X125391Y273228D02*
X164406D01*
X124604Y270866D02*
X184028D01*
X125293Y272440D02*
X165159D01*
X124211Y292125D02*
X186701D01*
X124211Y276377D02*
X184540D01*
X123901Y270078D02*
X183241D01*
X124253Y266929D02*
X176146D01*
X123778Y267716D02*
X176000D01*
X122312Y277952D02*
X186115D01*
X123228Y277165D02*
X185327D01*
X123228Y292913D02*
X167527D01*
X122612Y269291D02*
X177139D01*
X122901Y268503D02*
X176226D01*
X124548Y265354D02*
X282078D01*
X124425Y264566D02*
X282201D01*
X124494Y266141D02*
X176818D01*
X124104Y263779D02*
X282522D01*
X124211Y260629D02*
X282415D01*
X122312Y262204D02*
X284314D01*
X123510Y262992D02*
X283116D01*
X123228Y261417D02*
X283398D01*
X123901Y254330D02*
X282725D01*
X124104Y295275D02*
X166835D01*
X123510Y294488D02*
X166835D01*
X124425Y296062D02*
X166835D01*
X123778Y283464D02*
X164192D01*
X123901Y285826D02*
X164192D01*
X122312Y293700D02*
X166988D01*
X122612Y285039D02*
X164192D01*
X122901Y284251D02*
X164192D01*
X124494Y281889D02*
X164192D01*
X124548Y281102D02*
X164277D01*
X124253Y282677D02*
X164192D01*
X124104Y279527D02*
X165636D01*
X124425Y280314D02*
X164848D01*
X123510Y278740D02*
X166755D01*
X122612Y253543D02*
X284014D01*
X122612Y237795D02*
X284014D01*
X122901Y252755D02*
X283725D01*
X124551Y230708D02*
X284314D01*
X124551Y237007D02*
X283725D01*
X100681Y229921D02*
X305819D01*
X100681Y229133D02*
X305819D01*
X122312Y246456D02*
X284314D01*
X100681Y227559D02*
X305819D01*
X100681Y228346D02*
X305819D01*
X100681Y222834D02*
X305819D01*
X100681Y222047D02*
X305819D01*
X100681Y223622D02*
X305819D01*
X100681Y220681D02*
X305819D01*
X100681Y221259D02*
X305819D01*
X100681Y225984D02*
X305819D01*
X100681Y226771D02*
X305819D01*
X100681Y224409D02*
X305819D01*
X100681Y225196D02*
X305819D01*
X124253Y251181D02*
X282373D01*
X124494Y250393D02*
X282132D01*
X124548Y249606D02*
X282078D01*
X124104Y248031D02*
X282522D01*
X124425Y248818D02*
X282201D01*
X123778Y251968D02*
X282848D01*
X123510Y247244D02*
X283116D01*
X123228Y245669D02*
X283398D01*
X124551Y235433D02*
X282373D01*
X124551Y233070D02*
X282201D01*
X124551Y234645D02*
X282132D01*
X124551Y231496D02*
X283116D01*
X124551Y232283D02*
X282522D01*
X123901Y238582D02*
X282725D01*
X124211Y244881D02*
X282415D01*
X124551Y236220D02*
X282848D01*
X114738Y300787D02*
X119388D01*
X116027Y301574D02*
X118099D01*
X115027Y299999D02*
X119099D01*
X115904Y299212D02*
X118222D01*
X116379Y298425D02*
X117747D01*
X116551Y296062D02*
X117575D01*
X116620Y297637D02*
X117506D01*
X115636Y294488D02*
X118490D01*
X116230Y295275D02*
X117896D01*
X114438Y293700D02*
X119688D01*
X115354Y292913D02*
X118772D01*
X116730Y302362D02*
X117396D01*
X116674Y296850D02*
X117452D01*
X116027Y285826D02*
X118099D01*
X116337Y292125D02*
X117789D01*
X114738Y285039D02*
X119388D01*
X116230Y279527D02*
X117896D01*
X115027Y284251D02*
X119099D01*
X115904Y283464D02*
X118222D01*
X114438Y277952D02*
X119688D01*
X115636Y278740D02*
X118490D01*
X116730Y286614D02*
X117396D01*
X116379Y282677D02*
X117747D01*
X116620Y281889D02*
X117506D01*
X116674Y281102D02*
X117452D01*
X116551Y280314D02*
X117575D01*
X100681Y325196D02*
X110558D01*
X100681Y324409D02*
X111353D01*
X100681Y325984D02*
X109784D01*
X100681Y323621D02*
X110213D01*
X100681Y322834D02*
X109578D01*
X100681Y333070D02*
X110558D01*
X100681Y332283D02*
X111353D01*
X100681Y333858D02*
X109784D01*
X100681Y331495D02*
X110213D01*
X100681Y330708D02*
X109578D01*
X100681Y310236D02*
X109784D01*
X100681Y309448D02*
X110558D01*
X100681Y314960D02*
X109578D01*
X100681Y308661D02*
X110898D01*
X100681Y307873D02*
X109915D01*
X100681Y317322D02*
X110558D01*
X100681Y318110D02*
X109784D01*
X100681Y316535D02*
X111353D01*
X100681Y315747D02*
X110213D01*
X100681Y327558D02*
X109051D01*
X100681Y326771D02*
X109317D01*
X100681Y328346D02*
X108948D01*
X100681Y322047D02*
X109195D01*
X100681Y321259D02*
X108994D01*
X100681Y335432D02*
X109051D01*
X100681Y334645D02*
X109317D01*
X100681Y336220D02*
X108948D01*
X100681Y329921D02*
X109195D01*
X100681Y329133D02*
X108994D01*
X100681Y313385D02*
X108994D01*
X100681Y311810D02*
X109051D01*
X100681Y312598D02*
X108948D01*
X100681Y307086D02*
X109330D01*
X100681Y311023D02*
X109317D01*
X100681Y319684D02*
X109051D01*
X100681Y320472D02*
X108948D01*
X100681Y318897D02*
X109317D01*
X100681Y314173D02*
X109195D01*
X100681Y294488D02*
X110616D01*
X100681Y293700D02*
X111814D01*
X100681Y295275D02*
X110022D01*
X100681Y292913D02*
X110898D01*
X100681Y292125D02*
X109915D01*
X100681Y300787D02*
X111514D01*
X100681Y299999D02*
X111225D01*
X100681Y301574D02*
X110225D01*
X100681Y299212D02*
X110348D01*
X100681Y298425D02*
X109873D01*
X100681Y282677D02*
X109873D01*
X100681Y279527D02*
X110022D01*
X100681Y280314D02*
X109701D01*
X100681Y277952D02*
X111814D01*
X100681Y278740D02*
X110616D01*
X100681Y285039D02*
X111514D01*
X100681Y285826D02*
X110225D01*
X100681Y284251D02*
X111225D01*
X100681Y283464D02*
X110348D01*
X100681Y302362D02*
X109522D01*
X100681Y297637D02*
X109632D01*
X100681Y303149D02*
X109085D01*
X100681Y296062D02*
X109701D01*
X100681Y296850D02*
X109578D01*
X100681Y306299D02*
X108970D01*
X100681Y305511D02*
X108779D01*
X100681Y304724D02*
X108735D01*
X100681Y303936D02*
X108834D01*
X100681Y220681D02*
Y498819D01*
Y287401D02*
X109085D01*
X100681Y286614D02*
X109522D01*
X100681Y288188D02*
X108834D01*
X100681Y281889D02*
X109632D01*
X100681Y281102D02*
X109578D01*
X100681Y291338D02*
X109330D01*
X100681Y290551D02*
X108970D01*
X100681Y289763D02*
X108779D01*
X100681Y288976D02*
X108735D01*
X114738Y269291D02*
X119388D01*
X115354Y277165D02*
X118772D01*
X115027Y268503D02*
X119099D01*
X114438Y262204D02*
X119688D01*
X115354Y261417D02*
X118772D01*
X114738Y253543D02*
X119388D01*
X115027Y252755D02*
X119099D01*
X116337Y276377D02*
X117789D01*
X116379Y266929D02*
X117747D01*
X116730Y270866D02*
X117396D01*
X116620Y266141D02*
X117506D01*
X116674Y265354D02*
X117452D01*
X116027Y270078D02*
X118099D01*
X115904Y267716D02*
X118222D01*
X116230Y263779D02*
X117896D01*
X116337Y260629D02*
X117789D01*
X116551Y264566D02*
X117575D01*
X116379Y251181D02*
X117747D01*
X116730Y255118D02*
X117396D01*
X115636Y262992D02*
X118490D01*
X115904Y251968D02*
X118222D01*
X116027Y254330D02*
X118099D01*
X115636Y247244D02*
X118490D01*
X114438Y246456D02*
X119688D01*
X116230Y248031D02*
X117896D01*
X115354Y245669D02*
X118772D01*
X116337Y244881D02*
X117789D01*
X121786Y237559D02*
X124551D01*
Y230457D02*
Y237559D01*
X117449Y230457D02*
X124551D01*
X114738Y237795D02*
X119388D01*
X116027Y238582D02*
X118099D01*
X117449Y237559D02*
X120214D01*
X116620Y250393D02*
X117506D01*
X116551Y248818D02*
X117575D01*
X116674Y249606D02*
X117452D01*
X117449Y230457D02*
Y237559D01*
X116730Y239370D02*
X117396D01*
X116620Y234645D02*
X117449D01*
X116674Y233858D02*
X117449D01*
X116379Y235433D02*
X117449D01*
X116230Y232283D02*
X117449D01*
X116551Y233070D02*
X117449D01*
X115904Y236220D02*
X117449D01*
X115027Y237007D02*
X117449D01*
X114438Y230708D02*
X117449D01*
X115636Y231496D02*
X117449D01*
X100681Y277165D02*
X110898D01*
X100681Y269291D02*
X111514D01*
X100681Y270078D02*
X110225D01*
X100681Y268503D02*
X111225D01*
X100681Y267716D02*
X110348D01*
X100681Y260629D02*
X109915D01*
X100681Y253543D02*
X111514D01*
X100681Y254330D02*
X110225D01*
X100681Y262992D02*
X110616D01*
X100681Y263779D02*
X110022D01*
X100681Y262204D02*
X111814D01*
X100681Y261417D02*
X110898D01*
X100681Y271653D02*
X109085D01*
X100681Y270866D02*
X109522D01*
X100681Y272440D02*
X108834D01*
X100681Y266929D02*
X109873D01*
X100681Y266141D02*
X109632D01*
X100681Y276377D02*
X109915D01*
X100681Y275590D02*
X109330D01*
X100681Y274803D02*
X108970D01*
X100681Y274015D02*
X108779D01*
X100681Y273228D02*
X108735D01*
X100681Y258267D02*
X108779D01*
X100681Y256692D02*
X108834D01*
X100681Y257480D02*
X108735D01*
X100681Y255118D02*
X109522D01*
X100681Y255905D02*
X109085D01*
X100681Y264566D02*
X109701D01*
X100681Y265354D02*
X109578D01*
X100681Y259842D02*
X109330D01*
X100681Y259055D02*
X108970D01*
X100681Y252755D02*
X111225D01*
X100681Y251968D02*
X110348D01*
X100681Y246456D02*
X111814D01*
X100681Y247244D02*
X110616D01*
X100681Y231496D02*
X110616D01*
X100681Y230708D02*
X111814D01*
X100681Y237795D02*
X111514D01*
X100681Y245669D02*
X110898D01*
X100681Y237007D02*
X111225D01*
X100681Y236220D02*
X110348D01*
X100681Y244881D02*
X109915D01*
X100681Y244094D02*
X109330D01*
X100681Y243307D02*
X108970D01*
X100681Y242519D02*
X108779D01*
X100681Y241732D02*
X108735D01*
X100681Y251181D02*
X109873D01*
X100681Y250393D02*
X109632D01*
X100681Y249606D02*
X109578D01*
X100681Y248031D02*
X110022D01*
X100681Y248818D02*
X109701D01*
X100681Y235433D02*
X109873D01*
X100681Y234645D02*
X109632D01*
X100681Y233858D02*
X109578D01*
X100681Y232283D02*
X110022D01*
X100681Y233070D02*
X109701D01*
X100681Y240157D02*
X109085D01*
X100681Y240944D02*
X108834D01*
X100681Y238582D02*
X110225D01*
X100681Y239370D02*
X109522D01*
D18*
X207000Y465000D02*
D03*
X202000D02*
D03*
X137000Y371500D02*
D03*
X130500Y370500D02*
D03*
X278000Y318500D02*
D03*
X273000Y313500D02*
D03*
X263000Y303500D02*
D03*
X259500Y301000D02*
D03*
X255500Y297000D02*
D03*
X110500Y465000D02*
D03*
X199000Y490500D02*
D03*
X204000Y482000D02*
D03*
X298500Y490000D02*
D03*
X257500Y227500D02*
D03*
X240000D02*
D03*
X220500Y226500D02*
D03*
X196000Y226000D02*
D03*
X178000Y225500D02*
D03*
X161500Y224500D02*
D03*
X132000Y227000D02*
D03*
X150000Y286000D02*
D03*
X144000Y292500D02*
D03*
X183500Y305500D02*
D03*
X180500Y307500D02*
D03*
X159000D02*
D03*
X146500D02*
D03*
X135000Y336000D02*
D03*
X148500Y335500D02*
D03*
X149000Y327500D02*
D03*
X152500Y327000D02*
D03*
X138500Y336500D02*
D03*
X132000Y351500D02*
D03*
X137500Y349500D02*
D03*
X134500Y354000D02*
D03*
X204920Y281544D02*
D03*
X203073Y284301D02*
D03*
X201181Y284165D02*
D03*
X199136Y284301D02*
D03*
X197168Y276427D02*
D03*
X199136Y278395D02*
D03*
X203000Y278500D02*
D03*
X204977Y274550D02*
D03*
X208921Y280415D02*
D03*
X200927Y280364D02*
D03*
X199068Y282434D02*
D03*
X197168Y284301D02*
D03*
X194500Y286500D02*
D03*
X200712Y305554D02*
D03*
X211500Y287500D02*
D03*
X206991Y276509D02*
D03*
X249000Y273000D02*
D03*
X233500D02*
D03*
X221000D02*
D03*
X272500Y265000D02*
D03*
X261000Y264500D02*
D03*
X246000Y265000D02*
D03*
X233500Y265500D02*
D03*
X277000Y258000D02*
D03*
X268500Y258500D02*
D03*
X255500D02*
D03*
X244000D02*
D03*
X235500D02*
D03*
X276500Y243000D02*
D03*
X266000Y243500D02*
D03*
X257000D02*
D03*
X243000D02*
D03*
X275500Y249500D02*
D03*
X266000Y250000D02*
D03*
X252000D02*
D03*
X240500D02*
D03*
X138500Y266500D02*
D03*
X173500Y256500D02*
D03*
X157500D02*
D03*
X143500Y257000D02*
D03*
X130500Y258500D02*
D03*
X163500Y243500D02*
D03*
X148000Y243000D02*
D03*
X134000Y242500D02*
D03*
X170500Y248500D02*
D03*
X150500Y248000D02*
D03*
X132500Y248500D02*
D03*
X147000Y271000D02*
D03*
X139500Y278500D02*
D03*
X132500Y284000D02*
D03*
X130000Y287500D02*
D03*
X132000Y271000D02*
D03*
X128000Y276000D02*
D03*
X131000Y398500D02*
D03*
X110500Y411000D02*
D03*
X123000Y411500D02*
D03*
X130500Y478000D02*
D03*
X111000Y476000D02*
D03*
X134500Y467000D02*
D03*
X124000Y489000D02*
D03*
X275500Y461000D02*
D03*
X226000Y462500D02*
D03*
X184500Y463000D02*
D03*
X167000Y460500D02*
D03*
X170000Y352500D02*
D03*
X172000Y342500D02*
D03*
X169650Y347713D02*
D03*
X249000Y343000D02*
D03*
X240000Y351000D02*
D03*
X244000Y346500D02*
D03*
X246000Y351000D02*
D03*
X246500Y349500D02*
D03*
X178500Y271000D02*
D03*
X185500Y272500D02*
D03*
X166500Y277500D02*
D03*
X167000Y284000D02*
D03*
X177500Y282000D02*
D03*
Y284000D02*
D03*
X178000Y294000D02*
D03*
X172500Y294500D02*
D03*
X175500Y295000D02*
D03*
X275000Y354500D02*
D03*
X269000Y359500D02*
D03*
X267500Y350000D02*
D03*
X269500Y354500D02*
D03*
X267000Y427500D02*
D03*
X265500Y403500D02*
D03*
X283000Y418000D02*
D03*
X294000Y404500D02*
D03*
X291500Y413000D02*
D03*
X299500Y472500D02*
D03*
X283500Y473500D02*
D03*
X288500Y483000D02*
D03*
X278000Y487000D02*
D03*
X270000Y476000D02*
D03*
X229500Y416000D02*
D03*
X226500Y401000D02*
D03*
X223000Y412500D02*
D03*
X147500Y429500D02*
D03*
X137500Y436000D02*
D03*
X165500Y391000D02*
D03*
X153000Y404000D02*
D03*
X156500Y396000D02*
D03*
X154500Y343500D02*
D03*
X157000Y339500D02*
D03*
X160500Y338500D02*
D03*
X189500Y272500D02*
D03*
X194150Y343170D02*
D03*
X256000Y479500D02*
D03*
X191000Y452500D02*
D03*
X178500Y441500D02*
D03*
X187500Y350000D02*
D03*
X190000Y343347D02*
D03*
X175000Y441500D02*
D03*
X188000Y290500D02*
D03*
Y299500D02*
D03*
X224000Y355000D02*
D03*
X191000Y301000D02*
D03*
X189500Y292000D02*
D03*
X191000Y340500D02*
D03*
X201500Y341000D02*
D03*
X205500D02*
D03*
X193000Y339500D02*
D03*
X189500Y296500D02*
D03*
X302000Y309500D02*
D03*
X223500Y308488D02*
D03*
X220240Y309068D02*
D03*
X299000Y310500D02*
D03*
X226000Y282500D02*
D03*
X267555Y324445D02*
D03*
X221500Y342000D02*
D03*
X143500Y325000D02*
D03*
X147000Y321000D02*
D03*
X143000Y369000D02*
D03*
X130000Y316500D02*
D03*
X256500Y330000D02*
D03*
X156500Y360000D02*
D03*
X154500Y366000D02*
D03*
X145000Y370000D02*
D03*
X212170Y293711D02*
D03*
X267500Y293500D02*
D03*
X212500Y289500D02*
D03*
X229336Y289575D02*
D03*
X212500Y298000D02*
D03*
X198500Y318500D02*
D03*
X142993Y387993D02*
D03*
X145000Y390000D02*
D03*
X143000Y317500D02*
D03*
X197500Y316000D02*
D03*
X199500Y309000D02*
D03*
X142000Y314500D02*
D03*
X144500Y312500D02*
D03*
X147000Y318500D02*
D03*
X143017Y303468D02*
D03*
X224000Y303000D02*
D03*
X214500D02*
D03*
X267500Y335000D02*
D03*
X277000Y332500D02*
D03*
X225000Y300500D02*
D03*
X215000D02*
D03*
X228315Y298288D02*
D03*
X215973Y295870D02*
D03*
X227251Y295481D02*
D03*
X228500Y287500D02*
D03*
Y291500D02*
D03*
X215000D02*
D03*
X168000Y281000D02*
D03*
X166000Y274000D02*
D03*
X165522Y287717D02*
D03*
X177770Y267635D02*
D03*
D65*
X271876Y374624D02*
G03*
X269048Y375795I-2828J-2828D01*
G01*
X189547D02*
X269048D01*
X195000Y390500D02*
X210000D01*
X117500Y446500D02*
X290500D01*
X271876Y374624D02*
X278634Y367866D01*
X278740Y390500D02*
X285626Y383614D01*
X278634Y367866D02*
X285626D01*
X210000Y390500D02*
X278740D01*
D66*
X201000Y284548D02*
G03*
X201030Y284433I236J0D01*
G01*
X145429Y323071D02*
G03*
X145598Y323000I169J166D01*
G01*
X187497Y277399D02*
G03*
X187330Y277330I0J-236D01*
G01*
X206170D02*
G03*
X206003Y277399I-167J-167D01*
G01*
X165491Y281607D02*
G03*
X165559Y281441I236J0D01*
G01*
X166933Y280067D02*
G03*
X167096Y280000I165J169D01*
G01*
X194500Y286500D02*
G03*
X194499Y286501I-178J-155D01*
G01*
X200886Y306577D02*
G03*
X200889Y306617I-233J40D01*
G01*
Y312511D02*
G03*
X200866Y312614I-236J-0D01*
G01*
X200866Y312614D02*
G03*
X200821Y312679I-215J-99D01*
G01*
X200902Y340500D02*
G03*
X201069Y340569I0J236D01*
G01*
X201749Y355000D02*
G03*
X201585Y354932I2J-236D01*
G01*
X220684Y309414D02*
G03*
X220516Y309344I0J-236D01*
G01*
X199069Y314431D02*
G03*
X198902Y314500I-167J-167D01*
G01*
X283307Y348000D02*
G03*
X283140Y347931I0J-236D01*
G01*
X288402Y348000D02*
G03*
X288569Y348069I0J236D01*
G01*
X292714Y352118D02*
G03*
X292550Y352050I2J-236D01*
G01*
X183902Y274000D02*
G03*
X184068Y274068I0J236D01*
G01*
X203073Y284301D02*
Y318427D01*
X203000Y318500D02*
X203073Y318427D01*
X201000Y284548D02*
Y289000D01*
X201030Y284433D02*
X201181Y284165D01*
X145598Y323000D02*
X145598Y323000D01*
X143500Y325000D02*
X145429Y323071D01*
X191427Y276427D02*
X197168D01*
X182635Y267635D02*
X191427Y276427D01*
X206170Y277330D02*
X206991Y276509D01*
X187497Y277399D02*
X206003Y277399D01*
X184068Y274068D02*
X187330Y277330D01*
X167096Y280000D02*
X197531D01*
X165559Y281441D02*
X166933Y280067D01*
X197531Y280000D02*
X199136Y278395D01*
X211000Y282500D02*
X226000D01*
X208921Y280415D02*
X211000Y282494D01*
Y282500D01*
X200227Y281000D02*
X200863Y280364D01*
X200927D01*
X168000Y281000D02*
X200227D01*
X188000Y290500D02*
X194000Y284500D01*
X196557D02*
X196576Y284481D01*
X196987D02*
X197168Y284301D01*
X196576Y284481D02*
X196987D01*
X194000Y284500D02*
X196557D01*
X191000Y290000D02*
Y301000D01*
Y290000D02*
X194500Y286500D01*
X198500Y323000D02*
X203000Y318500D01*
X201000Y289000D02*
X201928Y289928D01*
Y317572D01*
X200889Y306617D02*
Y312510D01*
X200819Y312681D02*
X200821Y312679D01*
X200712Y305554D02*
X200886Y306577D01*
X199069Y314431D02*
X200819Y312681D01*
X200866Y312614D02*
X200866Y312614D01*
X198500Y321000D02*
X201928Y317572D01*
X200889Y312511D02*
X200889Y312510D01*
X211500Y287500D02*
X228500D01*
X196500Y312000D02*
X199500Y309000D01*
X215000Y291500D02*
X228500D01*
X113126Y320622D02*
X117248Y316500D01*
X130000D01*
X176000Y361500D02*
Y369500D01*
X201749Y355000D02*
X201751Y355000D01*
X176000Y361500D02*
X187500Y350000D01*
X193000Y339500D02*
X203500D01*
X205166Y341166D02*
X205334D01*
X203500Y339500D02*
X205166Y341166D01*
X205334D02*
X205500Y341000D01*
X189000Y340500D02*
X200902D01*
X201069Y340569D02*
X201500Y341000D01*
X190000Y343347D02*
X201585Y354932D01*
X189500Y292000D02*
Y296500D01*
X147000Y321000D02*
X198500D01*
X223500Y308488D02*
X300988D01*
X267500Y324500D02*
X267555Y324445D01*
X191000Y452500D02*
X229000D01*
X256000Y479500D01*
X267500Y324500D02*
Y335000D01*
X177770Y267635D02*
X182635D01*
X165491Y287686D02*
X165522Y287717D01*
X165491Y281607D02*
Y287686D01*
X188000Y290500D02*
Y299500D01*
X295968Y310500D02*
X299000D01*
X201751Y355000D02*
X224000D01*
X175000Y354500D02*
X189000Y340500D01*
X284245Y309414D02*
X294881D01*
X175000Y354500D02*
Y441500D01*
X294881Y309414D02*
X295968Y310500D01*
X147000Y318500D02*
X198500D01*
X143000Y369000D02*
Y387986D01*
X142993Y387993D02*
X143000Y387986D01*
X142000Y314500D02*
X147073D01*
X212500Y289500D02*
X212575Y289575D01*
X144500Y316000D02*
X197500D01*
X212575Y289575D02*
X229336D01*
X143000Y317500D02*
X144500Y316000D01*
X212426Y293711D02*
X212637Y293500D01*
X212170Y293711D02*
X212426D01*
X212637Y293500D02*
X267500D01*
X166000Y274000D02*
X183902D01*
X212500Y298000D02*
X212756D01*
X213044Y298288D01*
X292716Y352118D02*
X293500D01*
X277000Y341791D02*
X283140Y347931D01*
X277000Y332500D02*
Y341791D01*
X213044Y298288D02*
X228315D01*
X300988Y308488D02*
X302000Y309500D01*
X215000Y300500D02*
X225000D01*
X214500Y303000D02*
X224000D01*
X145000Y312000D02*
X196500D01*
X144500Y312500D02*
X145000Y312000D01*
X288569Y348069D02*
X292550Y352050D01*
X283307Y348000D02*
X288402Y348000D01*
X292714Y352118D02*
X292716Y352118D01*
X226640Y295870D02*
X227029Y295481D01*
X215833Y296000D02*
X226500D01*
X227029Y295481D02*
X227251D01*
X116460Y309414D02*
X137071D01*
X143017Y303468D01*
X147098Y314500D02*
X198902D01*
X113126Y312748D02*
X116460Y309414D01*
X145000Y370000D02*
Y390000D01*
X176000Y369500D02*
X178500Y372000D01*
Y441500D01*
X220240Y309068D02*
X220516Y309344D01*
X220684Y309413D02*
X284245Y309414D01*
X145598Y323000D02*
X198500D01*
D68*
X150657Y330343D02*
G03*
X151489Y330000I833J838D01*
G01*
X199136Y284301D02*
G03*
X199068Y283905I1113J-396D01*
G01*
X149096Y331904D02*
G03*
X148261Y332250I-835J-835D01*
G01*
X155982Y359992D02*
G03*
X156003Y359992I0J1181D01*
G01*
X151489Y330000D02*
X256500D01*
X150654Y330346D02*
X150657Y330343D01*
X149096Y331904D02*
X150654Y330346D01*
X199068Y282434D02*
Y283905D01*
X183500Y287000D02*
X188066Y282434D01*
X199068D01*
X121000Y367866D02*
X122236D01*
X113126Y328496D02*
X116933Y332303D01*
X122577D02*
X122630Y332250D01*
X116933Y332303D02*
X122577D01*
X113126Y336370D02*
X116933Y340177D01*
X170000Y287000D02*
X183500D01*
X169500Y287500D02*
X170000Y287000D01*
X122630Y332250D02*
X148261D01*
X151323Y340177D02*
X156500Y335000D01*
X213500D01*
X214489Y334989D02*
X221500Y342000D01*
X213511Y334989D02*
X214489D01*
X213500Y335000D02*
X213511Y334989D01*
X156003Y359992D02*
X156500Y360000D01*
X122236Y367866D02*
X124101Y366000D01*
X154500D01*
X121000Y359992D02*
X155982D01*
X116933Y340177D02*
X151323D01*
D76*
X200077Y325423D02*
G03*
X198685Y325999I-1392J-1392D01*
G01*
X200077Y325423D02*
X205937Y319563D01*
X162746Y325999D02*
X198685D01*
X205937Y282560D02*
Y319563D01*
X204920Y281544D02*
X205937Y282560D01*
X210000Y390500D02*
X213000Y387500D01*
Y386000D02*
Y387500D01*
X169000Y294500D02*
Y306500D01*
D77*
X187992Y489301D02*
D03*
X222008D02*
D03*
D78*
Y472963D02*
D03*
X187992D02*
D03*
D79*
X293500Y234008D02*
D03*
X121000D02*
D03*
D80*
X285626D02*
D03*
X293500Y241882D02*
D03*
X285626D02*
D03*
X293500Y249756D02*
D03*
X285626D02*
D03*
X293500Y257630D02*
D03*
X285626D02*
D03*
X293500Y265504D02*
D03*
X285626D02*
D03*
X293500Y273378D02*
D03*
X285626D02*
D03*
X293500Y281252D02*
D03*
X285626D02*
D03*
X293500Y289126D02*
D03*
X285626D02*
D03*
X293500Y297000D02*
D03*
X285626D02*
D03*
X293500Y304874D02*
D03*
X285626D02*
D03*
X293500Y312748D02*
D03*
X285626D02*
D03*
X293500Y320622D02*
D03*
X285626D02*
D03*
X293500Y328496D02*
D03*
X285626D02*
D03*
X293500Y336370D02*
D03*
X285626D02*
D03*
X293500Y344244D02*
D03*
X285626D02*
D03*
X293500Y352118D02*
D03*
X285626D02*
D03*
X293500Y359992D02*
D03*
X285626D02*
D03*
X293500Y367866D02*
D03*
X285626D02*
D03*
X293500Y375740D02*
D03*
X285626D02*
D03*
X293500Y383614D02*
D03*
X285626D02*
D03*
X113126Y234008D02*
D03*
X121000Y241882D02*
D03*
X113126D02*
D03*
X121000Y249756D02*
D03*
X113126D02*
D03*
X121000Y257630D02*
D03*
X113126D02*
D03*
X121000Y265504D02*
D03*
X113126D02*
D03*
X121000Y273378D02*
D03*
X113126D02*
D03*
X121000Y281252D02*
D03*
X113126D02*
D03*
X121000Y289126D02*
D03*
X113126D02*
D03*
X121000Y297000D02*
D03*
X113126D02*
D03*
X121000Y304874D02*
D03*
X113126D02*
D03*
X121000Y312748D02*
D03*
X113126D02*
D03*
X121000Y320622D02*
D03*
X113126D02*
D03*
X121000Y328496D02*
D03*
X113126D02*
D03*
X121000Y336370D02*
D03*
X113126D02*
D03*
X121000Y344244D02*
D03*
X113126D02*
D03*
X121000Y352118D02*
D03*
X113126D02*
D03*
X121000Y359992D02*
D03*
X113126D02*
D03*
X121000Y367866D02*
D03*
X113126D02*
D03*
X121000Y375740D02*
D03*
X113126D02*
D03*
X121000Y383614D02*
D03*
X113126D02*
D03*
D81*
X214843Y423500D02*
D03*
D82*
X195158Y423500D02*
D03*
D83*
X117500Y431500D02*
D03*
X290500D02*
D03*
D84*
X117500Y436500D02*
D03*
Y441500D02*
D03*
Y446500D02*
D03*
X290500Y436500D02*
D03*
Y441500D02*
D03*
Y446500D02*
D03*
X163000Y326000D02*
D03*
X189547Y375795D02*
D03*
D85*
X213000Y386000D02*
D03*
X169000Y306500D02*
D03*
Y294500D02*
D03*
X169500Y287500D02*
D03*
X263500Y362000D02*
D03*
D86*
X195000Y390500D02*
D03*
M02*
