G04*
G04 #@! TF.GenerationSoftware,Altium Limited,Altium Designer,22.4.2 (48)*
G04*
G04 Layer_Physical_Order=1*
G04 Layer_Color=255*
%FSLAX25Y25*%
%MOIN*%
G70*
G04*
G04 #@! TF.SameCoordinates,3F43F253-9996-4CA0-957E-582612897B16*
G04*
G04*
G04 #@! TF.FilePolarity,Positive*
G04*
G01*
G75*
%ADD11C,0.01000*%
%ADD18R,0.05906X0.03937*%
%ADD19R,0.05906X0.03543*%
%ADD20R,0.01181X0.04528*%
%ADD21R,0.02362X0.04528*%
%ADD22C,0.01181*%
%ADD23R,0.03150X0.03543*%
%ADD24R,0.03175X0.03402*%
%ADD25R,0.05510X0.04720*%
%ADD26R,0.03543X0.03150*%
%ADD27R,0.03402X0.03175*%
%ADD28R,0.07570X0.08660*%
%ADD29R,0.01181X0.04724*%
%ADD30R,0.02362X0.00787*%
%ADD31R,0.03150X0.00984*%
%ADD32O,0.03150X0.00984*%
%ADD33R,0.01968X0.06693*%
%ADD34R,0.04331X0.09843*%
%ADD35R,0.14173X0.09213*%
%ADD36R,0.04331X0.02756*%
%ADD64C,0.00236*%
%ADD65C,0.00236*%
%ADD66C,0.01181*%
%ADD67C,0.04000*%
%ADD68C,0.00800*%
%ADD69C,0.02500*%
%ADD70C,0.05000*%
%ADD71C,0.03937*%
%ADD72C,0.02000*%
%ADD73C,0.01500*%
%ADD74C,0.03000*%
%ADD75C,0.01968*%
%ADD76C,0.02756*%
%ADD77O,0.03937X0.07087*%
%ADD78O,0.03937X0.08268*%
%ADD79R,0.06000X0.06000*%
%ADD80C,0.06000*%
%ADD81R,0.05315X0.05315*%
%ADD82C,0.05315*%
%ADD83R,0.03937X0.03937*%
%ADD84C,0.03937*%
%ADD85C,0.01968*%
%ADD86C,0.04724*%
G36*
X306187Y220313D02*
X100313D01*
Y499187D01*
X306187D01*
Y220313D01*
D02*
G37*
%LPC*%
G36*
X222008Y493655D02*
X221289Y493561D01*
X220618Y493283D01*
X220042Y492841D01*
X219601Y492266D01*
X219323Y491595D01*
X219228Y490876D01*
Y487726D01*
X219323Y487007D01*
X219601Y486336D01*
X220042Y485761D01*
X220618Y485319D01*
X221289Y485041D01*
X222008Y484946D01*
X222727Y485041D01*
X223398Y485319D01*
X223973Y485761D01*
X224415Y486336D01*
X224693Y487007D01*
X224788Y487726D01*
Y490876D01*
X224693Y491595D01*
X224415Y492266D01*
X223973Y492841D01*
X223398Y493283D01*
X222727Y493561D01*
X222008Y493655D01*
D02*
G37*
G36*
X187992D02*
X187273Y493561D01*
X186602Y493283D01*
X186027Y492841D01*
X185585Y492266D01*
X185307Y491595D01*
X185212Y490876D01*
Y487726D01*
X185307Y487007D01*
X185585Y486336D01*
X186027Y485761D01*
X186602Y485319D01*
X187273Y485041D01*
X187992Y484946D01*
X188711Y485041D01*
X189382Y485319D01*
X189957Y485761D01*
X190399Y486336D01*
X190677Y487007D01*
X190772Y487726D01*
Y490876D01*
X190677Y491595D01*
X190399Y492266D01*
X189957Y492841D01*
X189382Y493283D01*
X188711Y493561D01*
X187992Y493655D01*
D02*
G37*
G36*
X246361Y489555D02*
X238881D01*
Y484043D01*
X246361D01*
Y489555D01*
D02*
G37*
G36*
X264740Y483256D02*
X257260D01*
Y481423D01*
X257000D01*
X256647Y481353D01*
X256527Y481273D01*
X256347Y481153D01*
X256347Y481153D01*
X256083Y480889D01*
X256000Y480905D01*
X255462Y480798D01*
X255007Y480493D01*
X254702Y480038D01*
X254595Y479500D01*
X254702Y478962D01*
X255007Y478507D01*
X255462Y478202D01*
X256000Y478095D01*
X256538Y478202D01*
X256993Y478507D01*
X257260Y478905D01*
Y477744D01*
X264740D01*
Y483256D01*
D02*
G37*
G36*
X246574Y477169D02*
X243121D01*
Y474701D01*
X246574D01*
Y477169D01*
D02*
G37*
G36*
X242121D02*
X238669D01*
Y474701D01*
X242121D01*
Y477169D01*
D02*
G37*
G36*
X170653Y475591D02*
X167201D01*
Y473319D01*
X170653D01*
Y475591D01*
D02*
G37*
G36*
X166201D02*
X162748D01*
Y473319D01*
X166201D01*
Y475591D01*
D02*
G37*
G36*
X264740Y476957D02*
X257260D01*
Y471445D01*
X264740D01*
Y476957D01*
D02*
G37*
G36*
X246574Y473701D02*
X243121D01*
Y471232D01*
X246574D01*
Y473701D01*
D02*
G37*
G36*
X242121D02*
X238669D01*
Y471232D01*
X242121D01*
Y473701D01*
D02*
G37*
G36*
X149240Y475559D02*
X141760D01*
Y470441D01*
X149240D01*
Y475559D01*
D02*
G37*
G36*
X170653Y472319D02*
X167201D01*
Y470047D01*
X170653D01*
Y472319D01*
D02*
G37*
G36*
X166201D02*
X162748D01*
Y470047D01*
X166201D01*
Y472319D01*
D02*
G37*
G36*
X261000Y489579D02*
X256799D01*
X256080Y489484D01*
X255409Y489207D01*
X254834Y488765D01*
X249349Y483280D01*
X242621D01*
X242441Y483256D01*
X238881D01*
Y477744D01*
X242441D01*
X242621Y477720D01*
X247720D01*
Y439780D01*
X228500D01*
X227781Y439685D01*
X227110Y439407D01*
X226535Y438966D01*
X223035Y435465D01*
X222593Y434890D01*
X222315Y434219D01*
X222220Y433500D01*
Y426718D01*
X218287Y422786D01*
Y426945D01*
X216087D01*
X214714Y428317D01*
Y460399D01*
X214670Y460733D01*
X215918Y461980D01*
X215918Y461980D01*
X216368Y462654D01*
X216526Y463449D01*
Y467435D01*
X217099D01*
Y470699D01*
X218099D01*
Y467435D01*
X219780D01*
Y469174D01*
X220042Y468832D01*
X220618Y468390D01*
X221289Y468113D01*
X222008Y468018D01*
X222727Y468113D01*
X223398Y468390D01*
X223973Y468832D01*
X224415Y469408D01*
X224693Y470078D01*
X224788Y470798D01*
Y475128D01*
X224693Y475848D01*
X224415Y476518D01*
X223973Y477094D01*
X223398Y477536D01*
X222727Y477813D01*
X222008Y477908D01*
X221289Y477813D01*
X220618Y477536D01*
X220042Y477094D01*
X219601Y476518D01*
X219323Y475848D01*
X219228Y475128D01*
Y473963D01*
X218231D01*
X218399Y474369D01*
X218460Y474677D01*
Y474931D01*
Y475185D01*
X218399Y475493D01*
X218399Y475493D01*
X218204Y475963D01*
X218030Y476224D01*
X217670Y476583D01*
X217410Y476757D01*
X216940Y476952D01*
X216633Y477013D01*
X216124D01*
X215816Y476952D01*
X215816Y476952D01*
X215346Y476757D01*
X215086Y476583D01*
X214726Y476224D01*
X214552Y475963D01*
X214552Y475963D01*
X214357Y475493D01*
X214357Y475493D01*
X214308Y475247D01*
X214296Y475185D01*
Y475185D01*
D01*
Y474931D01*
Y474677D01*
D01*
Y474677D01*
X214308Y474615D01*
X214357Y474369D01*
X214357Y474369D01*
X214552Y473899D01*
X214552Y473899D01*
X214651Y473750D01*
X195349D01*
X195448Y473899D01*
X195643Y474369D01*
X195704Y474677D01*
Y474931D01*
Y475185D01*
X195643Y475493D01*
X195643Y475493D01*
X195448Y475963D01*
X195274Y476224D01*
X194914Y476583D01*
X194654Y476757D01*
X194184Y476952D01*
X193877Y477013D01*
X193368D01*
X193060Y476952D01*
X193060Y476952D01*
X192590Y476757D01*
X192330Y476583D01*
X191970Y476224D01*
X191796Y475963D01*
X191796Y475963D01*
X191601Y475493D01*
X191601Y475493D01*
X191552Y475247D01*
X191540Y475185D01*
Y475185D01*
D01*
Y474931D01*
Y474677D01*
D01*
Y474677D01*
X191552Y474615D01*
X191601Y474369D01*
X191601Y474369D01*
X191769Y473963D01*
X190772D01*
Y475128D01*
X190677Y475848D01*
X190399Y476518D01*
X189957Y477094D01*
X189382Y477536D01*
X188711Y477813D01*
X187992Y477908D01*
X187273Y477813D01*
X186602Y477536D01*
X186027Y477094D01*
X185585Y476518D01*
X185307Y475848D01*
X185212Y475128D01*
Y470798D01*
X185307Y470078D01*
X185585Y469408D01*
X186027Y468832D01*
X186602Y468390D01*
X187273Y468113D01*
X187992Y468018D01*
X188711Y468113D01*
X189382Y468390D01*
X189957Y468832D01*
X190221Y469175D01*
Y467435D01*
X191902D01*
Y470699D01*
X192902D01*
Y467435D01*
X193474D01*
Y461863D01*
X193632Y461068D01*
X194082Y460394D01*
X195547Y458930D01*
X195547Y458930D01*
X196221Y458479D01*
X197016Y458321D01*
X208083D01*
Y426944D01*
X208196Y426086D01*
X208390Y425617D01*
X208527Y425286D01*
X209054Y424599D01*
X210532Y423121D01*
X202784Y415373D01*
X202343Y414797D01*
X202065Y414127D01*
X201970Y413408D01*
Y412028D01*
X200032Y413966D01*
X199457Y414407D01*
X198786Y414685D01*
X198067Y414780D01*
X192280D01*
Y421242D01*
X192549Y420892D01*
X193313Y420305D01*
X194203Y419937D01*
X194658Y419877D01*
Y423500D01*
Y427123D01*
X194203Y427063D01*
X193313Y426695D01*
X192549Y426109D01*
X192280Y425758D01*
Y428000D01*
X192185Y428719D01*
X191907Y429390D01*
X191465Y429965D01*
X182966Y438465D01*
X182390Y438907D01*
X181719Y439185D01*
X181000Y439280D01*
X166116D01*
X160280Y445116D01*
Y481500D01*
X160185Y482219D01*
X159907Y482890D01*
X159466Y483465D01*
X155465Y487465D01*
X154890Y487907D01*
X154219Y488185D01*
X153500Y488280D01*
X149240D01*
Y488551D01*
X141760D01*
Y483433D01*
X144159D01*
X144602Y483093D01*
X145273Y482815D01*
X145992Y482720D01*
X152349D01*
X154720Y480349D01*
Y443964D01*
X154815Y443245D01*
X155093Y442575D01*
X155535Y441999D01*
X162999Y434535D01*
X163575Y434093D01*
X164245Y433815D01*
X164964Y433720D01*
X179849D01*
X186720Y426849D01*
Y414780D01*
X185500D01*
X184781Y414685D01*
X184110Y414407D01*
X183535Y413966D01*
X183093Y413390D01*
X182815Y412719D01*
X182720Y412000D01*
Y409404D01*
X180856Y407540D01*
X179252D01*
X179071Y407516D01*
X176102D01*
Y396311D01*
X174165D01*
X172977Y397499D01*
Y401642D01*
X172977Y401642D01*
X172953Y401825D01*
Y407516D01*
X172811D01*
Y419799D01*
X177874D01*
Y430586D01*
X162126D01*
Y419799D01*
X167189D01*
Y407516D01*
X167047D01*
Y396099D01*
X167385D01*
X167450Y395607D01*
X167648Y395128D01*
X167731Y394929D01*
X168177Y394347D01*
X171012Y391512D01*
X171594Y391065D01*
X172272Y390784D01*
X173000Y390688D01*
X173000Y390688D01*
X184500D01*
X184500Y390688D01*
X185228Y390784D01*
X185906Y391065D01*
X186488Y391512D01*
X191909Y396933D01*
X195189D01*
Y394665D01*
X194032Y393508D01*
X193412Y393251D01*
X192754Y392746D01*
X192249Y392088D01*
X191992Y391468D01*
X187335Y386811D01*
X143706D01*
X143986Y386999D01*
X144291Y387455D01*
X144398Y387993D01*
X144291Y388530D01*
X143986Y388986D01*
X143916Y389033D01*
Y389142D01*
X144007Y389007D01*
X144462Y388702D01*
X145000Y388595D01*
X145538Y388702D01*
X145993Y389007D01*
X146298Y389462D01*
X146405Y390000D01*
X146298Y390538D01*
X145993Y390993D01*
X145923Y391040D01*
Y414000D01*
X145853Y414353D01*
X145773Y414473D01*
X145653Y414653D01*
X145653Y414653D01*
X119992Y440314D01*
X120185Y440781D01*
X120280Y441500D01*
X120185Y442219D01*
X119907Y442890D01*
X119465Y443466D01*
X118890Y443907D01*
X118666Y444000D01*
X118890Y444093D01*
X119465Y444534D01*
X119907Y445110D01*
X120185Y445781D01*
X120280Y446500D01*
X120185Y447219D01*
X119907Y447890D01*
X119465Y448465D01*
X118890Y448907D01*
X118219Y449185D01*
X117500Y449280D01*
X116781Y449185D01*
X116110Y448907D01*
X115534Y448465D01*
X115093Y447890D01*
X114815Y447219D01*
X114720Y446500D01*
X114815Y445781D01*
X115093Y445110D01*
X115534Y444534D01*
X116110Y444093D01*
X116334Y444000D01*
X116110Y443907D01*
X115534Y443466D01*
X115093Y442890D01*
X114815Y442219D01*
X114720Y441500D01*
X114815Y440781D01*
X115093Y440110D01*
X115534Y439535D01*
X116110Y439093D01*
X116334Y439000D01*
X116110Y438907D01*
X115534Y438465D01*
X115093Y437890D01*
X114815Y437219D01*
X114720Y436500D01*
X114815Y435781D01*
X115093Y435110D01*
X115534Y434535D01*
X115620Y434469D01*
X114532D01*
Y432000D01*
X117500D01*
X120468D01*
Y432226D01*
X142070Y410625D01*
Y389033D01*
X142000Y388986D01*
X141695Y388530D01*
X141588Y387993D01*
X141695Y387455D01*
X142000Y386999D01*
X142281Y386811D01*
X123055D01*
X122910Y386922D01*
X121989Y387304D01*
X121000Y387434D01*
X120011Y387304D01*
X119090Y386922D01*
X118442Y386425D01*
X115684D01*
X115036Y386922D01*
X114115Y387304D01*
X113126Y387434D01*
X112137Y387304D01*
X111216Y386922D01*
X110425Y386315D01*
X109818Y385524D01*
X109436Y384603D01*
X109306Y383614D01*
X109436Y382625D01*
X109818Y381704D01*
X110425Y380913D01*
X111216Y380306D01*
X112137Y379924D01*
X113126Y379794D01*
X114115Y379924D01*
X115036Y380306D01*
X115683Y380802D01*
X118443D01*
X119090Y380306D01*
X120011Y379924D01*
X121000Y379794D01*
X121989Y379924D01*
X122910Y380306D01*
X123701Y380913D01*
X123913Y381189D01*
X188500D01*
X188500Y381189D01*
X189228Y381284D01*
X189906Y381565D01*
X190488Y382012D01*
X195968Y387492D01*
X196588Y387749D01*
X197246Y388254D01*
X197751Y388912D01*
X198008Y389532D01*
X199988Y391512D01*
X199988Y391512D01*
X200435Y392094D01*
X200716Y392772D01*
X200812Y393500D01*
X200811Y393500D01*
Y399744D01*
X200716Y400472D01*
X200559Y400850D01*
Y402106D01*
X199500D01*
X199406Y402179D01*
X198728Y402460D01*
X198000Y402556D01*
X190744D01*
X190744Y402556D01*
X190016Y402460D01*
X189338Y402179D01*
X189244Y402106D01*
X188441D01*
Y401417D01*
X183335Y396311D01*
X182008D01*
Y401980D01*
X182727Y402075D01*
X183398Y402353D01*
X183973Y402795D01*
X187466Y406287D01*
X187907Y406862D01*
X188185Y407533D01*
X188280Y408252D01*
Y409220D01*
X196916D01*
X198305Y407831D01*
X195228D01*
Y405756D01*
X198000D01*
Y405256D01*
X198500D01*
Y402681D01*
X200772D01*
Y405364D01*
X202191Y403945D01*
Y402955D01*
X203301D01*
X203360Y402910D01*
X204031Y402632D01*
X204750Y402537D01*
X205469Y402632D01*
X206140Y402910D01*
X206199Y402955D01*
X207309D01*
Y403945D01*
X208728Y405364D01*
Y402681D01*
X211000D01*
Y405256D01*
X211500D01*
Y405756D01*
X214272D01*
Y407831D01*
X211195D01*
X226965Y423601D01*
X227407Y424177D01*
X227685Y424848D01*
X227780Y425567D01*
Y432349D01*
X229651Y434220D01*
X250500D01*
X251219Y434315D01*
X251244Y434325D01*
X256720Y428849D01*
Y412151D01*
X252475Y407906D01*
X250470D01*
X249751Y407811D01*
X249080Y407533D01*
X249058Y407516D01*
X246602D01*
Y396099D01*
X246744D01*
Y390219D01*
X239335Y382811D01*
X227000D01*
X227000Y382811D01*
X226272Y382716D01*
X225594Y382435D01*
X225012Y381988D01*
X225012Y381988D01*
X215512Y372488D01*
X215065Y371906D01*
X214784Y371228D01*
X214688Y370500D01*
X214688Y370500D01*
Y336282D01*
X214688Y336282D01*
X214784Y335554D01*
X215065Y334876D01*
X215512Y334294D01*
X220231Y329574D01*
Y323861D01*
X225945D01*
X229622Y320184D01*
X229622Y320184D01*
X229616Y320177D01*
X230649Y319329D01*
X231829Y318699D01*
X233108Y318311D01*
X234439Y318180D01*
Y318189D01*
X257843D01*
Y318180D01*
X259174Y318311D01*
X260367Y318673D01*
X245618Y303923D01*
X225040D01*
X224993Y303993D01*
X224538Y304298D01*
X224000Y304405D01*
X223462Y304298D01*
X223007Y303993D01*
X222702Y303538D01*
X222595Y303000D01*
X222702Y302462D01*
X223007Y302007D01*
X223462Y301702D01*
X224000Y301595D01*
X224226Y301640D01*
X224007Y301493D01*
X223702Y301038D01*
X223595Y300500D01*
X223702Y299962D01*
X224007Y299507D01*
X224462Y299202D01*
X225000Y299095D01*
X225538Y299202D01*
X225993Y299507D01*
X226040Y299577D01*
X227764D01*
X227322Y299282D01*
X227017Y298826D01*
X226910Y298288D01*
X227017Y297750D01*
X227322Y297295D01*
X227777Y296990D01*
X228315Y296883D01*
X228853Y296990D01*
X229309Y297295D01*
X229314Y297303D01*
X246128D01*
Y297298D01*
X246574Y297387D01*
X246945Y297635D01*
X246942Y297638D01*
X246947Y297641D01*
X280382Y331077D01*
X282832D01*
X282318Y330406D01*
X281936Y329485D01*
X281927Y329419D01*
X280594D01*
X280593Y329419D01*
X280592Y329419D01*
X280588Y329418D01*
X280585Y329419D01*
X280583Y329419D01*
X280583Y329419D01*
X280583Y329422D01*
X280148Y329335D01*
X279777Y329087D01*
X279780Y329084D01*
X279775Y329081D01*
X279775Y329081D01*
X247118Y296423D01*
X228279D01*
X228244Y296475D01*
X227789Y296779D01*
X227251Y296886D01*
X226713Y296779D01*
X226257Y296475D01*
X225953Y296019D01*
X225846Y295481D01*
X225953Y294944D01*
X226257Y294488D01*
X226713Y294183D01*
X227251Y294076D01*
X227276Y294081D01*
X225347Y292153D01*
X225147Y291853D01*
X225077Y291500D01*
X225077Y291500D01*
Y284882D01*
X223618Y283423D01*
X215369D01*
X219106Y287160D01*
X219306Y287459D01*
X219376Y287812D01*
Y305070D01*
X221882Y307577D01*
X222452D01*
X222507Y307495D01*
X222962Y307190D01*
X223500Y307083D01*
X224038Y307190D01*
X224493Y307495D01*
X224798Y307951D01*
X224905Y308488D01*
X224798Y309026D01*
X224493Y309482D01*
X224038Y309786D01*
X223500Y309893D01*
X222962Y309786D01*
X222507Y309482D01*
X222467Y309423D01*
X221575D01*
X221538Y309606D01*
X221234Y310062D01*
X220778Y310366D01*
X220240Y310473D01*
X219703Y310366D01*
X219247Y310062D01*
X218942Y309606D01*
X218835Y309068D01*
X218852Y308985D01*
X217347Y307481D01*
X217147Y307181D01*
X217077Y306828D01*
X217077Y306828D01*
Y296698D01*
X216967Y296863D01*
X216511Y297168D01*
X215973Y297275D01*
X215483Y297177D01*
X215585Y297279D01*
X215585Y297279D01*
X215588Y297283D01*
X215591Y297280D01*
X215839Y297652D01*
X215928Y298098D01*
X215923D01*
Y299460D01*
X215993Y299507D01*
X216298Y299962D01*
X216405Y300500D01*
X216298Y301038D01*
X215993Y301493D01*
X215538Y301798D01*
X215263Y301853D01*
X215493Y302007D01*
X215798Y302462D01*
X215905Y303000D01*
X215798Y303538D01*
X215493Y303993D01*
X215038Y304298D01*
X214500Y304405D01*
X213962Y304298D01*
X213507Y303993D01*
X213202Y303538D01*
X213095Y303000D01*
X213111Y302917D01*
X203923Y293729D01*
Y314000D01*
X203853Y314353D01*
X203653Y314653D01*
X199889Y318417D01*
X199905Y318500D01*
X199798Y319038D01*
X199494Y319493D01*
X199038Y319798D01*
X198500Y319905D01*
X198498Y319905D01*
Y341866D01*
X200422D01*
X200202Y341538D01*
X200095Y341000D01*
X200202Y340462D01*
X200506Y340007D01*
X200962Y339702D01*
X201500Y339595D01*
X202038Y339702D01*
X202494Y340007D01*
X202798Y340462D01*
X202905Y341000D01*
X202888Y341083D01*
X203653Y341847D01*
X203682Y341890D01*
X204438D01*
X204202Y341538D01*
X204095Y341000D01*
X204202Y340462D01*
X204506Y340007D01*
X204962Y339702D01*
X205500Y339595D01*
X206038Y339702D01*
X206493Y340007D01*
X206798Y340462D01*
X206905Y341000D01*
X206798Y341538D01*
X206562Y341890D01*
X208323D01*
Y343859D01*
Y345827D01*
Y347796D01*
Y350355D01*
X207235D01*
X206941Y350551D01*
X206353Y351139D01*
X206155Y351435D01*
X202313Y355277D01*
X201727Y355669D01*
X201036Y355806D01*
X186806D01*
Y367599D01*
X186901Y367694D01*
X196500D01*
X197191Y367831D01*
X197777Y368223D01*
X214277Y384723D01*
X214669Y385309D01*
X214806Y386000D01*
X214669Y386691D01*
X214277Y387277D01*
X213691Y387669D01*
X213000Y387806D01*
X212309Y387669D01*
X211723Y387277D01*
X195752Y371306D01*
X186153D01*
X185462Y371169D01*
X184876Y370777D01*
X183723Y369624D01*
X183331Y369038D01*
X183194Y368347D01*
Y354000D01*
Y345000D01*
Y339248D01*
X167723Y323777D01*
X167331Y323191D01*
X167194Y322500D01*
Y306500D01*
X167331Y305809D01*
X167723Y305223D01*
X168309Y304831D01*
X169000Y304694D01*
X169691Y304831D01*
X170277Y305223D01*
X170669Y305809D01*
X170806Y306500D01*
Y321752D01*
X186277Y337223D01*
X186669Y337809D01*
X186806Y338500D01*
Y343332D01*
X188598D01*
X188611Y343264D01*
X187415Y342067D01*
X187409Y342059D01*
X187406Y342062D01*
X187161Y341695D01*
X187074Y341260D01*
X187078Y341260D01*
X187077Y341251D01*
Y300540D01*
X187006Y300493D01*
X186702Y300038D01*
X186595Y299500D01*
X186702Y298962D01*
X187006Y298507D01*
X187462Y298202D01*
X188000Y298095D01*
X188538Y298202D01*
X188994Y298507D01*
X189298Y298962D01*
X189405Y299500D01*
X189298Y300038D01*
X188994Y300493D01*
X188923Y300540D01*
Y340965D01*
X189917Y341958D01*
X190000Y341942D01*
X190538Y342049D01*
X190993Y342354D01*
X191298Y342809D01*
X191402Y343332D01*
X191575D01*
Y341773D01*
X191538Y341798D01*
X191000Y341905D01*
X190462Y341798D01*
X190006Y341493D01*
X189702Y341038D01*
X189595Y340500D01*
X189702Y339962D01*
X190006Y339507D01*
X190077Y339460D01*
Y302040D01*
X190006Y301993D01*
X189702Y301538D01*
X189595Y301000D01*
X189702Y300462D01*
X190006Y300007D01*
X190462Y299702D01*
X191000Y299595D01*
X191361Y299667D01*
X189583Y297888D01*
X189500Y297905D01*
X188962Y297798D01*
X188506Y297493D01*
X188202Y297038D01*
X188119Y296623D01*
X180590Y304153D01*
X180290Y304353D01*
X179937Y304423D01*
X179937Y304423D01*
X144036D01*
X144010Y304461D01*
X143554Y304766D01*
X143017Y304872D01*
X142479Y304766D01*
X142024Y304461D01*
X141719Y304005D01*
X141649Y303656D01*
X140423Y304882D01*
Y307000D01*
X140423Y307000D01*
X140353Y307353D01*
X140153Y307653D01*
X131388Y316417D01*
X131405Y316500D01*
X131334Y316856D01*
X136343Y311847D01*
X136643Y311647D01*
X136996Y311577D01*
X136996Y311577D01*
X143460D01*
X143507Y311507D01*
X143962Y311202D01*
X144500Y311095D01*
X145038Y311202D01*
X145493Y311507D01*
X145798Y311962D01*
X145905Y312500D01*
X145798Y313038D01*
X145493Y313493D01*
X145038Y313798D01*
X144500Y313905D01*
X143962Y313798D01*
X143507Y313493D01*
X143460Y313423D01*
X142869D01*
X142993Y313507D01*
X143298Y313962D01*
X143405Y314500D01*
X143298Y315038D01*
X142993Y315493D01*
X142538Y315798D01*
X142000Y315905D01*
X141787Y315863D01*
X123822Y333827D01*
X124308Y334460D01*
X124690Y335381D01*
X124820Y336370D01*
X124690Y337359D01*
X124308Y338280D01*
X123701Y339071D01*
X122910Y339678D01*
X121989Y340060D01*
X121000Y340190D01*
X120011Y340060D01*
X119090Y339678D01*
X118299Y339071D01*
X117692Y338280D01*
X117310Y337359D01*
X117180Y336370D01*
X117310Y335381D01*
X117692Y334460D01*
X118299Y333669D01*
X119090Y333062D01*
X120011Y332680D01*
X121000Y332550D01*
X121989Y332680D01*
X122250Y332788D01*
X140609Y314429D01*
X140702Y313962D01*
X141007Y313507D01*
X141131Y313423D01*
X137378D01*
X124268Y326534D01*
X124308Y326586D01*
X124690Y327507D01*
X124820Y328496D01*
X124690Y329485D01*
X124308Y330406D01*
X123701Y331197D01*
X122910Y331804D01*
X121989Y332186D01*
X121000Y332316D01*
X120011Y332186D01*
X119090Y331804D01*
X118299Y331197D01*
X117692Y330406D01*
X117310Y329485D01*
X117180Y328496D01*
X117310Y327507D01*
X117692Y326586D01*
X118299Y325795D01*
X119090Y325188D01*
X120011Y324806D01*
X121000Y324676D01*
X121989Y324806D01*
X122910Y325188D01*
X122962Y325228D01*
X130356Y317834D01*
X130000Y317905D01*
X129462Y317798D01*
X129007Y317493D01*
X128702Y317038D01*
X128595Y316500D01*
X128702Y315962D01*
X129007Y315507D01*
X129462Y315202D01*
X130000Y315095D01*
X130083Y315111D01*
X138577Y306618D01*
Y304500D01*
X138577Y304500D01*
X138614Y304314D01*
X124268Y318660D01*
X124308Y318712D01*
X124690Y319633D01*
X124820Y320622D01*
X124690Y321611D01*
X124308Y322532D01*
X123701Y323323D01*
X122910Y323930D01*
X121989Y324312D01*
X121000Y324442D01*
X120011Y324312D01*
X119090Y323930D01*
X118299Y323323D01*
X117692Y322532D01*
X117310Y321611D01*
X117180Y320622D01*
X117310Y319633D01*
X117692Y318712D01*
X118299Y317921D01*
X119090Y317314D01*
X120011Y316932D01*
X121000Y316802D01*
X121989Y316932D01*
X122910Y317314D01*
X122962Y317354D01*
X141393Y298923D01*
X136130D01*
X124268Y310786D01*
X124308Y310838D01*
X124690Y311759D01*
X124820Y312748D01*
X124690Y313737D01*
X124308Y314658D01*
X123701Y315449D01*
X122910Y316056D01*
X121989Y316438D01*
X121000Y316568D01*
X120011Y316438D01*
X119090Y316056D01*
X118299Y315449D01*
X117692Y314658D01*
X117310Y313737D01*
X117180Y312748D01*
X117310Y311759D01*
X117692Y310838D01*
X118299Y310047D01*
X119090Y309440D01*
X120011Y309058D01*
X121000Y308928D01*
X121989Y309058D01*
X122910Y309440D01*
X122962Y309480D01*
X135095Y297347D01*
X135395Y297147D01*
X135748Y297077D01*
X135748Y297077D01*
X176804D01*
X180719Y293162D01*
X178402D01*
Y288043D01*
X180651D01*
X182135Y286559D01*
X178394D01*
Y281441D01*
X182009D01*
X182527Y280923D01*
X177861D01*
X177508Y280853D01*
X177208Y280653D01*
X176473Y279917D01*
X172857D01*
Y274799D01*
X177582D01*
Y278415D01*
X178244Y279077D01*
X178369D01*
Y274799D01*
X183094D01*
Y276435D01*
X193885D01*
X194706Y275614D01*
X194690Y275532D01*
X194713Y275411D01*
X193488D01*
X193135Y275341D01*
X193015Y275261D01*
X192835Y275141D01*
X192835Y275141D01*
X184618Y266923D01*
X178952D01*
X179068Y267098D01*
X179175Y267635D01*
X179116Y267932D01*
X180199D01*
Y270204D01*
X178124D01*
Y268970D01*
X177770Y269040D01*
X177687Y269024D01*
X177555Y269156D01*
Y269259D01*
X177555Y269259D01*
X177549Y269289D01*
Y273263D01*
X172825D01*
Y271923D01*
X171341D01*
Y273488D01*
X167303D01*
X167405Y274000D01*
X167298Y274538D01*
X167158Y274748D01*
X168432D01*
Y276948D01*
X166344D01*
Y275336D01*
X166000Y275405D01*
X165917Y275389D01*
X165375Y275931D01*
Y279937D01*
X160625D01*
Y274960D01*
X163750D01*
X163781Y274913D01*
X164611Y274083D01*
X164595Y274000D01*
X164697Y273488D01*
X160659D01*
Y268512D01*
X164182D01*
X166571Y266123D01*
X159176D01*
X151347Y273952D01*
X151347Y273952D01*
X140712Y284587D01*
X140712Y284587D01*
X140416Y284883D01*
X140765Y285404D01*
X140894Y286055D01*
X140765Y286705D01*
X140396Y287257D01*
X140396Y287257D01*
X140396Y287257D01*
X139845Y287626D01*
X139279Y287738D01*
X139167Y288303D01*
X138798Y288855D01*
X138798Y288855D01*
X138798Y288855D01*
X138247Y289223D01*
X137596Y289353D01*
X136946Y289223D01*
X136424Y288875D01*
X123834Y301465D01*
X123834D01*
Y301465D01*
X123833Y301466D01*
X123829Y301469D01*
X123837Y301477D01*
X123466Y301725D01*
X123853Y302021D01*
X124494Y302857D01*
X124897Y303830D01*
X124969Y304374D01*
X121000D01*
Y304874D01*
X120500D01*
Y308843D01*
X119956Y308771D01*
X118983Y308368D01*
X118147Y307727D01*
X117506Y306891D01*
X117103Y305918D01*
X117063Y305615D01*
X117023Y305918D01*
X116620Y306891D01*
X115979Y307727D01*
X115143Y308368D01*
X114170Y308771D01*
X113626Y308843D01*
Y304874D01*
Y300905D01*
X114170Y300977D01*
X115143Y301380D01*
X115979Y302021D01*
X116620Y302857D01*
X117023Y303830D01*
X117063Y304133D01*
X117103Y303830D01*
X117506Y302857D01*
X118147Y302021D01*
X118865Y301471D01*
X116378Y298984D01*
X115827Y299701D01*
X115036Y300308D01*
X114115Y300690D01*
X113126Y300820D01*
X112137Y300690D01*
X111216Y300308D01*
X110425Y299701D01*
X109818Y298910D01*
X109436Y297989D01*
X109306Y297000D01*
X109436Y296011D01*
X109818Y295090D01*
X110425Y294299D01*
X111216Y293692D01*
X112137Y293310D01*
X113126Y293180D01*
X114115Y293310D01*
X115036Y293692D01*
X115827Y294299D01*
X116434Y295090D01*
X116816Y296011D01*
X116827Y296097D01*
X117063Y296144D01*
X117299Y296097D01*
X117310Y296011D01*
X117692Y295090D01*
X118299Y294299D01*
X119090Y293692D01*
X120011Y293310D01*
X121000Y293180D01*
X121989Y293310D01*
X122910Y293692D01*
X123701Y294299D01*
X124308Y295090D01*
X124690Y296011D01*
X124820Y297000D01*
X124773Y297358D01*
X135016Y287116D01*
X135016Y287116D01*
X135238Y286893D01*
X135238Y286893D01*
X135228Y286882D01*
X135779Y286514D01*
X135810Y286508D01*
X135775Y286455D01*
X135646Y285805D01*
X135775Y285154D01*
X136144Y284603D01*
X136144Y284603D01*
X136144Y284603D01*
X136695Y284234D01*
X137346Y284105D01*
X137996Y284234D01*
X138049Y284269D01*
X138055Y284238D01*
X138424Y283686D01*
X138434Y283697D01*
X139128Y283003D01*
X157978Y264154D01*
X158277Y263953D01*
X158631Y263883D01*
X158631Y263883D01*
X169500D01*
X169544Y263817D01*
X148746D01*
X140996Y271566D01*
X140996Y271566D01*
X140831Y271731D01*
X140831Y271731D01*
X139518Y273044D01*
X139754Y273397D01*
X139883Y274048D01*
X139754Y274698D01*
X139633Y274879D01*
X139632Y274882D01*
X139432Y275182D01*
X139432Y275182D01*
X139379Y275235D01*
X139389Y275244D01*
X139385Y275250D01*
X139385Y275250D01*
X139380Y275254D01*
X139370Y275244D01*
X139317Y275297D01*
X139017Y275497D01*
X139014Y275498D01*
X138834Y275619D01*
X138268Y275731D01*
X138156Y276296D01*
X138035Y276477D01*
X138034Y276480D01*
X137834Y276780D01*
X137834Y276780D01*
X137781Y276833D01*
X137791Y276842D01*
X137787Y276848D01*
X137787Y276848D01*
X137782Y276852D01*
X137772Y276842D01*
X137719Y276895D01*
X137419Y277095D01*
X137416Y277096D01*
X137236Y277217D01*
X136670Y277329D01*
X136558Y277894D01*
X136437Y278075D01*
X136437Y278078D01*
X136236Y278378D01*
X136236Y278378D01*
X136183Y278431D01*
X136193Y278440D01*
X136189Y278446D01*
X136189Y278446D01*
X136184Y278450D01*
X136174Y278440D01*
X136121Y278493D01*
X135822Y278693D01*
X135818Y278694D01*
X135638Y278815D01*
X134987Y278944D01*
X134337Y278815D01*
X133984Y278579D01*
X126516Y286047D01*
X126216Y286247D01*
X125863Y286317D01*
X125863Y286317D01*
X123886D01*
X124494Y287109D01*
X124897Y288082D01*
X124969Y288626D01*
X121000D01*
Y289126D01*
X120500D01*
Y293095D01*
X119956Y293023D01*
X118983Y292620D01*
X118147Y291979D01*
X117506Y291143D01*
X117103Y290170D01*
X117063Y289867D01*
X117023Y290170D01*
X116620Y291143D01*
X115979Y291979D01*
X115143Y292620D01*
X114170Y293023D01*
X113626Y293095D01*
Y289126D01*
Y285157D01*
X114170Y285229D01*
X115143Y285632D01*
X115979Y286273D01*
X116620Y287109D01*
X117023Y288082D01*
X117063Y288385D01*
X117103Y288082D01*
X117506Y287109D01*
X118147Y286273D01*
X118865Y285723D01*
X116378Y283236D01*
X115827Y283953D01*
X115036Y284560D01*
X114115Y284942D01*
X113126Y285072D01*
X112137Y284942D01*
X111216Y284560D01*
X110425Y283953D01*
X109818Y283162D01*
X109436Y282241D01*
X109306Y281252D01*
X109436Y280263D01*
X109818Y279342D01*
X110425Y278551D01*
X111216Y277944D01*
X112137Y277562D01*
X113126Y277432D01*
X114115Y277562D01*
X115036Y277944D01*
X115827Y278551D01*
X116434Y279342D01*
X116816Y280263D01*
X116827Y280349D01*
X117063Y280396D01*
X117299Y280349D01*
X117310Y280263D01*
X117692Y279342D01*
X118299Y278551D01*
X119090Y277944D01*
X120011Y277562D01*
X121000Y277432D01*
X121989Y277562D01*
X122910Y277944D01*
X123701Y278551D01*
X124308Y279342D01*
X124690Y280263D01*
X124820Y281252D01*
X124690Y282241D01*
X124308Y283162D01*
X123701Y283953D01*
X123540Y284077D01*
X125318D01*
X132547Y276847D01*
X132547Y276847D01*
X132712Y276682D01*
X132712Y276682D01*
X132770Y276624D01*
X132770Y276624D01*
X132759Y276614D01*
X133311Y276245D01*
X133483Y276211D01*
X133391Y275749D01*
X133520Y275099D01*
X133889Y274547D01*
X133889Y274547D01*
D01*
X134440Y274179D01*
X135005Y274066D01*
X135118Y273501D01*
X135486Y272949D01*
X135486Y272949D01*
X136038Y272581D01*
X136689Y272451D01*
X137151Y272543D01*
X137185Y272372D01*
X137553Y271820D01*
X137564Y271831D01*
X137564Y271831D01*
X139247Y270147D01*
X139247Y270147D01*
X139247Y270147D01*
X139412Y269982D01*
X139412Y269982D01*
X147547Y261847D01*
X147547Y261847D01*
X147727Y261727D01*
X147742Y261717D01*
X142148D01*
Y261730D01*
X141821Y261665D01*
X141765Y261947D01*
X141418Y262466D01*
X140900Y262812D01*
X140288Y262934D01*
Y262921D01*
X140288D01*
Y262934D01*
X139677Y262812D01*
X139358Y262599D01*
X139040Y262812D01*
X138429Y262934D01*
Y262921D01*
X138429D01*
Y262934D01*
X137817Y262812D01*
X137499Y262599D01*
X137180Y262812D01*
X136569Y262934D01*
Y262921D01*
X136569D01*
Y262934D01*
X135957Y262812D01*
X135439Y262466D01*
X135302Y262261D01*
X127416Y270146D01*
X127116Y270347D01*
X126763Y270417D01*
X126763Y270417D01*
X123712D01*
X123853Y270525D01*
X124494Y271361D01*
X124897Y272334D01*
X124969Y272878D01*
X121000D01*
Y273378D01*
X120500D01*
Y277347D01*
X119956Y277275D01*
X118983Y276872D01*
X118147Y276231D01*
X117506Y275395D01*
X117103Y274422D01*
X117063Y274119D01*
X117023Y274422D01*
X116620Y275395D01*
X115979Y276231D01*
X115143Y276872D01*
X114170Y277275D01*
X113626Y277347D01*
Y273378D01*
Y269409D01*
X114170Y269481D01*
X115143Y269884D01*
X115979Y270525D01*
X116620Y271361D01*
X117023Y272334D01*
X117063Y272637D01*
X117103Y272334D01*
X117506Y271361D01*
X118147Y270525D01*
X118865Y269975D01*
X116378Y267488D01*
X115827Y268205D01*
X115036Y268812D01*
X114115Y269194D01*
X113126Y269324D01*
X112137Y269194D01*
X111216Y268812D01*
X110425Y268205D01*
X109818Y267414D01*
X109436Y266493D01*
X109306Y265504D01*
X109436Y264515D01*
X109818Y263594D01*
X110425Y262803D01*
X111216Y262196D01*
X112137Y261814D01*
X113126Y261684D01*
X114115Y261814D01*
X115036Y262196D01*
X115827Y262803D01*
X116434Y263594D01*
X116816Y264515D01*
X116827Y264601D01*
X117063Y264648D01*
X117299Y264601D01*
X117310Y264515D01*
X117692Y263594D01*
X118299Y262803D01*
X119090Y262196D01*
X120011Y261814D01*
X121000Y261684D01*
X121989Y261814D01*
X122910Y262196D01*
X123701Y262803D01*
X124308Y263594D01*
X124690Y264515D01*
X124820Y265504D01*
X124690Y266493D01*
X124308Y267414D01*
X123723Y268177D01*
X126218D01*
X134647Y259747D01*
X134647Y259747D01*
X134947Y259547D01*
X135300Y259477D01*
X135300Y259477D01*
X135639D01*
Y259464D01*
X135952Y259526D01*
X136022Y259174D01*
X136369Y258656D01*
X136887Y258310D01*
X137499Y258188D01*
Y258201D01*
X137499D01*
Y258188D01*
X138110Y258310D01*
X138429Y258522D01*
X138747Y258310D01*
X139358Y258188D01*
Y258201D01*
X139358D01*
Y258188D01*
X139970Y258310D01*
X140288Y258522D01*
X140607Y258310D01*
X141218Y258188D01*
Y258201D01*
X141218D01*
Y258188D01*
X141830Y258310D01*
X142348Y258656D01*
X142695Y259174D01*
X142755Y259477D01*
X152308D01*
X152456Y259256D01*
X152844Y258997D01*
X153302Y258906D01*
X153760Y258997D01*
X153838Y259049D01*
X153916Y258997D01*
X154374Y258906D01*
X154832Y258997D01*
X154911Y259049D01*
X154989Y258997D01*
X155447Y258906D01*
X155905Y258997D01*
X156293Y259256D01*
X156440Y259477D01*
X189885D01*
X185239Y254830D01*
X147285D01*
Y254845D01*
X146634Y254716D01*
X146489Y254619D01*
X146227Y255011D01*
X145676Y255379D01*
X145025Y255509D01*
X144375Y255379D01*
X143895Y255059D01*
X143416Y255379D01*
X142765Y255509D01*
X142115Y255379D01*
X141635Y255059D01*
X141156Y255379D01*
X140506Y255509D01*
X139855Y255379D01*
X139303Y255011D01*
X139041Y254619D01*
X138896Y254716D01*
X138246Y254845D01*
Y254830D01*
X128737D01*
X128737Y254830D01*
X128734Y254830D01*
X128734Y254842D01*
X128668Y254829D01*
X128667Y254829D01*
X128433Y254818D01*
Y254908D01*
X128387Y254890D01*
X128392Y254817D01*
X123883D01*
X124494Y255613D01*
X124897Y256586D01*
X124969Y257130D01*
X121000D01*
Y257630D01*
X120500D01*
Y261599D01*
X119956Y261527D01*
X118983Y261124D01*
X118147Y260483D01*
X117506Y259647D01*
X117103Y258674D01*
X117063Y258371D01*
X117023Y258674D01*
X116620Y259647D01*
X115979Y260483D01*
X115143Y261124D01*
X114170Y261527D01*
X113626Y261599D01*
Y257630D01*
Y253661D01*
X114170Y253733D01*
X115143Y254136D01*
X115979Y254777D01*
X116620Y255613D01*
X117023Y256586D01*
X117063Y256889D01*
X117103Y256586D01*
X117506Y255613D01*
X118147Y254777D01*
X118865Y254227D01*
X116378Y251740D01*
X115827Y252457D01*
X115036Y253064D01*
X114115Y253446D01*
X113126Y253576D01*
X112137Y253446D01*
X111216Y253064D01*
X110425Y252457D01*
X109818Y251666D01*
X109436Y250745D01*
X109306Y249756D01*
X109436Y248767D01*
X109818Y247846D01*
X110425Y247055D01*
X111216Y246448D01*
X112137Y246066D01*
X113126Y245936D01*
X114115Y246066D01*
X115036Y246448D01*
X115827Y247055D01*
X116434Y247846D01*
X116816Y248767D01*
X116827Y248853D01*
X117063Y248900D01*
X117299Y248853D01*
X117310Y248767D01*
X117692Y247846D01*
X118299Y247055D01*
X119090Y246448D01*
X120011Y246066D01*
X121000Y245936D01*
X121989Y246066D01*
X122910Y246448D01*
X123701Y247055D01*
X124308Y247846D01*
X124690Y248767D01*
X124820Y249756D01*
X124690Y250745D01*
X124308Y251666D01*
X123701Y252457D01*
X123546Y252577D01*
X128545D01*
Y252572D01*
X128603Y252584D01*
X128633Y252580D01*
X128746Y252589D01*
X128746Y252502D01*
X128797Y252522D01*
X128792Y252590D01*
X137763D01*
X137805Y252380D01*
X138173Y251829D01*
X138725Y251461D01*
X139375Y251331D01*
X140026Y251461D01*
X140506Y251781D01*
X140985Y251461D01*
X141635Y251331D01*
X142286Y251461D01*
X142765Y251781D01*
X143245Y251461D01*
X143895Y251331D01*
X144546Y251461D01*
X145025Y251781D01*
X145504Y251461D01*
X146155Y251331D01*
X146806Y251461D01*
X147357Y251829D01*
X147726Y252380D01*
X147767Y252590D01*
X153802D01*
X153813Y252537D01*
X154072Y252149D01*
X154460Y251890D01*
X154918Y251799D01*
X155376Y251890D01*
X155455Y251942D01*
X155533Y251890D01*
X155991Y251799D01*
X156449Y251890D01*
X156837Y252149D01*
X157096Y252537D01*
X157107Y252590D01*
X185523D01*
Y252578D01*
X185773Y252628D01*
X171463Y238317D01*
X125389D01*
X125297Y238409D01*
X124997Y238609D01*
X124644Y238679D01*
X124644Y238679D01*
X123397D01*
X123853Y239029D01*
X124494Y239865D01*
X124897Y240838D01*
X124969Y241382D01*
X121000D01*
Y241882D01*
X120500D01*
Y245851D01*
X119956Y245779D01*
X118983Y245376D01*
X118147Y244735D01*
X117506Y243899D01*
X117103Y242926D01*
X117063Y242623D01*
X117023Y242926D01*
X116620Y243899D01*
X115979Y244735D01*
X115143Y245376D01*
X114170Y245779D01*
X113626Y245851D01*
Y241882D01*
Y237913D01*
X114170Y237985D01*
X115143Y238388D01*
X115979Y239029D01*
X116620Y239865D01*
X117023Y240838D01*
X117063Y241141D01*
X117103Y240838D01*
X117506Y239865D01*
X118147Y239029D01*
X118603Y238679D01*
X117718D01*
X117718Y238679D01*
X117365Y238609D01*
X117065Y238409D01*
X117065Y238409D01*
X116213Y237557D01*
X116013Y237258D01*
X115943Y236904D01*
X115943Y236904D01*
Y236559D01*
X115827Y236709D01*
X115036Y237316D01*
X114115Y237698D01*
X113126Y237828D01*
X112137Y237698D01*
X111216Y237316D01*
X110425Y236709D01*
X109818Y235918D01*
X109436Y234997D01*
X109306Y234008D01*
X109436Y233019D01*
X109818Y232098D01*
X110425Y231307D01*
X111216Y230700D01*
X112137Y230318D01*
X113126Y230188D01*
X114115Y230318D01*
X115036Y230700D01*
X115827Y231307D01*
X116434Y232098D01*
X116816Y233019D01*
X116827Y233105D01*
X117063Y233152D01*
X117213Y233122D01*
Y230221D01*
X124787D01*
Y236088D01*
X124843Y236077D01*
X137190D01*
X137191Y236075D01*
X137472Y235653D01*
X137894Y235372D01*
X138391Y235273D01*
X138888Y235372D01*
X139127Y235532D01*
X139366Y235372D01*
X139863Y235273D01*
X140360Y235372D01*
X140781Y235653D01*
X141063Y236075D01*
X141063Y236077D01*
X172008D01*
X172008Y236077D01*
X172362Y236147D01*
X172661Y236347D01*
X206363Y270049D01*
X206363Y270049D01*
X206366Y270054D01*
X206366Y270054D01*
X206369Y270051D01*
X206581Y270367D01*
X206921Y270595D01*
X207368Y270297D01*
X207770Y270217D01*
Y270011D01*
X207757D01*
X207757Y270011D01*
X207876Y269412D01*
X208206Y268919D01*
X208214Y268927D01*
X208220Y268918D01*
X239676Y237462D01*
X239681Y237458D01*
X239673Y237450D01*
X240172Y237117D01*
X240771Y236998D01*
X240771Y236998D01*
Y237010D01*
X283316D01*
X282925Y236709D01*
X282318Y235918D01*
X281936Y234997D01*
X281806Y234008D01*
X281936Y233019D01*
X282318Y232098D01*
X282925Y231307D01*
X283716Y230700D01*
X284637Y230318D01*
X285626Y230188D01*
X286615Y230318D01*
X287536Y230700D01*
X288327Y231307D01*
X288934Y232098D01*
X289316Y233019D01*
X289446Y234008D01*
X289316Y234997D01*
X289126Y235455D01*
X289494Y235823D01*
X289713Y235677D01*
Y230221D01*
X297287D01*
Y237795D01*
X290107D01*
X289967Y237935D01*
X289967Y237935D01*
X289107Y238795D01*
X289107Y238795D01*
X289107D01*
X289116Y238804D01*
X288608Y239143D01*
X288572Y239150D01*
X289120Y239865D01*
X289523Y240838D01*
X289563Y241141D01*
X289603Y240838D01*
X290006Y239865D01*
X290647Y239029D01*
X291483Y238388D01*
X292456Y237985D01*
X293000Y237913D01*
Y241882D01*
Y245851D01*
X292456Y245779D01*
X291483Y245376D01*
X290647Y244735D01*
X290006Y243899D01*
X289603Y242926D01*
X289563Y242623D01*
X289523Y242926D01*
X289120Y243899D01*
X288479Y244735D01*
X287643Y245376D01*
X286670Y245779D01*
X286126Y245851D01*
Y241882D01*
X285626D01*
Y241382D01*
X281657D01*
X281729Y240838D01*
X282132Y239865D01*
X282604Y239250D01*
X241056D01*
X210076Y270230D01*
X210412Y270297D01*
X210868Y270601D01*
X211108Y270960D01*
X228855Y253212D01*
X228859Y253210D01*
X228851Y253202D01*
X229352Y252867D01*
X229952Y252748D01*
X229952D01*
Y252760D01*
X259130D01*
Y252745D01*
X259695Y252857D01*
X259819Y252230D01*
X260188Y251678D01*
X260739Y251310D01*
X261390Y251180D01*
X262040Y251310D01*
X262592Y251678D01*
X262961Y252230D01*
X263085Y252857D01*
X263650Y252745D01*
Y252760D01*
X283319D01*
X282925Y252457D01*
X282318Y251666D01*
X281936Y250745D01*
X281806Y249756D01*
X281936Y248767D01*
X282318Y247846D01*
X282925Y247055D01*
X283716Y246448D01*
X284637Y246066D01*
X285626Y245936D01*
X286615Y246066D01*
X287536Y246448D01*
X288327Y247055D01*
X288934Y247846D01*
X289316Y248767D01*
X289446Y249756D01*
X289316Y250745D01*
X289199Y251027D01*
X289563Y251391D01*
X289927Y251027D01*
X289810Y250745D01*
X289680Y249756D01*
X289810Y248767D01*
X290192Y247846D01*
X290799Y247055D01*
X291590Y246448D01*
X292511Y246066D01*
X293500Y245936D01*
X294489Y246066D01*
X295410Y246448D01*
X296201Y247055D01*
X296808Y247846D01*
X297190Y248767D01*
X297320Y249756D01*
X297190Y250745D01*
X296808Y251666D01*
X296201Y252457D01*
X295410Y253064D01*
X294489Y253446D01*
X293500Y253576D01*
X292511Y253446D01*
X291590Y253064D01*
X290974Y252592D01*
X290388Y253177D01*
X290111Y253481D01*
X290111Y253481D01*
X290078Y253530D01*
X290070Y253522D01*
X290069Y253523D01*
X290066Y253528D01*
X290066Y253528D01*
X289046Y254548D01*
X289046Y254548D01*
X289041Y254551D01*
X289040Y254552D01*
X289048Y254560D01*
X288562Y254885D01*
X289120Y255613D01*
X289523Y256586D01*
X289563Y256889D01*
X289603Y256586D01*
X290006Y255613D01*
X290647Y254777D01*
X291483Y254136D01*
X292456Y253733D01*
X293000Y253661D01*
Y257630D01*
Y261599D01*
X292456Y261527D01*
X291483Y261124D01*
X290647Y260483D01*
X290006Y259647D01*
X289603Y258674D01*
X289563Y258371D01*
X289523Y258674D01*
X289120Y259647D01*
X288479Y260483D01*
X287643Y261124D01*
X286670Y261527D01*
X286126Y261599D01*
Y257630D01*
X285626D01*
Y257130D01*
X281657D01*
X281729Y256586D01*
X282132Y255613D01*
X282602Y255000D01*
X272352D01*
X272289Y255315D01*
X271952Y255819D01*
X271448Y256156D01*
X270854Y256274D01*
X270259Y256156D01*
X269755Y255819D01*
X269418Y255315D01*
X269356Y255000D01*
X264141D01*
X264090Y255254D01*
X263722Y255806D01*
X263171Y256174D01*
X262520Y256304D01*
X261869Y256174D01*
X261390Y255854D01*
X260911Y256174D01*
X260260Y256304D01*
X259610Y256174D01*
X259058Y255806D01*
X258689Y255254D01*
X258639Y255000D01*
X230236D01*
X217159Y268077D01*
X253294D01*
Y268047D01*
X254237Y268235D01*
X255037Y268769D01*
X255571Y269569D01*
X255759Y270512D01*
X255729D01*
Y270908D01*
X255748D01*
X255799Y271033D01*
X255924Y271084D01*
X256048Y271033D01*
X256100Y270908D01*
X256119D01*
Y268592D01*
X256089D01*
X256277Y267649D01*
X256811Y266849D01*
X257611Y266315D01*
X258554Y266127D01*
X259497Y266315D01*
X260297Y266849D01*
X260831Y267649D01*
X261018Y268592D01*
X260989D01*
Y270908D01*
X261008D01*
X261059Y271033D01*
X261184Y271084D01*
X261308Y271033D01*
X261360Y270908D01*
X261379D01*
Y270512D01*
X261349D01*
X261537Y269569D01*
X262071Y268769D01*
X262870Y268235D01*
X263814Y268047D01*
Y268077D01*
X282826D01*
X282318Y267414D01*
X281936Y266493D01*
X281806Y265504D01*
X281936Y264515D01*
X282318Y263594D01*
X282925Y262803D01*
X283716Y262196D01*
X284637Y261814D01*
X285626Y261684D01*
X286615Y261814D01*
X287536Y262196D01*
X288327Y262803D01*
X288934Y263594D01*
X289316Y264515D01*
X289327Y264601D01*
X289563Y264648D01*
X289799Y264601D01*
X289810Y264515D01*
X290192Y263594D01*
X290799Y262803D01*
X291590Y262196D01*
X292511Y261814D01*
X293500Y261684D01*
X294489Y261814D01*
X295410Y262196D01*
X296201Y262803D01*
X296808Y263594D01*
X297190Y264515D01*
X297320Y265504D01*
X297190Y266493D01*
X296808Y267414D01*
X296201Y268205D01*
X295410Y268812D01*
X294489Y269194D01*
X293500Y269324D01*
X292511Y269194D01*
X291590Y268812D01*
X290799Y268205D01*
X290248Y267488D01*
X287761Y269975D01*
X288479Y270525D01*
X289120Y271361D01*
X289523Y272334D01*
X289563Y272637D01*
X289603Y272334D01*
X290006Y271361D01*
X290647Y270525D01*
X291483Y269884D01*
X292456Y269481D01*
X293000Y269409D01*
Y273378D01*
Y277347D01*
X292456Y277275D01*
X291483Y276872D01*
X290647Y276231D01*
X290006Y275395D01*
X289603Y274422D01*
X289563Y274119D01*
X289523Y274422D01*
X289120Y275395D01*
X288479Y276231D01*
X287643Y276872D01*
X286670Y277275D01*
X286126Y277347D01*
Y273378D01*
X285626D01*
Y272878D01*
X281657D01*
X281729Y272334D01*
X282132Y271361D01*
X282773Y270525D01*
X283045Y270317D01*
X274725D01*
X274671Y270585D01*
X274412Y270973D01*
X274024Y271233D01*
X273566Y271324D01*
X273108Y271233D01*
X272720Y270973D01*
X272460Y270585D01*
X272407Y270317D01*
X263814D01*
Y270336D01*
X263689Y270387D01*
X263638Y270512D01*
X263619D01*
Y270908D01*
X263648D01*
X263461Y271852D01*
X262927Y272651D01*
X262127Y273185D01*
X261184Y273373D01*
X260241Y273185D01*
X259441Y272651D01*
X258907Y271852D01*
X258719Y270908D01*
X258749D01*
Y268592D01*
X258730D01*
X258678Y268467D01*
X258554Y268416D01*
X258429Y268467D01*
X258378Y268592D01*
X258359D01*
Y270908D01*
X258388D01*
X258201Y271852D01*
X257667Y272651D01*
X256867Y273185D01*
X255924Y273373D01*
X254981Y273185D01*
X254181Y272651D01*
X253647Y271852D01*
X253459Y270908D01*
X253489D01*
Y270512D01*
X253470D01*
X253418Y270387D01*
X253294Y270336D01*
Y270317D01*
X217045D01*
X212009Y275353D01*
X212009Y275353D01*
X212004Y275357D01*
X212004Y275357D01*
X212012Y275365D01*
X211760Y275533D01*
X233151D01*
Y275518D01*
X233755Y275639D01*
X233840Y275210D01*
X234209Y274659D01*
X234760Y274290D01*
X235411Y274161D01*
X236061Y274290D01*
X236541Y274611D01*
X237020Y274290D01*
X237671Y274161D01*
X238321Y274290D01*
X238873Y274659D01*
X239241Y275210D01*
X239305Y275533D01*
X273253D01*
Y275521D01*
X273253D01*
X273852Y275640D01*
X274353Y275975D01*
X274345Y275984D01*
X274348Y275986D01*
X282439Y284077D01*
X283086D01*
X282925Y283953D01*
X282318Y283162D01*
X281936Y282241D01*
X281806Y281252D01*
X281936Y280263D01*
X282318Y279342D01*
X282925Y278551D01*
X283716Y277944D01*
X284637Y277562D01*
X285626Y277432D01*
X286615Y277562D01*
X287536Y277944D01*
X288327Y278551D01*
X288934Y279342D01*
X289316Y280263D01*
X289327Y280349D01*
X289563Y280396D01*
X289799Y280349D01*
X289810Y280263D01*
X290192Y279342D01*
X290799Y278551D01*
X291590Y277944D01*
X292511Y277562D01*
X293500Y277432D01*
X294489Y277562D01*
X295410Y277944D01*
X296201Y278551D01*
X296808Y279342D01*
X297190Y280263D01*
X297320Y281252D01*
X297190Y282241D01*
X296808Y283162D01*
X296201Y283953D01*
X295410Y284560D01*
X294489Y284942D01*
X293500Y285072D01*
X292511Y284942D01*
X291590Y284560D01*
X290799Y283953D01*
X290248Y283236D01*
X287761Y285723D01*
X288479Y286273D01*
X289120Y287109D01*
X289523Y288082D01*
X289563Y288385D01*
X289603Y288082D01*
X290006Y287109D01*
X290647Y286273D01*
X291483Y285632D01*
X292456Y285229D01*
X293000Y285157D01*
Y289126D01*
Y293095D01*
X292456Y293023D01*
X291483Y292620D01*
X290647Y291979D01*
X290006Y291143D01*
X289603Y290170D01*
X289563Y289867D01*
X289523Y290170D01*
X289120Y291143D01*
X288479Y291979D01*
X287643Y292620D01*
X286670Y293023D01*
X286126Y293095D01*
Y289126D01*
X285626D01*
Y288626D01*
X281657D01*
X281729Y288082D01*
X282132Y287109D01*
X282740Y286317D01*
X282155D01*
Y286329D01*
X281556Y286210D01*
X281054Y285875D01*
X281063Y285867D01*
X281059Y285864D01*
X281059Y285864D01*
X272968Y277774D01*
X266705D01*
X266656Y278020D01*
X266374Y278441D01*
X265953Y278722D01*
X265456Y278821D01*
X264959Y278722D01*
X264538Y278441D01*
X264257Y278020D01*
X264208Y277774D01*
X238801D01*
Y277789D01*
X238226Y277674D01*
Y277928D01*
X238241D01*
X238111Y278578D01*
X237743Y279130D01*
X237504Y279289D01*
X245315D01*
Y279274D01*
X245966Y279404D01*
X246165Y279537D01*
X246373Y279226D01*
X246924Y278857D01*
X247575Y278728D01*
X248225Y278857D01*
X248777Y279226D01*
X248985Y279537D01*
X249184Y279404D01*
X249835Y279274D01*
Y279289D01*
X261051D01*
X261050Y279200D01*
X261056Y279198D01*
Y279289D01*
X261057Y279289D01*
X261058Y279289D01*
X261063D01*
X261066Y279290D01*
X261066Y279260D01*
X262028Y279451D01*
X262838Y279992D01*
X262817Y280013D01*
X262821Y280016D01*
X282382Y299577D01*
X282829D01*
X282318Y298910D01*
X281936Y297989D01*
X281806Y297000D01*
X281936Y296011D01*
X282318Y295090D01*
X282925Y294299D01*
X283716Y293692D01*
X284637Y293310D01*
X285626Y293180D01*
X286615Y293310D01*
X287536Y293692D01*
X288327Y294299D01*
X288934Y295090D01*
X289316Y296011D01*
X289327Y296097D01*
X289563Y296144D01*
X289799Y296097D01*
X289810Y296011D01*
X290192Y295090D01*
X290799Y294299D01*
X291590Y293692D01*
X292511Y293310D01*
X293500Y293180D01*
X294489Y293310D01*
X295410Y293692D01*
X296201Y294299D01*
X296808Y295090D01*
X297190Y296011D01*
X297320Y297000D01*
X297190Y297989D01*
X296808Y298910D01*
X296201Y299701D01*
X295410Y300308D01*
X294489Y300690D01*
X293500Y300820D01*
X292511Y300690D01*
X291590Y300308D01*
X290799Y299701D01*
X290248Y298984D01*
X287686Y301547D01*
X287592Y301609D01*
X288327Y302173D01*
X288934Y302964D01*
X289316Y303885D01*
X289402Y304542D01*
X289631Y304313D01*
X289631Y304313D01*
X289766Y304223D01*
X289810Y303885D01*
X290192Y302964D01*
X290799Y302173D01*
X291590Y301566D01*
X292511Y301184D01*
X293500Y301054D01*
X294489Y301184D01*
X295410Y301566D01*
X296201Y302173D01*
X296808Y302964D01*
X297190Y303885D01*
X297320Y304874D01*
X297190Y305863D01*
X296808Y306784D01*
X296201Y307575D01*
X295410Y308182D01*
X294489Y308564D01*
X293500Y308694D01*
X292511Y308564D01*
X291590Y308182D01*
X290799Y307575D01*
X290192Y306784D01*
X290069Y306487D01*
X288479Y308077D01*
X288902D01*
Y308072D01*
X289348Y308161D01*
X289725Y308413D01*
X289722Y308416D01*
X291112Y309806D01*
X291590Y309440D01*
X292511Y309058D01*
X293500Y308928D01*
X294489Y309058D01*
X295410Y309440D01*
X296201Y310047D01*
X296808Y310838D01*
X297190Y311759D01*
X297320Y312748D01*
X297190Y313737D01*
X296808Y314658D01*
X296201Y315449D01*
X295410Y316056D01*
X294489Y316438D01*
X293500Y316568D01*
X292511Y316438D01*
X291590Y316056D01*
X290799Y315449D01*
X290192Y314658D01*
X289810Y313737D01*
X289680Y312748D01*
X289810Y311759D01*
X289999Y311304D01*
X288618Y309923D01*
X288166D01*
X288327Y310047D01*
X288934Y310838D01*
X289316Y311759D01*
X289446Y312748D01*
X289316Y313737D01*
X288934Y314658D01*
X288327Y315449D01*
X288161Y315577D01*
X289378D01*
X289378Y315577D01*
X289731Y315647D01*
X290031Y315847D01*
X291538Y317354D01*
X291590Y317314D01*
X292511Y316932D01*
X293500Y316802D01*
X294489Y316932D01*
X295410Y317314D01*
X296201Y317921D01*
X296808Y318712D01*
X297190Y319633D01*
X297320Y320622D01*
X297190Y321611D01*
X296808Y322532D01*
X296201Y323323D01*
X295410Y323930D01*
X294489Y324312D01*
X293500Y324442D01*
X292511Y324312D01*
X291590Y323930D01*
X290799Y323323D01*
X290192Y322532D01*
X289810Y321611D01*
X289680Y320622D01*
X289810Y319633D01*
X290192Y318712D01*
X290232Y318660D01*
X288996Y317423D01*
X287679D01*
X288327Y317921D01*
X288934Y318712D01*
X289316Y319633D01*
X289446Y320622D01*
X289316Y321611D01*
X288934Y322532D01*
X288516Y323077D01*
X289004D01*
X289004Y323077D01*
X289357Y323147D01*
X289657Y323347D01*
X291538Y325228D01*
X291590Y325188D01*
X292511Y324806D01*
X293500Y324676D01*
X294489Y324806D01*
X295410Y325188D01*
X296201Y325795D01*
X296808Y326586D01*
X297190Y327507D01*
X297320Y328496D01*
X297190Y329485D01*
X296808Y330406D01*
X296201Y331197D01*
X295410Y331804D01*
X294489Y332186D01*
X293500Y332316D01*
X292511Y332186D01*
X291590Y331804D01*
X290799Y331197D01*
X290192Y330406D01*
X289810Y329485D01*
X289680Y328496D01*
X289810Y327507D01*
X290192Y326586D01*
X290232Y326534D01*
X288622Y324923D01*
X286897D01*
X287536Y325188D01*
X288327Y325795D01*
X288934Y326586D01*
X289316Y327507D01*
X289446Y328496D01*
X289316Y329485D01*
X288934Y330406D01*
X288420Y331077D01*
X289130D01*
X289130Y331077D01*
X289483Y331147D01*
X289783Y331347D01*
X291538Y333102D01*
X291590Y333062D01*
X292511Y332680D01*
X293500Y332550D01*
X294489Y332680D01*
X295410Y333062D01*
X296201Y333669D01*
X296808Y334460D01*
X297190Y335381D01*
X297320Y336370D01*
X297190Y337359D01*
X296808Y338280D01*
X296201Y339071D01*
X295410Y339678D01*
X294489Y340060D01*
X293500Y340190D01*
X292511Y340060D01*
X291590Y339678D01*
X290799Y339071D01*
X290192Y338280D01*
X289810Y337359D01*
X289680Y336370D01*
X289810Y335381D01*
X290192Y334460D01*
X290232Y334408D01*
X288748Y332923D01*
X287201D01*
X287536Y333062D01*
X288327Y333669D01*
X288934Y334460D01*
X289316Y335381D01*
X289446Y336370D01*
X289316Y337359D01*
X288934Y338280D01*
X288437Y338928D01*
Y341687D01*
X288934Y342334D01*
X289316Y343255D01*
X289446Y344244D01*
X289316Y345233D01*
X288934Y346154D01*
X288585Y346609D01*
X289854Y345340D01*
X289810Y345233D01*
X289680Y344244D01*
X289810Y343255D01*
X290192Y342334D01*
X290799Y341543D01*
X291590Y340936D01*
X292511Y340554D01*
X293500Y340424D01*
X294489Y340554D01*
X295410Y340936D01*
X296201Y341543D01*
X296808Y342334D01*
X297190Y343255D01*
X297320Y344244D01*
X297190Y345233D01*
X296808Y346154D01*
X296201Y346945D01*
X295410Y347552D01*
X294489Y347934D01*
X293500Y348064D01*
X292511Y347934D01*
X291590Y347552D01*
X290834Y346972D01*
X289121Y348684D01*
X288822Y348885D01*
X288469Y348955D01*
X288468Y348955D01*
X288074D01*
X288479Y349265D01*
X289120Y350101D01*
X289523Y351074D01*
X289595Y351618D01*
X285626D01*
X281657D01*
X281729Y351074D01*
X282132Y350101D01*
X282773Y349265D01*
X283178Y348955D01*
X280532D01*
X280532Y348955D01*
X280178Y348885D01*
X279879Y348684D01*
X267583Y336388D01*
X267500Y336405D01*
X266962Y336298D01*
X266507Y335993D01*
X266202Y335538D01*
X266095Y335000D01*
X266202Y334462D01*
X266507Y334007D01*
X266962Y333702D01*
X267500Y333595D01*
X268038Y333702D01*
X268493Y334007D01*
X268798Y334462D01*
X268905Y335000D01*
X268888Y335083D01*
X280914Y347108D01*
X283137D01*
X282925Y346945D01*
X282318Y346154D01*
X281936Y345233D01*
X281806Y344244D01*
X281936Y343255D01*
X282318Y342334D01*
X282815Y341687D01*
Y339181D01*
X274870D01*
X274870Y339181D01*
X274142Y339086D01*
X273464Y338805D01*
X272882Y338358D01*
X272882Y338358D01*
X258684Y324160D01*
X258681Y324162D01*
X258297Y323905D01*
X257843Y323815D01*
Y323812D01*
X234439D01*
Y323815D01*
X233985Y323905D01*
X233600Y324162D01*
X233598Y324160D01*
X233598Y324160D01*
X229376Y328382D01*
Y330613D01*
X233664Y334901D01*
X236804D01*
X237599Y335059D01*
X238273Y335509D01*
X241559Y338796D01*
X241559Y338796D01*
X241860Y339246D01*
X242010Y339470D01*
X242168Y340265D01*
X242168Y340265D01*
Y340638D01*
X243171D01*
Y345362D01*
X238053D01*
Y342876D01*
X238013Y342675D01*
Y341125D01*
X235943Y339055D01*
X232804D01*
X232009Y338897D01*
X231335Y338447D01*
X229881Y336993D01*
Y340671D01*
X230292D01*
Y345421D01*
X225316D01*
Y340671D01*
X225727D01*
Y334095D01*
X223662D01*
X220311Y337446D01*
Y341299D01*
X220507Y341007D01*
X220962Y340702D01*
X221500Y340595D01*
X222038Y340702D01*
X222493Y341007D01*
X222798Y341462D01*
X222905Y342000D01*
Y354159D01*
X223007Y354007D01*
X223462Y353702D01*
X224000Y353595D01*
X224538Y353702D01*
X224993Y354007D01*
X225040Y354077D01*
X230000D01*
X230000Y354077D01*
X230353Y354147D01*
X230653Y354347D01*
X233259Y356954D01*
X233259Y356954D01*
X233314Y357035D01*
X236594D01*
Y357910D01*
X237419D01*
Y357103D01*
X242395D01*
Y361853D01*
X237419D01*
Y361046D01*
X236594D01*
Y361785D01*
X231617D01*
Y357923D01*
X231005Y357310D01*
Y359012D01*
X228804D01*
Y356924D01*
X230619D01*
X229618Y355923D01*
X225040D01*
X224993Y355993D01*
X224538Y356298D01*
X224000Y356405D01*
X223462Y356298D01*
X223007Y355993D01*
X222905Y355841D01*
Y362418D01*
X224082Y363595D01*
X225816D01*
Y363069D01*
X230792D01*
Y365715D01*
X231617Y366541D01*
Y362967D01*
X236594D01*
Y365613D01*
X237206Y366226D01*
Y365910D01*
X239407D01*
Y367998D01*
X238978D01*
X239391Y368410D01*
X242304D01*
X244227Y366488D01*
Y366350D01*
X244257Y366198D01*
Y363556D01*
X250162D01*
Y367887D01*
X247142D01*
X246903Y368245D01*
X244062Y371086D01*
X243577Y371410D01*
X249493D01*
X254415Y366488D01*
Y366350D01*
X254446Y366198D01*
Y364352D01*
X254233D01*
Y362474D01*
X260564D01*
Y364352D01*
X260351D01*
Y367887D01*
X257331D01*
X257091Y368245D01*
X251250Y374086D01*
X250742Y374426D01*
X250642Y374446D01*
X250142Y374546D01*
X235838D01*
X235337Y374446D01*
X235238Y374426D01*
X234729Y374086D01*
X228462Y367819D01*
X225816D01*
Y366405D01*
X223500D01*
X222962Y366298D01*
X222507Y365993D01*
X220507Y363993D01*
X220311Y363702D01*
Y369335D01*
X228165Y377188D01*
X240500D01*
X240500Y377188D01*
X241228Y377284D01*
X241906Y377565D01*
X242488Y378012D01*
X251543Y387067D01*
X251543Y387067D01*
X251990Y387649D01*
X252271Y388327D01*
X252366Y389055D01*
Y396099D01*
X252508D01*
Y402346D01*
X253626D01*
X254345Y402441D01*
X255016Y402719D01*
X255592Y403161D01*
X261466Y409034D01*
X261907Y409610D01*
X262185Y410281D01*
X262280Y411000D01*
Y430000D01*
X262185Y430719D01*
X262104Y430916D01*
X261907Y431390D01*
X261466Y431965D01*
X254466Y438966D01*
X253890Y439407D01*
X253280Y439660D01*
Y479349D01*
X257951Y484020D01*
X261000D01*
X261181Y484043D01*
X264740D01*
Y489555D01*
X261181D01*
X261000Y489579D01*
D02*
G37*
G36*
X191000Y453905D02*
X190462Y453798D01*
X190006Y453493D01*
X189960Y453423D01*
X189500D01*
X189500Y453423D01*
X189147Y453353D01*
X188847Y453153D01*
X178583Y442888D01*
X178500Y442905D01*
X177962Y442798D01*
X177506Y442493D01*
X177202Y442038D01*
X177095Y441500D01*
X177202Y440962D01*
X177506Y440507D01*
X177962Y440202D01*
X178500Y440095D01*
X179038Y440202D01*
X179493Y440507D01*
X179798Y440962D01*
X179905Y441500D01*
X179888Y441583D01*
X189882Y451577D01*
X189960D01*
X190006Y451507D01*
X190462Y451202D01*
X191000Y451095D01*
X191538Y451202D01*
X191993Y451507D01*
X192298Y451962D01*
X192405Y452500D01*
X192298Y453038D01*
X191993Y453493D01*
X191538Y453798D01*
X191000Y453905D01*
D02*
G37*
G36*
X170441Y488370D02*
X162961D01*
Y483252D01*
X167981D01*
X168035Y483171D01*
X174077Y477129D01*
Y442540D01*
X174006Y442493D01*
X173702Y442038D01*
X173595Y441500D01*
X173702Y440962D01*
X174006Y440507D01*
X174462Y440202D01*
X175000Y440095D01*
X175538Y440202D01*
X175994Y440507D01*
X176298Y440962D01*
X176405Y441500D01*
X176298Y442038D01*
X175994Y442493D01*
X175923Y442540D01*
Y477512D01*
X175853Y477865D01*
X175773Y477985D01*
X175653Y478165D01*
X175653Y478165D01*
X170441Y483377D01*
Y488370D01*
D02*
G37*
G36*
X293468Y431000D02*
X291000D01*
Y428532D01*
X293468D01*
Y431000D01*
D02*
G37*
G36*
X290000D02*
X287531D01*
Y428532D01*
X290000D01*
Y431000D01*
D02*
G37*
G36*
X120468D02*
X118000D01*
Y428532D01*
X120468D01*
Y431000D01*
D02*
G37*
G36*
X117000D02*
X114532D01*
Y428532D01*
X117000D01*
Y431000D01*
D02*
G37*
G36*
X195658Y427123D02*
Y424000D01*
X198781D01*
X198721Y424455D01*
X198352Y425345D01*
X197766Y426109D01*
X197002Y426695D01*
X196112Y427063D01*
X195658Y427123D01*
D02*
G37*
G36*
X198781Y423000D02*
X195658D01*
Y419877D01*
X196112Y419937D01*
X197002Y420305D01*
X197766Y420892D01*
X198352Y421656D01*
X198721Y422545D01*
X198781Y423000D01*
D02*
G37*
G36*
X220772Y407831D02*
X218500D01*
Y405756D01*
X220772D01*
Y407831D01*
D02*
G37*
G36*
X193772D02*
X191500D01*
Y405756D01*
X193772D01*
Y407831D01*
D02*
G37*
G36*
X217500D02*
X215228D01*
Y405756D01*
X217500D01*
Y407831D01*
D02*
G37*
G36*
X190500D02*
X188228D01*
Y405756D01*
X190500D01*
Y407831D01*
D02*
G37*
G36*
X220772Y404756D02*
X218500D01*
Y402681D01*
X220772D01*
Y404756D01*
D02*
G37*
G36*
X217500D02*
X215228D01*
Y402681D01*
X217500D01*
Y404756D01*
D02*
G37*
G36*
X214272D02*
X212000D01*
Y402681D01*
X214272D01*
Y404756D01*
D02*
G37*
G36*
X197500D02*
X195228D01*
Y402681D01*
X197500D01*
Y404756D01*
D02*
G37*
G36*
X193772D02*
X191500D01*
Y402681D01*
X193772D01*
Y404756D01*
D02*
G37*
G36*
X190500D02*
X188228D01*
Y402681D01*
X190500D01*
Y404756D01*
D02*
G37*
G36*
X234610Y407728D02*
X231945D01*
Y402307D01*
X234610D01*
Y407728D01*
D02*
G37*
G36*
X164110D02*
X161445D01*
Y402307D01*
X164110D01*
Y407728D01*
D02*
G37*
G36*
X230945D02*
X228280D01*
Y402307D01*
X230945D01*
Y407728D01*
D02*
G37*
G36*
X160445D02*
X157780D01*
Y402307D01*
X160445D01*
Y407728D01*
D02*
G37*
G36*
X207522Y402380D02*
X205250D01*
Y400305D01*
X207522D01*
Y402380D01*
D02*
G37*
G36*
X204250D02*
X201978D01*
Y400305D01*
X204250D01*
Y402380D01*
D02*
G37*
G36*
X207522Y399305D02*
X205250D01*
Y397230D01*
X207522D01*
Y399305D01*
D02*
G37*
G36*
X204250D02*
X201978D01*
Y397230D01*
X204250D01*
Y399305D01*
D02*
G37*
G36*
X234610Y401307D02*
X231945D01*
Y395886D01*
X234610D01*
Y401307D01*
D02*
G37*
G36*
X230945D02*
X228280D01*
Y395886D01*
X230945D01*
Y401307D01*
D02*
G37*
G36*
X164110D02*
X161445D01*
Y395886D01*
X164110D01*
Y401307D01*
D02*
G37*
G36*
X160445D02*
X157780D01*
Y395886D01*
X160445D01*
Y401307D01*
D02*
G37*
G36*
X248374Y430586D02*
X232626D01*
Y419799D01*
X237688D01*
Y407516D01*
X237547D01*
Y396099D01*
X237688D01*
Y395508D01*
X236992Y394812D01*
X224165D01*
X220812Y398165D01*
Y399805D01*
X220716Y400533D01*
X220559Y400911D01*
Y402106D01*
X219580D01*
X219406Y402240D01*
X218728Y402521D01*
X218000Y402616D01*
X211375D01*
X210647Y402521D01*
X209969Y402240D01*
X209795Y402106D01*
X208941D01*
Y401212D01*
X208940Y401211D01*
X208659Y400533D01*
X208563Y399805D01*
X208659Y399077D01*
X208688Y399007D01*
Y397664D01*
X189593Y378569D01*
X189547Y378575D01*
X189368Y378551D01*
X123558D01*
X122910Y379048D01*
X121989Y379430D01*
X121000Y379560D01*
X120011Y379430D01*
X119090Y379048D01*
X118442Y378551D01*
X115684D01*
X115036Y379048D01*
X114115Y379430D01*
X113126Y379560D01*
X112137Y379430D01*
X111216Y379048D01*
X110425Y378441D01*
X109818Y377650D01*
X109436Y376729D01*
X109306Y375740D01*
X109436Y374751D01*
X109818Y373830D01*
X110425Y373039D01*
X111216Y372432D01*
X112137Y372050D01*
X113126Y371920D01*
X114115Y372050D01*
X115036Y372432D01*
X115683Y372928D01*
X118443D01*
X119090Y372432D01*
X120011Y372050D01*
X121000Y371920D01*
X121989Y372050D01*
X122910Y372432D01*
X123557Y372928D01*
X146189D01*
Y370702D01*
X145993Y370993D01*
X145538Y371298D01*
X145000Y371405D01*
X144462Y371298D01*
X144007Y370993D01*
X143702Y370538D01*
X143641Y370229D01*
X143538Y370298D01*
X143000Y370405D01*
X142462Y370298D01*
X142007Y369993D01*
X141702Y369538D01*
X141595Y369000D01*
X141702Y368462D01*
X142007Y368007D01*
X142077Y367960D01*
Y325500D01*
X142077Y325500D01*
X142136Y325204D01*
X142095Y325000D01*
X142167Y324639D01*
X130423Y336382D01*
Y343618D01*
X130423Y343618D01*
X130353Y343971D01*
X130153Y344271D01*
X130153Y344271D01*
X124268Y350156D01*
X124308Y350208D01*
X124690Y351129D01*
X124820Y352118D01*
X124690Y353107D01*
X124308Y354028D01*
X123701Y354819D01*
X122910Y355426D01*
X121989Y355808D01*
X121000Y355938D01*
X120011Y355808D01*
X119090Y355426D01*
X118299Y354819D01*
X117692Y354028D01*
X117310Y353107D01*
X117180Y352118D01*
X117310Y351129D01*
X117692Y350208D01*
X118299Y349417D01*
X119090Y348810D01*
X120011Y348428D01*
X121000Y348298D01*
X121989Y348428D01*
X122910Y348810D01*
X122962Y348850D01*
X128577Y343235D01*
Y336000D01*
X128577Y336000D01*
X128647Y335647D01*
X128847Y335347D01*
X145612Y318583D01*
X145595Y318500D01*
X145702Y317962D01*
X146007Y317507D01*
X146462Y317202D01*
X147000Y317095D01*
X147538Y317202D01*
X147994Y317507D01*
X148298Y317962D01*
X148405Y318500D01*
X148298Y319038D01*
X147994Y319493D01*
X147609Y319750D01*
X147994Y320007D01*
X148298Y320462D01*
X148405Y321000D01*
X148298Y321538D01*
X147994Y321993D01*
X147538Y322298D01*
X147000Y322405D01*
X146917Y322389D01*
X145923Y323382D01*
Y368960D01*
X145993Y369007D01*
X146189Y369299D01*
Y339500D01*
X146188Y339500D01*
X146284Y338772D01*
X146565Y338094D01*
X147012Y337512D01*
X158512Y326012D01*
X158512Y326012D01*
X159094Y325565D01*
X159772Y325284D01*
X160500Y325188D01*
X160500Y325188D01*
X166500D01*
X167228Y325284D01*
X167906Y325565D01*
X168488Y326012D01*
X168935Y326594D01*
X169216Y327272D01*
X169311Y328000D01*
X169216Y328728D01*
X168935Y329406D01*
X168513Y329955D01*
Y331224D01*
X168681D01*
Y335441D01*
X169090D01*
Y337713D01*
X166516D01*
X163941D01*
Y336201D01*
X163931D01*
Y331224D01*
X164098D01*
Y330812D01*
X161664D01*
X151811Y340665D01*
Y372928D01*
X189547D01*
X190144Y373007D01*
X190740Y372928D01*
X191467Y373024D01*
X192146Y373305D01*
X192728Y373752D01*
X213488Y394512D01*
X213488Y394512D01*
X213935Y395094D01*
X214216Y395772D01*
X214312Y396500D01*
X214312Y396500D01*
Y396994D01*
X215189D01*
X215284Y396272D01*
X215565Y395594D01*
X216012Y395012D01*
X221012Y390012D01*
X221012Y390012D01*
X221594Y389565D01*
X222272Y389284D01*
X223000Y389189D01*
X223000Y389189D01*
X238157D01*
X238157Y389189D01*
X238884Y389284D01*
X239364Y389483D01*
X239563Y389565D01*
X240145Y390012D01*
X242488Y392355D01*
X242488Y392355D01*
X242935Y392937D01*
X243133Y393417D01*
X243216Y393616D01*
X243312Y394343D01*
Y396099D01*
X243453D01*
Y407516D01*
X243312D01*
Y419799D01*
X248374D01*
Y430586D01*
D02*
G37*
G36*
X293500Y387434D02*
X292511Y387304D01*
X291590Y386922D01*
X290799Y386315D01*
X290192Y385524D01*
X289810Y384603D01*
X289680Y383614D01*
X289810Y382625D01*
X290192Y381704D01*
X290688Y381057D01*
Y378298D01*
X290192Y377650D01*
X289810Y376729D01*
X289680Y375740D01*
X289810Y374751D01*
X290192Y373830D01*
X290799Y373039D01*
X291590Y372432D01*
X292511Y372050D01*
X293500Y371920D01*
X294489Y372050D01*
X295410Y372432D01*
X296201Y373039D01*
X296808Y373830D01*
X297190Y374751D01*
X297320Y375740D01*
X297190Y376729D01*
X296808Y377650D01*
X296311Y378298D01*
Y381057D01*
X296808Y381704D01*
X297190Y382625D01*
X297320Y383614D01*
X297190Y384603D01*
X296808Y385524D01*
X296201Y386315D01*
X295410Y386922D01*
X294489Y387304D01*
X293500Y387434D01*
D02*
G37*
G36*
X121000Y371686D02*
X120011Y371556D01*
X119090Y371174D01*
X118442Y370677D01*
X115684D01*
X115036Y371174D01*
X114115Y371556D01*
X113126Y371686D01*
X112137Y371556D01*
X111216Y371174D01*
X110425Y370567D01*
X109818Y369776D01*
X109436Y368855D01*
X109306Y367866D01*
X109436Y366877D01*
X109818Y365956D01*
X110425Y365165D01*
X111216Y364558D01*
X112137Y364176D01*
X113126Y364046D01*
X114115Y364176D01*
X115036Y364558D01*
X115683Y365054D01*
X118443D01*
X119090Y364558D01*
X120011Y364176D01*
X121000Y364046D01*
X121989Y364176D01*
X122910Y364558D01*
X123701Y365165D01*
X124308Y365956D01*
X124690Y366877D01*
X124820Y367866D01*
X124690Y368855D01*
X124308Y369776D01*
X123701Y370567D01*
X122910Y371174D01*
X121989Y371556D01*
X121000Y371686D01*
D02*
G37*
G36*
X242608Y367998D02*
X240407D01*
Y365910D01*
X242608D01*
Y367998D01*
D02*
G37*
G36*
Y364910D02*
X240407D01*
Y362822D01*
X242608D01*
Y364910D01*
D02*
G37*
G36*
X239407D02*
X237206D01*
Y362822D01*
X239407D01*
Y364910D01*
D02*
G37*
G36*
X121000Y363812D02*
X120011Y363682D01*
X119090Y363300D01*
X118442Y362803D01*
X115684D01*
X115036Y363300D01*
X114115Y363682D01*
X113126Y363812D01*
X112137Y363682D01*
X111216Y363300D01*
X110425Y362693D01*
X109818Y361902D01*
X109436Y360981D01*
X109306Y359992D01*
X109436Y359003D01*
X109818Y358082D01*
X110425Y357291D01*
X111216Y356684D01*
X112137Y356302D01*
X113126Y356172D01*
X114115Y356302D01*
X115036Y356684D01*
X115683Y357180D01*
X118443D01*
X119090Y356684D01*
X120011Y356302D01*
X121000Y356172D01*
X121989Y356302D01*
X122910Y356684D01*
X123701Y357291D01*
X124308Y358082D01*
X124690Y359003D01*
X124820Y359992D01*
X124690Y360981D01*
X124308Y361902D01*
X123701Y362693D01*
X122910Y363300D01*
X121989Y363682D01*
X121000Y363812D01*
D02*
G37*
G36*
X231005Y362100D02*
X228804D01*
Y360012D01*
X231005D01*
Y362100D01*
D02*
G37*
G36*
X227804D02*
X225603D01*
Y360012D01*
X227804D01*
Y362100D01*
D02*
G37*
G36*
Y359012D02*
X225603D01*
Y356924D01*
X227804D01*
Y359012D01*
D02*
G37*
G36*
X293500Y371686D02*
X292511Y371556D01*
X291590Y371174D01*
X290799Y370567D01*
X290192Y369776D01*
X289810Y368855D01*
X289680Y367866D01*
X289810Y366877D01*
X290192Y365956D01*
X290688Y365309D01*
Y362550D01*
X290192Y361902D01*
X289810Y360981D01*
X289680Y359992D01*
X289810Y359003D01*
X290192Y358082D01*
X290799Y357291D01*
X291590Y356684D01*
X292511Y356302D01*
X293500Y356172D01*
X294489Y356302D01*
X295410Y356684D01*
X296201Y357291D01*
X296808Y358082D01*
X297190Y359003D01*
X297320Y359992D01*
X297190Y360981D01*
X296808Y361902D01*
X296311Y362550D01*
Y365309D01*
X296808Y365956D01*
X297190Y366877D01*
X297320Y367866D01*
X297190Y368855D01*
X296808Y369776D01*
X296201Y370567D01*
X295410Y371174D01*
X294489Y371556D01*
X293500Y371686D01*
D02*
G37*
G36*
X250162Y360407D02*
X244257D01*
Y358039D01*
X244222Y357863D01*
X244222Y357863D01*
Y357473D01*
X242049Y355300D01*
X238466D01*
X238466Y355300D01*
X237769Y355162D01*
X237177Y354767D01*
X233785Y351374D01*
X231441D01*
Y350834D01*
X230292D01*
Y351353D01*
X225316D01*
Y346603D01*
X230292D01*
Y347190D01*
X231441D01*
Y346650D01*
X236559D01*
Y348994D01*
X237841Y350275D01*
Y349012D01*
X240112D01*
Y351087D01*
X238652D01*
X239221Y351656D01*
X242804D01*
X242804Y351656D01*
X243501Y351794D01*
X244092Y352189D01*
X247333Y355430D01*
X247728Y356021D01*
X247739Y356076D01*
X250162D01*
Y360407D01*
D02*
G37*
G36*
X173000Y367405D02*
X154500D01*
X153962Y367298D01*
X153507Y366993D01*
X153202Y366538D01*
X153095Y366000D01*
X153202Y365462D01*
X153507Y365007D01*
X153962Y364702D01*
X154500Y364595D01*
X172418D01*
X175595Y361418D01*
Y356582D01*
X174506Y355493D01*
X174202Y355038D01*
X174095Y354500D01*
Y352831D01*
X174010D01*
Y356654D01*
X174646D01*
Y361772D01*
X169921D01*
Y356654D01*
X171589D01*
Y352831D01*
X170831D01*
Y351075D01*
X170150D01*
Y347713D01*
X169150D01*
Y351075D01*
X168468D01*
Y352831D01*
X167711D01*
Y356654D01*
X169134D01*
Y361772D01*
X164409D01*
Y356654D01*
X165289D01*
Y352831D01*
X164905D01*
Y352985D01*
X164904Y352987D01*
X164905Y352990D01*
X164905Y352990D01*
X164905Y352991D01*
X164905Y352996D01*
X164887Y353083D01*
X164812Y353653D01*
X164554Y354275D01*
X164144Y354810D01*
X164111Y354836D01*
X164079Y354880D01*
X157456Y361030D01*
X157244Y361160D01*
X157038Y361298D01*
X157012Y361303D01*
X156989Y361317D01*
X156744Y361356D01*
X156500Y361405D01*
X156474Y361400D01*
X156448Y361404D01*
X156206Y361347D01*
X155962Y361298D01*
X155940Y361283D01*
X155915Y361277D01*
X155713Y361132D01*
X155507Y360993D01*
X155492Y360971D01*
X155471Y360956D01*
X155340Y360744D01*
X155202Y360538D01*
X155197Y360512D01*
X155183Y360489D01*
X155143Y360244D01*
X155095Y360000D01*
X155100Y359974D01*
X155096Y359948D01*
X155154Y359706D01*
X155202Y359462D01*
X155217Y359440D01*
X155223Y359415D01*
X155368Y359213D01*
X155507Y359007D01*
X155528Y358992D01*
X155544Y358970D01*
X162090Y352892D01*
X162095Y352880D01*
Y352709D01*
X157591D01*
Y347984D01*
X160752D01*
X160919Y347873D01*
X160923Y347872D01*
X161151Y347644D01*
X161151Y347644D01*
X161208Y347605D01*
X160923Y347320D01*
X160919Y347319D01*
X160736Y347197D01*
X157591D01*
Y342472D01*
X162709D01*
Y345682D01*
X162742Y345714D01*
X164319D01*
Y343957D01*
X164532D01*
Y342595D01*
X166150D01*
X166163Y342531D01*
X166425Y342138D01*
X167579Y340984D01*
X167016D01*
Y338713D01*
X169090D01*
Y339473D01*
X169666Y338898D01*
Y335654D01*
X169863D01*
Y331224D01*
X174613D01*
Y336201D01*
X174390D01*
Y338863D01*
X175856Y340329D01*
X175856Y340329D01*
X176119Y340722D01*
X176134Y340798D01*
X176211Y341185D01*
X176211Y341185D01*
Y343094D01*
X181209D01*
Y347819D01*
X177784D01*
X177447Y348044D01*
X177439Y348045D01*
X177877Y348483D01*
X177880Y348484D01*
X178063Y348606D01*
X181209D01*
Y353331D01*
X176905D01*
Y353918D01*
X177994Y355007D01*
X178298Y355462D01*
X178405Y356000D01*
Y362000D01*
X178298Y362538D01*
X177994Y362993D01*
X173994Y366993D01*
X173538Y367298D01*
X173000Y367405D01*
D02*
G37*
G36*
X286126Y356087D02*
Y352618D01*
X289595D01*
X289523Y353162D01*
X289120Y354135D01*
X288479Y354971D01*
X287643Y355612D01*
X286670Y356015D01*
X286126Y356087D01*
D02*
G37*
G36*
X113626D02*
Y352618D01*
X117095D01*
X117023Y353162D01*
X116620Y354135D01*
X115979Y354971D01*
X115143Y355612D01*
X114170Y356015D01*
X113626Y356087D01*
D02*
G37*
G36*
X285126Y356087D02*
X284582Y356015D01*
X283609Y355612D01*
X282773Y354971D01*
X282132Y354135D01*
X281729Y353162D01*
X281657Y352618D01*
X285126D01*
Y356087D01*
D02*
G37*
G36*
X112626D02*
X112082Y356015D01*
X111109Y355612D01*
X110273Y354971D01*
X109632Y354135D01*
X109229Y353162D01*
X109157Y352618D01*
X112626D01*
Y356087D01*
D02*
G37*
G36*
X243384Y351087D02*
X241112D01*
Y349012D01*
X243384D01*
Y351087D01*
D02*
G37*
G36*
X293500Y355938D02*
X292511Y355808D01*
X291590Y355426D01*
X290799Y354819D01*
X290192Y354028D01*
X289810Y353107D01*
X289680Y352118D01*
X289810Y351129D01*
X290192Y350208D01*
X290799Y349417D01*
X291590Y348810D01*
X292511Y348428D01*
X293500Y348298D01*
X294489Y348428D01*
X295410Y348810D01*
X296201Y349417D01*
X296808Y350208D01*
X297190Y351129D01*
X297320Y352118D01*
X297190Y353107D01*
X296808Y354028D01*
X296201Y354819D01*
X295410Y355426D01*
X294489Y355808D01*
X293500Y355938D01*
D02*
G37*
G36*
X243384Y348012D02*
X241112D01*
Y345937D01*
X243384D01*
Y348012D01*
D02*
G37*
G36*
X240112D02*
X237841D01*
Y345937D01*
X240112D01*
Y348012D01*
D02*
G37*
G36*
X117095Y351618D02*
X113126D01*
X109157D01*
X109229Y351074D01*
X109632Y350101D01*
X110273Y349265D01*
X111109Y348624D01*
X112082Y348221D01*
X112385Y348181D01*
X112082Y348141D01*
X111109Y347738D01*
X110273Y347097D01*
X109632Y346261D01*
X109229Y345288D01*
X109157Y344744D01*
X113126D01*
X117095D01*
X117023Y345288D01*
X116620Y346261D01*
X115979Y347097D01*
X115143Y347738D01*
X114170Y348141D01*
X113867Y348181D01*
X114170Y348221D01*
X115143Y348624D01*
X115979Y349265D01*
X116620Y350101D01*
X117023Y351074D01*
X117095Y351618D01*
D02*
G37*
G36*
X236772Y346075D02*
X234500D01*
Y344000D01*
X236772D01*
Y346075D01*
D02*
G37*
G36*
X233500D02*
X231228D01*
Y344000D01*
X233500D01*
Y346075D01*
D02*
G37*
G36*
X236772Y343000D02*
X234500D01*
Y340925D01*
X236772D01*
Y343000D01*
D02*
G37*
G36*
X233500D02*
X231228D01*
Y340925D01*
X233500D01*
Y343000D01*
D02*
G37*
G36*
X112626Y343744D02*
X109157D01*
X109229Y343200D01*
X109632Y342227D01*
X110273Y341391D01*
X111109Y340750D01*
X112082Y340347D01*
X112626Y340275D01*
Y343744D01*
D02*
G37*
G36*
X117095D02*
X113626D01*
Y340275D01*
X114170Y340347D01*
X115143Y340750D01*
X115979Y341391D01*
X116620Y342227D01*
X117023Y343200D01*
X117095Y343744D01*
D02*
G37*
G36*
X166016Y340984D02*
X163941D01*
Y338713D01*
X166016D01*
Y340984D01*
D02*
G37*
G36*
X113126Y340190D02*
X112137Y340060D01*
X111216Y339678D01*
X110425Y339071D01*
X109818Y338280D01*
X109436Y337359D01*
X109306Y336370D01*
X109436Y335381D01*
X109818Y334460D01*
X110425Y333669D01*
X111216Y333062D01*
X112137Y332680D01*
X113126Y332550D01*
X114115Y332680D01*
X115036Y333062D01*
X115827Y333669D01*
X116434Y334460D01*
X116816Y335381D01*
X116946Y336370D01*
X116816Y337359D01*
X116434Y338280D01*
X115827Y339071D01*
X115036Y339678D01*
X114115Y340060D01*
X113126Y340190D01*
D02*
G37*
G36*
X259846Y333435D02*
X252761D01*
Y327141D01*
X259846D01*
Y333435D01*
D02*
G37*
G36*
X113126Y332316D02*
X112137Y332186D01*
X111216Y331804D01*
X110425Y331197D01*
X109818Y330406D01*
X109436Y329485D01*
X109306Y328496D01*
X109436Y327507D01*
X109818Y326586D01*
X110425Y325795D01*
X111216Y325188D01*
X112137Y324806D01*
X113126Y324676D01*
X114115Y324806D01*
X115036Y325188D01*
X115827Y325795D01*
X116434Y326586D01*
X116816Y327507D01*
X116946Y328496D01*
X116816Y329485D01*
X116434Y330406D01*
X115827Y331197D01*
X115036Y331804D01*
X114115Y332186D01*
X113126Y332316D01*
D02*
G37*
G36*
X260564Y361474D02*
X254233D01*
Y359596D01*
X254446D01*
Y356068D01*
X255066D01*
Y346815D01*
X252761D01*
Y343189D01*
X244440Y334868D01*
X243934Y334111D01*
X243931Y334095D01*
X239231D01*
Y323861D01*
X248376D01*
Y331038D01*
X248421Y331263D01*
Y332252D01*
X256689Y340521D01*
X259846D01*
Y346815D01*
X259731D01*
Y356068D01*
X260351D01*
Y359596D01*
X260564D01*
Y361474D01*
D02*
G37*
G36*
X113126Y324442D02*
X112137Y324312D01*
X111216Y323930D01*
X110425Y323323D01*
X109818Y322532D01*
X109436Y321611D01*
X109306Y320622D01*
X109436Y319633D01*
X109818Y318712D01*
X110425Y317921D01*
X111216Y317314D01*
X112137Y316932D01*
X113126Y316802D01*
X114115Y316932D01*
X115036Y317314D01*
X115827Y317921D01*
X116434Y318712D01*
X116816Y319633D01*
X116946Y320622D01*
X116816Y321611D01*
X116434Y322532D01*
X115827Y323323D01*
X115036Y323930D01*
X114115Y324312D01*
X113126Y324442D01*
D02*
G37*
G36*
X121000Y348064D02*
X120011Y347934D01*
X119090Y347552D01*
X118299Y346945D01*
X117692Y346154D01*
X117310Y345233D01*
X117180Y344244D01*
X117310Y343255D01*
X117692Y342334D01*
X118299Y341543D01*
X119090Y340936D01*
X120011Y340554D01*
X121000Y340424D01*
X121989Y340554D01*
X122910Y340936D01*
X122962Y340976D01*
X125577Y338362D01*
Y334000D01*
X125577Y334000D01*
X125647Y333647D01*
X125847Y333347D01*
X141612Y317583D01*
X141595Y317500D01*
X141702Y316962D01*
X142007Y316507D01*
X142462Y316202D01*
X143000Y316095D01*
X143538Y316202D01*
X143993Y316507D01*
X144298Y316962D01*
X144405Y317500D01*
X144298Y318038D01*
X143993Y318493D01*
X143538Y318798D01*
X143000Y318905D01*
X142917Y318888D01*
X127423Y334382D01*
Y338744D01*
X127353Y339097D01*
X127273Y339217D01*
X127153Y339397D01*
X127153Y339397D01*
X124268Y342282D01*
X124308Y342334D01*
X124690Y343255D01*
X124820Y344244D01*
X124690Y345233D01*
X124308Y346154D01*
X123701Y346945D01*
X122910Y347552D01*
X121989Y347934D01*
X121000Y348064D01*
D02*
G37*
G36*
X283500Y449311D02*
X282772Y449216D01*
X282094Y448935D01*
X281512Y448488D01*
X281512Y448488D01*
X273512Y440488D01*
X273065Y439906D01*
X272784Y439228D01*
X272689Y438500D01*
X272689Y438500D01*
Y377992D01*
X272689Y377992D01*
X272784Y377264D01*
X273065Y376586D01*
X273512Y376004D01*
X281830Y367686D01*
X281936Y366877D01*
X282318Y365956D01*
X282815Y365309D01*
Y363515D01*
X282602Y363427D01*
X282020Y362980D01*
X281573Y362398D01*
X281292Y361720D01*
X281196Y360992D01*
X281292Y360264D01*
X281573Y359586D01*
X281919Y359136D01*
X281936Y359003D01*
X282318Y358082D01*
X282925Y357291D01*
X283716Y356684D01*
X284637Y356302D01*
X285626Y356172D01*
X286615Y356302D01*
X287536Y356684D01*
X288327Y357291D01*
X288934Y358082D01*
X289316Y359003D01*
X289446Y359992D01*
X289316Y360981D01*
X288934Y361902D01*
X288437Y362550D01*
Y365309D01*
X288934Y365956D01*
X289316Y366877D01*
X289446Y367866D01*
X289316Y368855D01*
X288934Y369776D01*
X288327Y370567D01*
X287536Y371174D01*
X286615Y371556D01*
X285805Y371663D01*
X285536Y371932D01*
X285626Y371920D01*
X286615Y372050D01*
X287536Y372432D01*
X288327Y373039D01*
X288934Y373830D01*
X289316Y374751D01*
X289446Y375740D01*
X289316Y376729D01*
X288934Y377650D01*
X288437Y378298D01*
Y381057D01*
X288934Y381704D01*
X289316Y382625D01*
X289446Y383614D01*
X289316Y384603D01*
X288934Y385524D01*
X288327Y386315D01*
X287536Y386922D01*
X286615Y387304D01*
X285626Y387434D01*
X284637Y387304D01*
X283716Y386922D01*
X282925Y386315D01*
X282318Y385524D01*
X281936Y384603D01*
X281806Y383614D01*
X281936Y382625D01*
X282318Y381704D01*
X282815Y381057D01*
Y378298D01*
X282318Y377650D01*
X281936Y376729D01*
X281806Y375740D01*
X281818Y375650D01*
X278311Y379156D01*
Y437335D01*
X284665Y443689D01*
X288825D01*
X288534Y443466D01*
X288093Y442890D01*
X287815Y442219D01*
X287720Y441500D01*
X287815Y440781D01*
X288093Y440110D01*
X288534Y439535D01*
X289110Y439093D01*
X289334Y439000D01*
X289110Y438907D01*
X288534Y438465D01*
X288093Y437890D01*
X287815Y437219D01*
X287720Y436500D01*
X287815Y435781D01*
X288093Y435110D01*
X288534Y434535D01*
X288620Y434469D01*
X287531D01*
Y432000D01*
X290500D01*
X293468D01*
Y434469D01*
X292380D01*
X292465Y434535D01*
X292907Y435110D01*
X293101Y435577D01*
X293618D01*
X301577Y427618D01*
Y314382D01*
X299083Y311889D01*
X299000Y311905D01*
X298462Y311798D01*
X298007Y311493D01*
X297702Y311038D01*
X297595Y310500D01*
X297702Y309962D01*
X298007Y309507D01*
X298462Y309202D01*
X299000Y309095D01*
X299538Y309202D01*
X299993Y309507D01*
X300298Y309962D01*
X300405Y310500D01*
X300389Y310583D01*
X303077Y313271D01*
Y311882D01*
X302083Y310889D01*
X302000Y310905D01*
X301462Y310798D01*
X301007Y310493D01*
X300702Y310038D01*
X300595Y309500D01*
X300702Y308962D01*
X301007Y308507D01*
X301462Y308202D01*
X302000Y308095D01*
X302538Y308202D01*
X302993Y308507D01*
X303298Y308962D01*
X303405Y309500D01*
X303389Y309583D01*
X304585Y310780D01*
X304586Y310780D01*
X304590Y310786D01*
X304591Y310788D01*
X304594Y310785D01*
X304839Y311152D01*
X304928Y311598D01*
X304923D01*
X304923Y311598D01*
Y428000D01*
X304853Y428353D01*
X304773Y428473D01*
X304653Y428653D01*
X304653Y428653D01*
X292992Y440314D01*
X293185Y440781D01*
X293280Y441500D01*
X293185Y442219D01*
X292907Y442890D01*
X292465Y443466D01*
X291890Y443907D01*
X291707Y443983D01*
X291906Y444065D01*
X292488Y444512D01*
X292935Y445094D01*
X293216Y445772D01*
X293312Y446500D01*
X293216Y447228D01*
X292935Y447906D01*
X292488Y448488D01*
X291906Y448935D01*
X291228Y449216D01*
X290500Y449311D01*
X283500D01*
X283500Y449311D01*
D02*
G37*
G36*
X113126Y316568D02*
X112137Y316438D01*
X111216Y316056D01*
X110425Y315449D01*
X109818Y314658D01*
X109436Y313737D01*
X109306Y312748D01*
X109436Y311759D01*
X109818Y310838D01*
X110425Y310047D01*
X111216Y309440D01*
X112137Y309058D01*
X113126Y308928D01*
X114115Y309058D01*
X115036Y309440D01*
X115827Y310047D01*
X116434Y310838D01*
X116816Y311759D01*
X116946Y312748D01*
X116816Y313737D01*
X116434Y314658D01*
X115827Y315449D01*
X115036Y316056D01*
X114115Y316438D01*
X113126Y316568D01*
D02*
G37*
G36*
X121500Y308843D02*
Y305374D01*
X124969D01*
X124897Y305918D01*
X124494Y306891D01*
X123853Y307727D01*
X123017Y308368D01*
X122044Y308771D01*
X121500Y308843D01*
D02*
G37*
G36*
X112626D02*
X112082Y308771D01*
X111109Y308368D01*
X110273Y307727D01*
X109632Y306891D01*
X109229Y305918D01*
X109157Y305374D01*
X112626D01*
Y308843D01*
D02*
G37*
G36*
Y304374D02*
X109157D01*
X109229Y303830D01*
X109632Y302857D01*
X110273Y302021D01*
X111109Y301380D01*
X112082Y300977D01*
X112626Y300905D01*
Y304374D01*
D02*
G37*
G36*
X177826Y293374D02*
X175752D01*
Y291103D01*
X177826D01*
Y293374D01*
D02*
G37*
G36*
X174752D02*
X172677D01*
Y291103D01*
X174752D01*
Y293374D01*
D02*
G37*
G36*
X294000Y293095D02*
Y289626D01*
X297469D01*
X297397Y290170D01*
X296994Y291143D01*
X296353Y291979D01*
X295517Y292620D01*
X294544Y293023D01*
X294000Y293095D01*
D02*
G37*
G36*
X121500D02*
Y289626D01*
X124969D01*
X124897Y290170D01*
X124494Y291143D01*
X123853Y291979D01*
X123017Y292620D01*
X122044Y293023D01*
X121500Y293095D01*
D02*
G37*
G36*
X285126D02*
X284582Y293023D01*
X283609Y292620D01*
X282773Y291979D01*
X282132Y291143D01*
X281729Y290170D01*
X281657Y289626D01*
X285126D01*
Y293095D01*
D02*
G37*
G36*
X112626D02*
X112082Y293023D01*
X111109Y292620D01*
X110273Y291979D01*
X109632Y291143D01*
X109229Y290170D01*
X109157Y289626D01*
X112626D01*
Y293095D01*
D02*
G37*
G36*
X169000Y296306D02*
X168309Y296169D01*
X167723Y295777D01*
X167331Y295191D01*
X167194Y294500D01*
Y293030D01*
X166519D01*
Y288705D01*
X166516Y288710D01*
X166060Y289015D01*
X165522Y289122D01*
X165439Y289105D01*
X165337Y289207D01*
Y293030D01*
X160587D01*
Y288054D01*
X163879D01*
X164134Y287800D01*
X164117Y287717D01*
X164224Y287179D01*
X164529Y286723D01*
X164881Y286488D01*
X160659D01*
Y281512D01*
X164216D01*
X165381Y280347D01*
X165681Y280147D01*
X166034Y280077D01*
X166034Y280077D01*
X166344D01*
Y277948D01*
X171520D01*
Y280149D01*
X169089D01*
X169298Y280462D01*
X169405Y281000D01*
X169345Y281299D01*
X171554D01*
Y283500D01*
X168966D01*
Y284500D01*
X171554D01*
Y286701D01*
X171097D01*
X171169Y286809D01*
X171306Y287500D01*
X171196Y288054D01*
X171269D01*
Y293030D01*
X170806D01*
Y294500D01*
X170669Y295191D01*
X170277Y295777D01*
X169691Y296169D01*
X169000Y296306D01*
D02*
G37*
G36*
X177826Y290103D02*
X175752D01*
Y287831D01*
X177826D01*
Y290103D01*
D02*
G37*
G36*
X174752D02*
X172677D01*
Y287831D01*
X174752D01*
Y290103D01*
D02*
G37*
G36*
X297469Y288626D02*
X294000D01*
Y285157D01*
X294544Y285229D01*
X295517Y285632D01*
X296353Y286273D01*
X296994Y287109D01*
X297397Y288082D01*
X297469Y288626D01*
D02*
G37*
G36*
X112626D02*
X109157D01*
X109229Y288082D01*
X109632Y287109D01*
X110273Y286273D01*
X111109Y285632D01*
X112082Y285229D01*
X112626Y285157D01*
Y288626D01*
D02*
G37*
G36*
X177819Y286772D02*
X175744D01*
Y284500D01*
X177819D01*
Y286772D01*
D02*
G37*
G36*
X174744D02*
X172669D01*
Y284500D01*
X174744D01*
Y286772D01*
D02*
G37*
G36*
X177819Y283500D02*
X175744D01*
Y281228D01*
X177819D01*
Y283500D01*
D02*
G37*
G36*
X174744D02*
X172669D01*
Y281228D01*
X174744D01*
Y283500D01*
D02*
G37*
G36*
X171520Y276948D02*
X169432D01*
Y274748D01*
X171520D01*
Y276948D01*
D02*
G37*
G36*
X294000Y277347D02*
Y273878D01*
X297469D01*
X297397Y274422D01*
X296994Y275395D01*
X296353Y276231D01*
X295517Y276872D01*
X294544Y277275D01*
X294000Y277347D01*
D02*
G37*
G36*
X121500D02*
Y273878D01*
X124969D01*
X124897Y274422D01*
X124494Y275395D01*
X123853Y276231D01*
X123017Y276872D01*
X122044Y277275D01*
X121500Y277347D01*
D02*
G37*
G36*
X285126D02*
X284582Y277275D01*
X283609Y276872D01*
X282773Y276231D01*
X282132Y275395D01*
X281729Y274422D01*
X281657Y273878D01*
X285126D01*
Y277347D01*
D02*
G37*
G36*
X112626D02*
X112082Y277275D01*
X111109Y276872D01*
X110273Y276231D01*
X109632Y275395D01*
X109229Y274422D01*
X109157Y273878D01*
X112626D01*
Y277347D01*
D02*
G37*
G36*
X183274Y273475D02*
X181199D01*
Y271204D01*
X183274D01*
Y273475D01*
D02*
G37*
G36*
X180199D02*
X178124D01*
Y271204D01*
X180199D01*
Y273475D01*
D02*
G37*
G36*
X297469Y272878D02*
X294000D01*
Y269409D01*
X294544Y269481D01*
X295517Y269884D01*
X296353Y270525D01*
X296994Y271361D01*
X297397Y272334D01*
X297469Y272878D01*
D02*
G37*
G36*
X112626D02*
X109157D01*
X109229Y272334D01*
X109632Y271361D01*
X110273Y270525D01*
X111109Y269884D01*
X112082Y269481D01*
X112626Y269409D01*
Y272878D01*
D02*
G37*
G36*
X183274Y270204D02*
X181199D01*
Y267932D01*
X183274D01*
Y270204D01*
D02*
G37*
G36*
X294000Y261599D02*
Y258130D01*
X297469D01*
X297397Y258674D01*
X296994Y259647D01*
X296353Y260483D01*
X295517Y261124D01*
X294544Y261527D01*
X294000Y261599D01*
D02*
G37*
G36*
X121500D02*
Y258130D01*
X124969D01*
X124897Y258674D01*
X124494Y259647D01*
X123853Y260483D01*
X123017Y261124D01*
X122044Y261527D01*
X121500Y261599D01*
D02*
G37*
G36*
X112626D02*
X112082Y261527D01*
X111109Y261124D01*
X110273Y260483D01*
X109632Y259647D01*
X109229Y258674D01*
X109157Y258130D01*
X112626D01*
Y261599D01*
D02*
G37*
G36*
X285126D02*
X284582Y261527D01*
X283609Y261124D01*
X282773Y260483D01*
X282132Y259647D01*
X281729Y258674D01*
X281657Y258130D01*
X285126D01*
Y261599D01*
D02*
G37*
G36*
X297469Y257130D02*
X294000D01*
Y253661D01*
X294544Y253733D01*
X295517Y254136D01*
X296353Y254777D01*
X296994Y255613D01*
X297397Y256586D01*
X297469Y257130D01*
D02*
G37*
G36*
X112626D02*
X109157D01*
X109229Y256586D01*
X109632Y255613D01*
X110273Y254777D01*
X111109Y254136D01*
X112082Y253733D01*
X112626Y253661D01*
Y257130D01*
D02*
G37*
G36*
X294000Y245851D02*
Y242382D01*
X297469D01*
X297397Y242926D01*
X296994Y243899D01*
X296353Y244735D01*
X295517Y245376D01*
X294544Y245779D01*
X294000Y245851D01*
D02*
G37*
G36*
X121500D02*
Y242382D01*
X124969D01*
X124897Y242926D01*
X124494Y243899D01*
X123853Y244735D01*
X123017Y245376D01*
X122044Y245779D01*
X121500Y245851D01*
D02*
G37*
G36*
X285126D02*
X284582Y245779D01*
X283609Y245376D01*
X282773Y244735D01*
X282132Y243899D01*
X281729Y242926D01*
X281657Y242382D01*
X285126D01*
Y245851D01*
D02*
G37*
G36*
X112626D02*
X112082Y245779D01*
X111109Y245376D01*
X110273Y244735D01*
X109632Y243899D01*
X109229Y242926D01*
X109157Y242382D01*
X112626D01*
Y245851D01*
D02*
G37*
G36*
X297469Y241382D02*
X294000D01*
Y237913D01*
X294544Y237985D01*
X295517Y238388D01*
X296353Y239029D01*
X296994Y239865D01*
X297397Y240838D01*
X297469Y241382D01*
D02*
G37*
G36*
X112626D02*
X109157D01*
X109229Y240838D01*
X109632Y239865D01*
X110273Y239029D01*
X111109Y238388D01*
X112082Y237985D01*
X112626Y237913D01*
Y241382D01*
D02*
G37*
%LPD*%
G36*
X194650Y341678D02*
X195577D01*
Y320882D01*
X194347Y319653D01*
X194147Y319353D01*
X194077Y319000D01*
X194077Y319000D01*
Y290666D01*
X189623Y295120D01*
X190038Y295202D01*
X190494Y295507D01*
X190798Y295962D01*
X190905Y296500D01*
X190889Y296583D01*
X193653Y299347D01*
X193653Y299347D01*
X193853Y299647D01*
X193923Y300000D01*
X193923Y300000D01*
Y338460D01*
X193993Y338507D01*
X194298Y338962D01*
X194405Y339500D01*
X194298Y340038D01*
X193993Y340493D01*
X193538Y340798D01*
X193000Y340905D01*
X192462Y340798D01*
X192359Y340729D01*
X192298Y341038D01*
X191993Y341493D01*
X191718Y341678D01*
X193650D01*
Y343170D01*
X194650D01*
Y341678D01*
D02*
G37*
D11*
X236534Y344434D02*
X239340Y347240D01*
X234934Y344434D02*
X236534D01*
X234000Y343500D02*
X234934Y344434D01*
X236975Y362478D02*
X238706Y364209D01*
X229505Y360713D02*
X231270Y362478D01*
X236975D01*
X241108Y364209D02*
X243343Y361974D01*
X257398D01*
X238706Y364209D02*
Y364322D01*
X239907Y365410D02*
X240020D01*
X241108Y364209D02*
Y364322D01*
X240020Y365410D02*
X241108Y364322D01*
X239794Y365410D02*
X239907D01*
X238706Y364322D02*
X239794Y365410D01*
X240415Y348512D02*
X240612D01*
X239340Y347437D02*
X240415Y348512D01*
X239340Y347240D02*
Y347437D01*
X229505Y360599D02*
Y360713D01*
X228304Y359512D02*
X228417D01*
X229505Y360599D01*
X160150Y344835D02*
X160346D01*
X161421Y345909D01*
Y346106D01*
X160346Y350347D02*
X161421Y349272D01*
X160150Y350347D02*
X160346D01*
X161421Y349086D02*
Y349272D01*
X172028Y338213D02*
X172238Y338003D01*
X178453Y350969D02*
X178650D01*
X177378Y349894D02*
X178453Y350969D01*
X177378Y349697D02*
Y349894D01*
X172238Y333713D02*
Y338003D01*
X178453Y345457D02*
X178650D01*
X210228Y404181D02*
X211303Y405256D01*
X211500D01*
X203675Y400880D02*
X204750Y399805D01*
X205825Y400880D01*
X207124D01*
X210228Y403984D01*
Y404181D01*
X202376Y400880D02*
X203675D01*
X198000Y405256D02*
X198197D01*
X199272Y403984D02*
X202376Y400880D01*
X199272Y403984D02*
Y404181D01*
X198197Y405256D02*
X199272Y404181D01*
D18*
X242621Y486799D02*
D03*
Y480500D02*
D03*
Y474201D02*
D03*
X261000Y486799D02*
D03*
Y480500D02*
D03*
Y474201D02*
D03*
D19*
X166701Y472819D02*
D03*
Y485811D02*
D03*
X145500Y473000D02*
D03*
Y485992D02*
D03*
D20*
X211890Y470699D02*
D03*
X209921D02*
D03*
X207953D02*
D03*
X205984D02*
D03*
X204016D02*
D03*
X202047D02*
D03*
X200079D02*
D03*
X198110D02*
D03*
D21*
X195551D02*
D03*
X192402D02*
D03*
X214449D02*
D03*
X217599D02*
D03*
D22*
X203969Y287343D02*
D03*
X196095Y287343D02*
D03*
X198063D02*
D03*
X202000D02*
D03*
X207906D02*
D03*
X209874D02*
D03*
X196095Y285374D02*
D03*
Y283405D02*
D03*
Y281437D02*
D03*
Y279468D02*
D03*
Y277500D02*
D03*
Y275532D02*
D03*
X198063Y285374D02*
D03*
X200031D02*
D03*
X202000D02*
D03*
X203969D02*
D03*
X205937D02*
D03*
X207906D02*
D03*
X209874D02*
D03*
X198063Y283405D02*
D03*
X200031D02*
D03*
X202000D02*
D03*
X203969D02*
D03*
X205937D02*
D03*
X207906D02*
D03*
X209874D02*
D03*
X198063Y281437D02*
D03*
X200031D02*
D03*
X202000D02*
D03*
X203969D02*
D03*
X205937D02*
D03*
X207906D02*
D03*
X209874D02*
D03*
X198063Y279468D02*
D03*
X200031D02*
D03*
X202000D02*
D03*
X203969D02*
D03*
X205937D02*
D03*
X207906D02*
D03*
X209874D02*
D03*
X198063Y277500D02*
D03*
X200031D02*
D03*
X202000D02*
D03*
X203969D02*
D03*
X205937D02*
D03*
X207906D02*
D03*
X209874D02*
D03*
X198063Y275532D02*
D03*
X200031D02*
D03*
X202000D02*
D03*
X203969D02*
D03*
X205937D02*
D03*
X207906D02*
D03*
X209874D02*
D03*
X198063Y273563D02*
D03*
X200031D02*
D03*
X202000D02*
D03*
X203969D02*
D03*
X205937D02*
D03*
X207906D02*
D03*
X209874D02*
D03*
X198063Y271595D02*
D03*
X200031D02*
D03*
X202000D02*
D03*
X203969D02*
D03*
X205937D02*
D03*
X207906Y271595D02*
D03*
X209874Y271595D02*
D03*
X196095Y271595D02*
D03*
Y273563D02*
D03*
X200031Y287343D02*
D03*
X205937Y287343D02*
D03*
X249000Y273000D02*
D03*
X233500D02*
D03*
X221000D02*
D03*
X272500Y265000D02*
D03*
X261000Y264500D02*
D03*
X246000Y265000D02*
D03*
X233500Y265500D02*
D03*
X277000Y258000D02*
D03*
X268500Y258500D02*
D03*
X255500D02*
D03*
X244000D02*
D03*
X235500D02*
D03*
X276500Y243000D02*
D03*
X266000Y243500D02*
D03*
X257000D02*
D03*
X243000D02*
D03*
X275500Y249500D02*
D03*
X266000Y250000D02*
D03*
X252000D02*
D03*
X240500D02*
D03*
X138500Y266500D02*
D03*
X173500Y256500D02*
D03*
X157500D02*
D03*
X143500Y257000D02*
D03*
X130500Y258500D02*
D03*
X163500Y243500D02*
D03*
X148000Y243000D02*
D03*
X134000Y242500D02*
D03*
X170500Y248500D02*
D03*
X150500Y248000D02*
D03*
X132500Y248500D02*
D03*
X147000Y271000D02*
D03*
X139500Y278500D02*
D03*
X132500Y284000D02*
D03*
X130000Y287500D02*
D03*
X132000Y271000D02*
D03*
X128000Y276000D02*
D03*
X131000Y398500D02*
D03*
X110500Y411000D02*
D03*
X123000Y411500D02*
D03*
X130500Y478000D02*
D03*
X111000Y476000D02*
D03*
X134500Y467000D02*
D03*
X124000Y489000D02*
D03*
X275500Y461000D02*
D03*
X226000Y462500D02*
D03*
X184500Y463000D02*
D03*
X167000Y460500D02*
D03*
X170000Y352500D02*
D03*
X172000Y342500D02*
D03*
X169650Y347713D02*
D03*
X249000Y343000D02*
D03*
X240000Y351000D02*
D03*
X244000Y346500D02*
D03*
X246000Y351000D02*
D03*
X246500Y349500D02*
D03*
X178500Y271000D02*
D03*
X185500Y272500D02*
D03*
X166500Y277500D02*
D03*
X167000Y284000D02*
D03*
X177500Y282000D02*
D03*
Y284000D02*
D03*
X178000Y294000D02*
D03*
X172500Y294500D02*
D03*
X175500Y295000D02*
D03*
X275000Y354500D02*
D03*
X269000Y359500D02*
D03*
X267500Y350000D02*
D03*
X269500Y354500D02*
D03*
X267000Y427500D02*
D03*
X265500Y403500D02*
D03*
X283000Y418000D02*
D03*
X294000Y404500D02*
D03*
X291500Y413000D02*
D03*
X299500Y472500D02*
D03*
X283500Y473500D02*
D03*
X288500Y483000D02*
D03*
X278000Y487000D02*
D03*
X270000Y476000D02*
D03*
X229500Y416000D02*
D03*
X226500Y401000D02*
D03*
X223000Y412500D02*
D03*
X147500Y429500D02*
D03*
X137500Y436000D02*
D03*
X165500Y391000D02*
D03*
X153000Y404000D02*
D03*
X156500Y396000D02*
D03*
X154500Y343500D02*
D03*
X157000Y339500D02*
D03*
X160500Y338500D02*
D03*
X189500Y272500D02*
D03*
X194150Y343170D02*
D03*
X202000Y279468D02*
D03*
Y281437D02*
D03*
X205937Y275532D02*
D03*
X203969D02*
D03*
X256000Y479500D02*
D03*
X191000Y452500D02*
D03*
X178500Y441500D02*
D03*
X187500Y350000D02*
D03*
X190000Y343347D02*
D03*
X175000Y441500D02*
D03*
X188000Y290500D02*
D03*
Y299500D02*
D03*
X224000Y355000D02*
D03*
X196095Y285374D02*
D03*
X191000Y301000D02*
D03*
X189500Y292000D02*
D03*
X191000Y340500D02*
D03*
X201500Y341000D02*
D03*
X205500D02*
D03*
X193000Y339500D02*
D03*
X189500Y296500D02*
D03*
X302000Y309500D02*
D03*
X223500Y308488D02*
D03*
X220240Y309068D02*
D03*
X299000Y310500D02*
D03*
X226000Y282500D02*
D03*
X267555Y324445D02*
D03*
X221500Y342000D02*
D03*
X143500Y325000D02*
D03*
X147000Y321000D02*
D03*
X143000Y369000D02*
D03*
X130000Y316500D02*
D03*
X256500Y330000D02*
D03*
X156500Y360000D02*
D03*
X154500Y366000D02*
D03*
X145000Y370000D02*
D03*
X212170Y293711D02*
D03*
X267500Y293500D02*
D03*
X212500Y289500D02*
D03*
X229336Y289575D02*
D03*
X212500Y298000D02*
D03*
X209886Y287350D02*
D03*
X198500Y318500D02*
D03*
X142993Y387993D02*
D03*
X145000Y390000D02*
D03*
X207906Y281437D02*
D03*
X205937D02*
D03*
X203969Y283405D02*
D03*
X202000D02*
D03*
X200031Y281437D02*
D03*
X198063Y283405D02*
D03*
X143000Y317500D02*
D03*
X197500Y316000D02*
D03*
X199500Y309000D02*
D03*
X142000Y314500D02*
D03*
X200871Y305549D02*
D03*
X144500Y312500D02*
D03*
X147000Y318500D02*
D03*
X143017Y303468D02*
D03*
X224000Y303000D02*
D03*
X214500D02*
D03*
X267500Y335000D02*
D03*
X277000Y332500D02*
D03*
X225000Y300500D02*
D03*
X215000D02*
D03*
X228315Y298288D02*
D03*
X215973Y295870D02*
D03*
X227251Y295481D02*
D03*
X228500Y287500D02*
D03*
Y291500D02*
D03*
X215000D02*
D03*
X168000Y281000D02*
D03*
X166000Y274000D02*
D03*
X205937Y277500D02*
D03*
X200011Y279487D02*
D03*
X165522Y287717D02*
D03*
X200027Y277491D02*
D03*
X177770Y267635D02*
D03*
X198063Y275532D02*
D03*
D23*
X175187Y270704D02*
D03*
X180699D02*
D03*
X180731Y277358D02*
D03*
X175219D02*
D03*
X180764Y290603D02*
D03*
X175252D02*
D03*
X180756Y284000D02*
D03*
X175244D02*
D03*
X172028Y338213D02*
D03*
X166516D02*
D03*
X172284Y359213D02*
D03*
X166772D02*
D03*
D24*
X168894Y290542D02*
D03*
X162962D02*
D03*
X168966Y284000D02*
D03*
X163034D02*
D03*
X168932Y277448D02*
D03*
X163000D02*
D03*
X168966Y271000D02*
D03*
X163034D02*
D03*
X166306Y333713D02*
D03*
X172238D02*
D03*
D25*
X256304Y343668D02*
D03*
Y330288D02*
D03*
D26*
X240612Y343000D02*
D03*
Y348512D02*
D03*
X234000Y349012D02*
D03*
Y343500D02*
D03*
X191000Y399744D02*
D03*
Y405256D02*
D03*
X178650Y345457D02*
D03*
Y350969D02*
D03*
X160150Y350347D02*
D03*
Y344835D02*
D03*
X198000Y399744D02*
D03*
Y405256D02*
D03*
X218000Y399744D02*
D03*
Y405256D02*
D03*
X211500Y399744D02*
D03*
Y405256D02*
D03*
X204750Y405317D02*
D03*
Y399805D02*
D03*
D27*
X234105Y359410D02*
D03*
Y365342D02*
D03*
X227804Y343046D02*
D03*
Y348978D02*
D03*
X228304Y365444D02*
D03*
Y359512D02*
D03*
X239907Y359478D02*
D03*
Y365410D02*
D03*
D28*
X243804Y328978D02*
D03*
X224804D02*
D03*
D29*
X169650Y347713D02*
D03*
D30*
X172799Y343776D02*
D03*
Y345350D02*
D03*
Y346925D02*
D03*
Y348500D02*
D03*
Y350075D02*
D03*
Y351650D02*
D03*
X166500Y343776D02*
D03*
Y345350D02*
D03*
Y346925D02*
D03*
Y348500D02*
D03*
Y350075D02*
D03*
Y351650D02*
D03*
D31*
X205961Y347107D02*
D03*
Y345138D02*
D03*
Y343170D02*
D03*
Y349075D02*
D03*
X194150Y347107D02*
D03*
Y345138D02*
D03*
Y343170D02*
D03*
D32*
Y349075D02*
D03*
D33*
X200000Y346000D02*
D03*
D34*
X231445Y401807D02*
D03*
X240500D02*
D03*
X249555D02*
D03*
X160945D02*
D03*
X170000D02*
D03*
X179055D02*
D03*
D35*
X240500Y425193D02*
D03*
X170000D02*
D03*
D36*
X257398Y358234D02*
D03*
Y361974D02*
D03*
X257398Y365722D02*
D03*
X247210D02*
D03*
Y358241D02*
D03*
D64*
X288176Y237864D02*
G03*
X288009Y237933I-167J-167D01*
G01*
X289037Y236671D02*
G03*
X289036Y237004I-168J166D01*
G01*
X240329Y238115D02*
G03*
X240771Y237933I442J448D01*
G01*
X208693Y270011D02*
G03*
X208873Y269571I630J-0D01*
G01*
X209087Y270011D02*
G03*
X209155Y269845I236J0D01*
G01*
X290053Y236544D02*
G03*
X290219Y236476I166J168D01*
G01*
X240605Y238395D02*
G03*
X240771Y238327I166J168D01*
G01*
X288454Y238142D02*
G03*
X288009Y238327I-445J-445D01*
G01*
X261058Y280212D02*
G03*
X261056Y280212I-2J-236D01*
G01*
X261063D02*
G03*
X262169Y280669I-5J1578D01*
G01*
X209541Y278493D02*
G03*
X209707Y278425I166J168D01*
G01*
X210819D02*
G03*
X211449Y279055I0J630D01*
G01*
X212606Y280212D02*
G03*
X211449Y279055I0J-1157D01*
G01*
X249073Y280974D02*
G03*
X249835Y280212I762J0D01*
G01*
X249073Y281156D02*
G03*
X248337Y281156I-368J0D01*
G01*
X246813Y280428D02*
G03*
X248337Y280428I762J0D01*
G01*
X246813Y281156D02*
G03*
X246077Y281156I-368J0D01*
G01*
X245315Y280212D02*
G03*
X246077Y280974I0J762D01*
G01*
X249467D02*
G03*
X249835Y280606I368J0D01*
G01*
X249467Y281156D02*
G03*
X247943Y281156I-762J0D01*
G01*
X247207Y280428D02*
G03*
X247943Y280428I368J0D01*
G01*
X247207Y281156D02*
G03*
X245683Y281156I-762J0D01*
G01*
X245315Y280606D02*
G03*
X245683Y280974I0J368D01*
G01*
X261064Y280606D02*
G03*
X261891Y280948I-5J1185D01*
G01*
X210297Y278887D02*
G03*
X210463Y278819I166J168D01*
G01*
X212606Y280606D02*
G03*
X211055Y279055I0J-1551D01*
G01*
X209874Y279408D02*
G03*
X209944Y279239I236J0D01*
G01*
X210819Y278819D02*
G03*
X211055Y279055I0J236D01*
G01*
X254620Y280874D02*
G03*
X254888Y280606I268J0D01*
G01*
X254620Y281250D02*
G03*
X254084Y281250I-268J0D01*
G01*
X253816Y280606D02*
G03*
X254084Y280874I0J268D01*
G01*
X282155Y285394D02*
G03*
X281711Y285211I0J-630D01*
G01*
X273253Y276850D02*
G03*
X273419Y276919I0J236D01*
G01*
X210297Y276919D02*
G03*
X210463Y276850I166J168D01*
G01*
X265824Y277219D02*
G03*
X266192Y276850I368J0D01*
G01*
X265824Y277523D02*
G03*
X265088Y277523I-368J0D01*
G01*
X264720Y276850D02*
G03*
X265088Y277219I0J368D01*
G01*
X238801Y276457D02*
G03*
X238433Y276089I0J-368D01*
G01*
X236909Y275861D02*
G03*
X238433Y275861I762J0D01*
G01*
X236909Y277928D02*
G03*
X236173Y277928I-368J0D01*
G01*
X234649Y275861D02*
G03*
X236173Y275861I762J0D01*
G01*
X234649Y277928D02*
G03*
X233913Y277928I-368J0D01*
G01*
X233151Y276457D02*
G03*
X233913Y277219I0J762D01*
G01*
X238801Y276850D02*
G03*
X238039Y276089I0J-762D01*
G01*
X237303Y275861D02*
G03*
X238039Y275861I368J0D01*
G01*
X237303Y277928D02*
G03*
X235779Y277928I-762J0D01*
G01*
X235043Y275861D02*
G03*
X235779Y275861I368J0D01*
G01*
X235043Y277928D02*
G03*
X233519Y277928I-762J0D01*
G01*
X233151Y276850D02*
G03*
X233519Y277219I0J368D01*
G01*
X140599Y237000D02*
G03*
X140231Y236632I0J-368D01*
G01*
X139495Y236572D02*
G03*
X140231Y236572I368J0D01*
G01*
X139495Y236632D02*
G03*
X138759Y236632I-368J0D01*
G01*
X138022Y236572D02*
G03*
X138759Y236572I368J0D01*
G01*
X138022Y236632D02*
G03*
X137654Y237000I-368J0D01*
G01*
X139007Y253145D02*
G03*
X138246Y253907I-762J0D01*
G01*
X139007Y253031D02*
G03*
X139744Y253031I368J0D01*
G01*
X141267Y253809D02*
G03*
X139744Y253809I-762J0D01*
G01*
X141267Y253031D02*
G03*
X142004Y253031I368J0D01*
G01*
X143527Y253809D02*
G03*
X142004Y253809I-762J0D01*
G01*
X143527Y253031D02*
G03*
X144263Y253031I368J0D01*
G01*
X145787Y253809D02*
G03*
X144263Y253809I-762J0D01*
G01*
X145787Y253031D02*
G03*
X146523Y253031I368J0D01*
G01*
X147285Y253907D02*
G03*
X146523Y253145I0J-762D01*
G01*
X138614D02*
G03*
X138246Y253513I-368J0D01*
G01*
X138614Y253031D02*
G03*
X140137Y253031I762J0D01*
G01*
X140874Y253809D02*
G03*
X140137Y253809I-368J0D01*
G01*
X140874Y253031D02*
G03*
X142397Y253031I762J0D01*
G01*
X143133Y253809D02*
G03*
X142397Y253809I-368J0D01*
G01*
X143133Y253031D02*
G03*
X144657Y253031I762J0D01*
G01*
X145393Y253809D02*
G03*
X144657Y253809I-368J0D01*
G01*
X145393Y253031D02*
G03*
X146917Y253031I762J0D01*
G01*
X147285Y253513D02*
G03*
X146917Y253145I0J-368D01*
G01*
X156527Y253513D02*
G03*
X156259Y253245I0J-268D01*
G01*
X155723Y252995D02*
G03*
X156259Y252995I268J0D01*
G01*
X155723Y253245D02*
G03*
X155186Y253245I-268J0D01*
G01*
X154650Y252995D02*
G03*
X155186Y252995I268J0D01*
G01*
X154650Y253245D02*
G03*
X154382Y253513I-268J0D01*
G01*
X128433Y253894D02*
G03*
X128447Y253894I0J236D01*
G01*
X128737Y253907D02*
G03*
X128710Y253906I2J-630D01*
G01*
X128737Y253513D02*
G03*
X128721Y253513I2J-236D01*
G01*
X128545Y253500D02*
G03*
X128563Y253501I0J236D01*
G01*
X201572Y271166D02*
G03*
X201540Y271125I169J-165D01*
G01*
X201446Y270985D02*
G03*
X201478Y271026I-168J166D01*
G01*
X190763Y260400D02*
G03*
X190929Y260468I0J236D01*
G01*
X155983Y260400D02*
G03*
X155715Y260132I0J-268D01*
G01*
X155179Y260103D02*
G03*
X155715Y260103I268J0D01*
G01*
X155179Y260132D02*
G03*
X154642Y260132I-268J0D01*
G01*
X154106Y260103D02*
G03*
X154642Y260103I268J0D01*
G01*
X154106Y260132D02*
G03*
X153570Y260132I-268J0D01*
G01*
X153034Y260103D02*
G03*
X153570Y260103I268J0D01*
G01*
X153034Y260132D02*
G03*
X152766Y260400I-268J0D01*
G01*
X142148D02*
G03*
X141880Y260132I0J-268D01*
G01*
X141218Y259124D02*
G03*
X141880Y259786I0J662D01*
G01*
X140557D02*
G03*
X141218Y259124I662J0D01*
G01*
X140557Y261336D02*
G03*
X140288Y261604I-268J0D01*
G01*
X140288D02*
G03*
X140020Y261336I0J-268D01*
G01*
X139358Y259124D02*
G03*
X140020Y259786I0J662D01*
G01*
X138697D02*
G03*
X139358Y259124I662J0D01*
G01*
X138697Y261336D02*
G03*
X138429Y261604I-268J0D01*
G01*
X138429D02*
G03*
X138161Y261336I0J-268D01*
G01*
X137499Y259124D02*
G03*
X138161Y259786I0J662D01*
G01*
X136837D02*
G03*
X137499Y259124I662J0D01*
G01*
X136837Y261336D02*
G03*
X136569Y261604I-268J0D01*
G01*
X136569D02*
G03*
X136301Y261336I0J-268D01*
G01*
X135639Y260400D02*
G03*
X136301Y261062I0J662D01*
G01*
X142148Y260794D02*
G03*
X141486Y260132I0J-662D01*
G01*
X141218Y259518D02*
G03*
X141486Y259786I0J268D01*
G01*
X140950D02*
G03*
X141218Y259518I268J0D01*
G01*
X140950Y261336D02*
G03*
X140288Y261998I-662J0D01*
G01*
X140288D02*
G03*
X139627Y261336I0J-662D01*
G01*
X139358Y259518D02*
G03*
X139627Y259786I0J268D01*
G01*
X139090D02*
G03*
X139358Y259518I268J0D01*
G01*
X139090Y261336D02*
G03*
X138429Y261998I-662J0D01*
G01*
X138429D02*
G03*
X137767Y261336I0J-662D01*
G01*
X137499Y259518D02*
G03*
X137767Y259786I0J268D01*
G01*
X137231D02*
G03*
X137499Y259518I268J0D01*
G01*
X137231Y261336D02*
G03*
X136569Y261998I-662J0D01*
G01*
X136569D02*
G03*
X135907Y261336I0J-662D01*
G01*
X135639Y260794D02*
G03*
X135907Y261062I0J268D01*
G01*
X199711Y271274D02*
G03*
X199679Y271233I169J-165D01*
G01*
X199585Y271093D02*
G03*
X199618Y271134I-168J166D01*
G01*
X190894Y262500D02*
G03*
X191061Y262568I0J236D01*
G01*
X194291Y269085D02*
G03*
X194359Y269251I-168J166D01*
G01*
X194427Y271236D02*
G03*
X194359Y271070I168J-166D01*
G01*
X123181Y300812D02*
G03*
X122739Y300994I-442J-448D01*
G01*
X122905Y300532D02*
G03*
X122739Y300600I-166J-168D01*
G01*
X170248Y264538D02*
G03*
X169980Y264806I-268J0D01*
G01*
X170248Y264473D02*
G03*
X170785Y264473I268J0D01*
G01*
X171321Y264538D02*
G03*
X170785Y264538I-268J0D01*
G01*
X171321Y264473D02*
G03*
X171857Y264473I268J0D01*
G01*
X172393Y264538D02*
G03*
X171857Y264538I-268J0D01*
G01*
X172393Y264473D02*
G03*
X172930Y264473I268J0D01*
G01*
X173198Y264806D02*
G03*
X172930Y264538I0J-268D01*
G01*
X164199Y262500D02*
G03*
X163931Y262232I0J-268D01*
G01*
X163395Y261999D02*
G03*
X163931Y261999I268J0D01*
G01*
X163395Y262232D02*
G03*
X162859Y262232I-268J0D01*
G01*
X162322Y261999D02*
G03*
X162859Y261999I268J0D01*
G01*
X162322Y262232D02*
G03*
X162054Y262500I-268J0D01*
G01*
X139087Y285427D02*
G03*
X139087Y284350I539J-539D01*
G01*
X139454Y285795D02*
G03*
X139454Y286315I-260J260D01*
G01*
D02*
G03*
X138936Y286317I-260J-260D01*
G01*
X136807Y285266D02*
G03*
X137885Y285266I539J539D01*
G01*
X136808Y286344D02*
G03*
X136807Y285266I538J-539D01*
G01*
X136809Y286345D02*
G03*
X136808Y286344I137J-141D01*
G01*
X137856Y287393D02*
G03*
X137856Y287913I-260J260D01*
G01*
D02*
G03*
X137338Y287915I-260J-260D01*
G01*
X135891Y287546D02*
G03*
X136969Y287546I539J539D01*
G01*
X139365Y285149D02*
G03*
X139365Y284628I260J-260D01*
G01*
X139733Y285516D02*
G03*
X139733Y286594I-539J539D01*
G01*
D02*
G03*
X138655Y286593I-539J-539D01*
G01*
D02*
G03*
X138654Y286592I140J-138D01*
G01*
X137086Y285544D02*
G03*
X137606Y285544I260J260D01*
G01*
X137084Y286063D02*
G03*
X137086Y285544I262J-258D01*
G01*
X138135Y287114D02*
G03*
X138135Y288192I-539J539D01*
G01*
D02*
G03*
X137057Y288191I-539J-539D01*
G01*
D02*
G03*
X137056Y288190I140J-138D01*
G01*
X136170Y287824D02*
G03*
X136690Y287824I260J260D01*
G01*
X138216Y273561D02*
G03*
X138216Y272483I539J-539D01*
G01*
X138443Y273788D02*
G03*
X138445Y274307I-260J260D01*
G01*
X138445Y274307D02*
G03*
X138443Y274308I-262J-259D01*
G01*
D02*
G03*
X138442Y274310I-260J-260D01*
G01*
X138442D02*
G03*
X137925Y274310I-259J-262D01*
G01*
X136150Y273613D02*
G03*
X137227Y273613I539J539D01*
G01*
X136151Y274691D02*
G03*
X136150Y273613I538J-540D01*
G01*
X136152Y274692D02*
G03*
X136151Y274691I137J-141D01*
G01*
X136846Y275386D02*
G03*
X136847Y275905I-260J260D01*
G01*
X136847Y275905D02*
G03*
X136846Y275906I-262J-259D01*
G01*
D02*
G03*
X136844Y275908I-260J-260D01*
G01*
X136844D02*
G03*
X136327Y275908I-259J-262D01*
G01*
X134552Y275211D02*
G03*
X135629Y275211I539J539D01*
G01*
X134553Y276289D02*
G03*
X134552Y275211I538J-540D01*
G01*
X134554Y276290D02*
G03*
X134553Y276289I137J-141D01*
G01*
X135248Y276984D02*
G03*
X135249Y277503I-260J260D01*
G01*
X135249Y277503D02*
G03*
X135248Y277504I-262J-259D01*
G01*
D02*
G03*
X135246Y277505I-260J-260D01*
G01*
X135246D02*
G03*
X134729Y277506I-259J-262D01*
G01*
X133423Y277277D02*
G03*
X134500Y277277I539J539D01*
G01*
X138495Y273282D02*
G03*
X138495Y272762I260J-260D01*
G01*
X138722Y273509D02*
G03*
X138779Y274522I-539J539D01*
G01*
X138724Y274585D02*
G03*
X138722Y274587I-541J-537D01*
G01*
X138722Y274587D02*
G03*
X138720Y274589I-539J-539D01*
G01*
X138657Y274644D02*
G03*
X137644Y274586I-474J-596D01*
G01*
D02*
G03*
X137642Y274585I140J-138D01*
G01*
X136428Y273891D02*
G03*
X136949Y273891I260J260D01*
G01*
X136426Y274410D02*
G03*
X136428Y273891I262J-258D01*
G01*
X137124Y275107D02*
G03*
X137181Y276120I-539J539D01*
G01*
X137126Y276183D02*
G03*
X137124Y276185I-541J-537D01*
G01*
X137124Y276185D02*
G03*
X137122Y276187I-539J-539D01*
G01*
X137059Y276242D02*
G03*
X136046Y276184I-474J-596D01*
G01*
D02*
G03*
X136044Y276183I140J-138D01*
G01*
X134830Y275489D02*
G03*
X135351Y275489I260J260D01*
G01*
X134829Y276008D02*
G03*
X134830Y275489I262J-258D01*
G01*
X135526Y276705D02*
G03*
X135584Y277718I-539J539D01*
G01*
X135528Y277781D02*
G03*
X135526Y277783I-541J-537D01*
G01*
X135526Y277783D02*
G03*
X135524Y277785I-539J-539D01*
G01*
X135461Y277840D02*
G03*
X134448Y277782I-474J-596D01*
G01*
D02*
G03*
X134447Y277780I140J-138D01*
G01*
X133701Y277556D02*
G03*
X134222Y277556I260J260D01*
G01*
X211356Y274700D02*
G03*
X210914Y274882I-442J-448D01*
G01*
X216318Y269182D02*
G03*
X216761Y269000I443J448D01*
G01*
X211080Y274420D02*
G03*
X210914Y274488I-166J-168D01*
G01*
X216595Y269462D02*
G03*
X216761Y269394I166J168D01*
G01*
X229508Y253865D02*
G03*
X229952Y253683I443J448D01*
G01*
X229785Y254145D02*
G03*
X229952Y254077I166J168D01*
G01*
X289430Y252858D02*
G03*
X289413Y252875I-465J-425D01*
G01*
X288393Y253895D02*
G03*
X287950Y254077I-442J-448D01*
G01*
X289133Y252267D02*
G03*
X289133Y252599I-168J166D01*
G01*
X288117Y253615D02*
G03*
X287950Y253683I-166J-168D01*
G01*
X262888Y254445D02*
G03*
X263650Y253683I762J0D01*
G01*
X262888Y254604D02*
G03*
X262152Y254604I-368J0D01*
G01*
X260628Y252880D02*
G03*
X262152Y252880I762J0D01*
G01*
X260628Y254604D02*
G03*
X259892Y254604I-368J0D01*
G01*
X259130Y253683D02*
G03*
X259892Y254445I0J762D01*
G01*
X263282D02*
G03*
X263650Y254077I368J0D01*
G01*
X263282Y254604D02*
G03*
X261758Y254604I-762J0D01*
G01*
X261022Y252880D02*
G03*
X261758Y252880I368J0D01*
G01*
X261022Y254604D02*
G03*
X259498Y254604I-762J0D01*
G01*
X259130Y254077D02*
G03*
X259498Y254445I0J368D01*
G01*
X271472Y254695D02*
G03*
X272090Y254077I618J0D01*
G01*
X271472Y254720D02*
G03*
X270235Y254720I-618J0D01*
G01*
X269617Y254077D02*
G03*
X270235Y254695I0J618D01*
G01*
X273834Y269662D02*
G03*
X274102Y269394I268J0D01*
G01*
X273834Y270127D02*
G03*
X273298Y270127I-268J0D01*
G01*
X273030Y269394D02*
G03*
X273298Y269662I0J268D01*
G01*
X262302Y270512D02*
G03*
X263814Y269000I1512J0D01*
G01*
X262302Y270908D02*
G03*
X260066Y270908I-1118J0D01*
G01*
X257042Y268592D02*
G03*
X260066Y268592I1512J0D01*
G01*
X257042Y270908D02*
G03*
X254806Y270908I-1118J0D01*
G01*
X253294Y269000D02*
G03*
X254806Y270512I0J1512D01*
G01*
X262696D02*
G03*
X263814Y269394I1118J0D01*
G01*
X262696Y270908D02*
G03*
X259672Y270908I-1512J0D01*
G01*
X257436Y268592D02*
G03*
X259672Y268592I1118J0D01*
G01*
X257436Y270908D02*
G03*
X254412Y270908I-1512J0D01*
G01*
X253294Y269394D02*
G03*
X254412Y270512I0J1118D01*
G01*
X282155Y285000D02*
G03*
X281989Y284932I0J-236D01*
G01*
X273253Y276457D02*
G03*
X273696Y276639I0J630D01*
G01*
X186027Y253638D02*
G03*
X186127Y253698I-68J226D01*
G01*
X185523Y253907D02*
G03*
X185689Y253975I0J236D01*
G01*
X185523Y253513D02*
G03*
X185705Y253540I0J630D01*
G01*
X203522Y271093D02*
G03*
X203555Y271134I-168J166D01*
G01*
X205710Y270702D02*
G03*
X205778Y270868I-168J166D01*
G01*
X188067Y341414D02*
G03*
X188000Y341251I169J-165D01*
G01*
X177567Y300933D02*
G03*
X177402Y301000I-165J-169D01*
G01*
X177253Y297933D02*
G03*
X177088Y298000I-165J-169D01*
G01*
X197575Y347329D02*
G03*
X197507Y347493I-236J-2D01*
G01*
X195992Y349008D02*
G03*
X195827Y349075I-165J-169D01*
G01*
X303933Y311433D02*
G03*
X304000Y311598I-169J165D01*
G01*
X259402Y287500D02*
G03*
X259569Y287569I0J236D01*
G01*
X282470Y304874D02*
G03*
X282306Y304806I2J-236D01*
G01*
X261902Y284500D02*
G03*
X262068Y284568I0J236D01*
G01*
X283598Y309000D02*
G03*
X283431Y308931I0J-236D01*
G01*
X288902Y309000D02*
G03*
X289069Y309069I0J236D01*
G01*
X210098Y289500D02*
G03*
X209931Y289431I0J-236D01*
G01*
X214932Y297932D02*
G03*
X215000Y298098I-168J166D01*
G01*
X206067Y289067D02*
G03*
X206000Y288904I169J-165D01*
G01*
X223902Y282500D02*
G03*
X224068Y282568I0J236D01*
G01*
X225933Y284433D02*
G03*
X226000Y284598I-169J165D01*
G01*
X121000Y335442D02*
G03*
X121068Y335276I236J0D01*
G01*
X201000Y304902D02*
G03*
X200931Y305069I-236J0D01*
G01*
X189027Y280973D02*
G03*
X189190Y280906I165J169D01*
G01*
X180764Y289334D02*
G03*
X180832Y289168I236J0D01*
G01*
X197336Y277567D02*
G03*
X197499Y277500I165J169D01*
G01*
X246128Y298226D02*
G03*
X246294Y298294I0J236D01*
G01*
X280592Y328496D02*
G03*
X280428Y328428I2J-236D01*
G01*
X256406Y291500D02*
G03*
X256573Y291569I0J236D01*
G01*
X205935Y271594D02*
G03*
X205778Y271371I79J-222D01*
G01*
X203648Y271274D02*
G03*
X203616Y271233I169J-165D01*
G01*
X288176Y237864D02*
X289036Y237004D01*
X207906Y271595D02*
X208693Y270807D01*
X240771Y237933D02*
X288009D01*
X286374Y234008D02*
X289037Y236671D01*
X285626Y234008D02*
X286374D01*
X208693Y270011D02*
Y270807D01*
X208873Y269571D02*
X240329Y238115D01*
X209087Y270807D02*
X209874Y271595D01*
X289314Y237282D02*
X290053Y236544D01*
X288454Y238142D02*
X289314Y237282D01*
X209155Y269845D02*
X240605Y238395D01*
X288009Y238327D02*
X288009Y238327D01*
X209087Y270011D02*
Y270807D01*
X291032Y236476D02*
X293500Y234008D01*
X240771Y238327D02*
X288009D01*
X290219Y236476D02*
X291032D01*
X282000Y300500D02*
X286870D01*
X289366Y298004D01*
X261058Y280212D02*
X261063D01*
X262169Y280669D02*
X282000Y300500D01*
X251724Y280212D02*
X261056D01*
X289366Y297139D02*
Y298004D01*
X289228Y297000D02*
X289366Y297139D01*
X285626Y297000D02*
X289228D01*
X209424Y278610D02*
X209541Y278493D01*
X212606Y280212D02*
X245000D01*
X208949Y279085D02*
Y279135D01*
Y279085D02*
X209424Y278610D01*
X209707Y278425D02*
X210819D01*
X208692Y279392D02*
X208949Y279135D01*
X207982Y279392D02*
X208692D01*
X207906Y279468D02*
X207982Y279392D01*
X285626Y297000D02*
X285626Y297000D01*
X249835Y280212D02*
X251724D01*
X249073Y280974D02*
Y281156D01*
X248337Y280428D02*
Y281156D01*
X246813Y280428D02*
Y281156D01*
X246077Y280974D02*
Y281156D01*
X245000Y280212D02*
X245315D01*
X249835Y280606D02*
X251724D01*
X249467Y280974D02*
Y281156D01*
X247943Y280428D02*
Y281156D01*
X247207Y280428D02*
Y281156D01*
X245683Y280974D02*
Y281156D01*
X245000Y280606D02*
X245315D01*
X281837Y300894D02*
X287033D01*
X261891Y280948D02*
X281837Y300894D01*
X287033D02*
X289760Y298167D01*
X212606Y280606D02*
X245000D01*
X209944Y279239D02*
X210297Y278887D01*
X210463Y278819D02*
X210819D01*
X209874Y279408D02*
Y279468D01*
X256324Y280606D02*
X261064D01*
X251724D02*
X253698D01*
X289760Y297139D02*
Y298167D01*
X293500Y297000D02*
X293500Y297000D01*
X289898Y297000D02*
X293500D01*
X289760Y297139D02*
X289898Y297000D01*
X254888Y280606D02*
X256324D01*
X254620Y280874D02*
Y281250D01*
X254084Y280874D02*
Y281250D01*
X253698Y280606D02*
X253816D01*
X267884Y276850D02*
X273253D01*
X240527D02*
X264602D01*
X210463D02*
X232836D01*
X282155Y285394D02*
X286785D01*
X273419Y276919D02*
X281711Y285211D01*
X209874Y277341D02*
X210180Y277035D01*
X210297Y276919D01*
X209874Y277341D02*
Y277500D01*
X289760Y281391D02*
Y282419D01*
X286785Y285394D02*
X289760Y282419D01*
Y281391D02*
X289898Y281252D01*
X293500D02*
X293500Y281252D01*
X289898Y281252D02*
X293500D01*
X266192Y276850D02*
X267884D01*
X265824Y277219D02*
Y277523D01*
X265088Y277219D02*
Y277523D01*
X264602Y276850D02*
X264720D01*
X238801Y276457D02*
X240527D01*
X238433Y275861D02*
Y276089D01*
X236909Y275861D02*
Y277928D01*
X236173Y275861D02*
Y277928D01*
X234649Y275861D02*
Y277928D01*
X233913Y277219D02*
Y277928D01*
X232836Y276457D02*
X233151D01*
X238801Y276850D02*
X240527D01*
X238039Y275861D02*
Y276089D01*
X237303Y275861D02*
Y277928D01*
X235779Y275861D02*
Y277928D01*
X235043Y275861D02*
Y277928D01*
X233519Y277219D02*
Y277928D01*
X232836Y276850D02*
X233151D01*
X289228Y265504D02*
X289366Y265642D01*
X293500Y265504D02*
X293500Y265504D01*
X289760Y265642D02*
X289898Y265504D01*
X289760Y265642D02*
Y266671D01*
X289898Y265504D02*
X293500D01*
X289366Y265642D02*
Y266508D01*
X282470Y304874D02*
X282472Y304874D01*
X286703Y308547D02*
X290284Y304966D01*
X282472Y304874D02*
X285626D01*
X284547Y308547D02*
X286703D01*
X289004Y324000D02*
X293500Y328496D01*
X289069Y309069D02*
X292748Y312748D01*
X290284Y304966D02*
X293408D01*
X289378Y316500D02*
X293500Y320622D01*
X292748Y312748D02*
X293500D01*
X293408Y304966D02*
X293500Y304874D01*
X286874Y269000D02*
X289366Y266508D01*
X287037Y269394D02*
X289760Y266671D01*
X285626Y265504D02*
X285626Y265504D01*
X289228D01*
X285626Y281252D02*
X285626Y281252D01*
X292256Y344244D02*
X293500D01*
X289130Y332000D02*
X293500Y336370D01*
X288469Y348031D02*
X292256Y344244D01*
X284500Y316500D02*
X289378D01*
X284748Y312748D02*
X285626D01*
X283598Y309000D02*
X288902Y309000D01*
X289721Y252539D02*
X292504Y249756D01*
X293500D01*
X290500Y436500D02*
X294000D01*
X168688Y483823D02*
Y484158D01*
X166701Y485811D02*
X167035D01*
X168688Y484158D01*
X189500Y452500D02*
X191000D01*
X178500Y441500D02*
X189500Y452500D01*
X175000Y441500D02*
Y477512D01*
X168688Y483823D02*
X175000Y477512D01*
X257000Y480500D02*
X261000D01*
X256000Y479500D02*
X257000Y480500D01*
X117500Y436500D02*
X142993Y411007D01*
X117500Y441500D02*
X145000Y414000D01*
X273696Y276639D02*
X281989Y284932D01*
X246000Y284500D02*
X261902D01*
X285626Y281252D02*
X289228D01*
X289430Y252858D02*
X289721Y252539D01*
X289228Y281252D02*
X289366Y281391D01*
Y282256D01*
X286622Y285000D02*
X289366Y282256D01*
X240527Y276457D02*
X273253D01*
X273055Y254077D02*
X287950D01*
X265645D02*
X269499D01*
X265645Y253683D02*
X287950D01*
X265568Y269394D02*
X272912D01*
X265568Y269000D02*
X286874D01*
X275455Y269394D02*
X287037D01*
X285626Y249756D02*
X286622D01*
X288393Y253895D02*
X289413Y252875D01*
X288117Y253615D02*
X289133Y252599D01*
X286622Y249756D02*
X289133Y252267D01*
X205935Y271594D02*
X205937Y271595D01*
X204894Y271860D02*
X205756Y272722D01*
X201819Y273382D02*
X202000Y273563D01*
X201819Y272722D02*
Y273382D01*
X203788D02*
X203969Y273563D01*
X203788Y272722D02*
Y273382D01*
X205756Y272722D02*
Y273382D01*
X205937Y273563D01*
X206862Y282480D02*
X210257D01*
X210277Y282500D01*
X205937Y283405D02*
X206862Y282480D01*
X209874Y283405D02*
X210009D01*
X207906D02*
X208834Y284334D01*
X198988Y274488D02*
X200031Y275532D01*
X198002Y275592D02*
X198063Y275532D01*
X197921D02*
X198063D01*
X208746Y277319D02*
X209609Y276457D01*
X209874Y275373D02*
Y275532D01*
X208746Y275351D02*
X209609Y274488D01*
X209874Y273404D02*
Y273563D01*
X208746Y273382D02*
X209609Y272520D01*
X196360Y278543D02*
X197019Y277884D01*
X196095Y279468D02*
X198063D01*
X195692Y278543D02*
X196360D01*
X196007Y279556D02*
X196095Y279468D01*
X197019Y277884D02*
X197336Y277567D01*
X197499Y277500D02*
X198063D01*
X197961Y271493D02*
X198063Y271595D01*
X199851Y273382D02*
X200031Y273563D01*
X199851Y272722D02*
Y273382D01*
X198988Y271860D02*
X199851Y272722D01*
X198988Y271211D02*
Y271860D01*
X197301Y271493D02*
X197961D01*
X199618Y271134D02*
X199679Y271233D01*
X199711Y271274D02*
X200031Y271595D01*
X201572Y271166D02*
X202000Y271595D01*
X200031Y285374D02*
Y285531D01*
X207906Y273563D02*
X208086Y273382D01*
X208746D01*
X207906Y275532D02*
X208086Y275351D01*
X208746D01*
X197020Y282480D02*
X198063Y281437D01*
X197961Y285476D02*
X198063Y285374D01*
X232607Y357607D02*
Y357941D01*
X234076Y359410D01*
X234105D01*
X230000Y355000D02*
X232607Y357607D01*
X188067Y341414D02*
X190000Y343347D01*
X142993Y387993D02*
Y411007D01*
X145000Y390000D02*
Y414000D01*
X229952Y254077D02*
X258815D01*
X229952Y253683D02*
X258815D01*
X190671Y262894D02*
X198988Y271211D01*
X185689Y253975D02*
X202925Y271211D01*
X186127Y253698D02*
X203522Y271093D01*
X185705Y253540D02*
X186027Y253638D01*
X204894Y270442D02*
Y271860D01*
X171845Y237394D02*
X204894Y270442D01*
X172008Y237000D02*
X205710Y270702D01*
X205778Y270868D02*
Y271371D01*
X209609Y274488D02*
X210914D01*
X210365Y274882D02*
X210914D01*
X209874Y275373D02*
X210365Y274882D01*
X211080Y274420D02*
X216318Y269182D01*
X211373Y272001D02*
X229508Y253865D01*
X211356Y274700D02*
X216595Y269462D01*
X211536Y272394D02*
X229785Y254145D01*
X210365Y272913D02*
X211017D01*
X209609Y272520D02*
X210854D01*
X211373Y272001D01*
X211017Y272913D02*
X211536Y272394D01*
X209874Y273404D02*
X210365Y272913D01*
X224000Y355000D02*
X230000D01*
X196000Y347000D02*
X196500Y346500D01*
X203000Y342500D02*
Y343500D01*
X204264Y344764D01*
X188425Y349075D02*
X194150D01*
X187500Y350000D02*
X188425Y349075D01*
X205587Y344764D02*
X205961Y345138D01*
X204264Y344764D02*
X205587D01*
X205874Y343170D02*
X205961D01*
X205500Y342796D02*
X205874Y343170D01*
X194256Y347000D02*
X196000D01*
X194150Y347107D02*
X194256Y347000D01*
X197575Y347329D02*
X197575Y347327D01*
X195992Y349008D02*
X197507Y347493D01*
X194150Y349075D02*
X195827D01*
X128737Y253907D02*
X137100D01*
X128737Y253513D02*
X137100D01*
X147600Y253907D02*
X185523D01*
X147600Y253513D02*
X153728D01*
X157822D02*
X185523D01*
X120000Y253500D02*
X128545D01*
X128563Y253501D02*
X128721Y253513D01*
X128447Y253894D02*
X128710Y253906D01*
X119837Y253894D02*
X128433D01*
X124843Y237000D02*
X136800D01*
X125006Y237394D02*
X171845D01*
X141335Y237000D02*
X172008D01*
X180764Y289334D02*
Y290603D01*
X189500Y291500D02*
Y292000D01*
X162962Y290542D02*
X164432Y289073D01*
Y288807D02*
X165522Y287717D01*
X164432Y288807D02*
Y289073D01*
X164434Y275566D02*
Y276014D01*
X180832Y289168D02*
X189027Y280973D01*
X180756Y283803D02*
X182213Y282347D01*
X180756Y283803D02*
Y284000D01*
X185000Y287500D02*
X191063Y281437D01*
X196095D01*
X197961Y285476D02*
Y286136D01*
X193000Y286500D02*
X196095Y283405D01*
X197020Y287077D02*
X197961Y286136D01*
X197020Y287077D02*
Y287726D01*
X195000Y289745D02*
X197020Y287726D01*
X194020Y282480D02*
X197020D01*
X193000Y286500D02*
Y288000D01*
X189500Y291500D02*
X193000Y288000D01*
X182478Y292708D02*
X185000Y290186D01*
Y287500D02*
Y290186D01*
X193488Y274488D02*
X198988D01*
X197138Y272638D02*
X198063Y273563D01*
X195829Y272638D02*
X197138D01*
X194427Y271236D02*
X195829Y272638D01*
X193970Y280906D02*
X195319Y279556D01*
X193595Y280000D02*
X196095Y277500D01*
X193782Y280453D02*
X195692Y278543D01*
X205500Y341000D02*
Y342796D01*
X201500Y341000D02*
X203000Y342500D01*
Y286374D02*
Y314000D01*
X202000Y287343D02*
Y306500D01*
X201000Y286500D02*
Y304902D01*
X200500Y305500D02*
X200931Y305069D01*
X199500Y309000D02*
X202000Y306500D01*
X198500Y318500D02*
X203000Y314000D01*
X228315Y298288D02*
X228377Y298226D01*
X227251Y295481D02*
X227270Y295500D01*
X226000Y291500D02*
X228000Y293500D01*
X225000Y300500D02*
X245000D01*
X224000Y303000D02*
X246000D01*
X228500Y291500D02*
X256406D01*
X228000Y293500D02*
X248000D01*
X229336Y289575D02*
X229411Y289500D01*
X257500D01*
X206000Y287405D02*
Y288904D01*
X223488Y308500D02*
X223500Y308488D01*
X218000Y306828D02*
X220240Y309068D01*
X221500Y308500D02*
X223488D01*
X218453Y305453D02*
X221500Y308500D01*
X212389Y289500D02*
X212500D01*
X205000Y286405D02*
Y290500D01*
X207906Y287405D02*
X209931Y289431D01*
X210098Y289500D02*
X212389Y289500D01*
X206980Y288480D02*
X212000Y293500D01*
X206980Y286417D02*
Y288480D01*
X203969Y292469D02*
X214500Y303000D01*
X206067Y289067D02*
X214932Y297932D01*
X205000Y290500D02*
X212500Y298000D01*
X213417Y286417D02*
X215000Y288000D01*
X216000Y287500D02*
Y295870D01*
X214334Y284334D02*
X218000Y288000D01*
X215000Y298098D02*
Y300500D01*
Y288000D02*
Y291500D01*
X218453Y287812D02*
Y305453D01*
X218000Y288000D02*
Y306828D01*
X200000Y291000D02*
Y305111D01*
X197500Y307611D02*
Y316000D01*
Y307611D02*
X200000Y305111D01*
X195000Y289745D02*
Y319000D01*
X196575Y307896D02*
X198063Y306408D01*
Y287343D02*
Y306408D01*
X196575Y307896D02*
Y316383D01*
X197575Y317383D01*
X195000Y319000D02*
X196500Y320500D01*
Y346500D01*
X188000Y299500D02*
Y341251D01*
X193000Y300000D02*
Y339500D01*
X197575Y317383D02*
Y347327D01*
X191000Y301000D02*
Y340500D01*
X136996Y312500D02*
X144500D01*
X121000Y328496D02*
X136996Y312500D01*
X121068Y335276D02*
X141922Y314422D01*
X126500Y334000D02*
X143000Y317500D01*
Y325500D02*
X143500Y325000D01*
X129500Y336000D02*
X147000Y318500D01*
X145000Y323000D02*
X147000Y321000D01*
X122905Y300532D02*
X135669Y287769D01*
X123181Y300812D02*
X135947Y288047D01*
X121000Y312748D02*
X135748Y298000D01*
X139500Y304500D02*
Y307000D01*
X121000Y320622D02*
X142122Y299500D01*
X130000Y316500D02*
X139500Y307000D01*
Y304500D02*
X143000Y301000D01*
X121000Y352118D02*
X129500Y343618D01*
Y336000D02*
Y343618D01*
X126500Y334000D02*
Y338744D01*
X121000Y344244D02*
X126500Y338744D01*
X145000Y323000D02*
Y370000D01*
X143000Y325500D02*
Y369000D01*
X143657Y260794D02*
X190539D01*
X135300Y260400D02*
X135324D01*
X126600Y269100D02*
X135300Y260400D01*
X126763Y269494D02*
X135324Y260933D01*
X150695Y273299D02*
X158794Y265200D01*
X150695Y273299D02*
X150695D01*
X140059Y283934D02*
X150695Y273299D01*
X140343Y270914D02*
X148363Y262894D01*
X140065Y270635D02*
X148200Y262500D01*
X161400D01*
X148363Y262894D02*
X190671D01*
X143657Y260400D02*
X152111D01*
X121000Y265504D02*
X121000Y265504D01*
X119689Y269494D02*
X126763D01*
X302000Y309500D02*
X303933Y311433D01*
X294000Y436500D02*
X302500Y428000D01*
X299000Y310500D02*
X302500Y314000D01*
X290500Y441500D02*
X304000Y428000D01*
X302500Y314000D02*
Y428000D01*
X304000Y311598D02*
Y428000D01*
X125700Y285000D02*
X133200Y277500D01*
X125863Y285394D02*
X133478Y277778D01*
X119841Y285394D02*
X125863D01*
X120004Y285000D02*
X125700D01*
X121000Y281252D02*
X121000Y281252D01*
X117398Y281252D02*
X121000D01*
X124481Y237362D02*
X124843Y237000D01*
X117718Y237756D02*
X124644D01*
X125006Y237394D01*
X116866Y266671D02*
X119689Y269494D01*
X116866Y297139D02*
Y298167D01*
X117260Y298004D02*
X119856Y300600D01*
X116866Y298167D02*
X119693Y300994D01*
X117260Y297139D02*
Y298004D01*
X119856Y300600D02*
X122739D01*
X119693Y300994D02*
X122739D01*
X119852Y269100D02*
X126600D01*
X116866Y265642D02*
Y266671D01*
X117260Y266508D02*
X119852Y269100D01*
X117398Y265504D02*
X121000D01*
X117260Y265642D02*
X117398Y265504D01*
X117260Y265642D02*
Y266508D01*
X113126Y265504D02*
X116728D01*
X116866Y265642D01*
X113126Y265504D02*
X113126Y265504D01*
X113126Y297000D02*
X113126Y297000D01*
X116728D02*
X116866Y297139D01*
X113126Y297000D02*
X116728D01*
X117260Y282256D02*
X120004Y285000D01*
X116866Y282419D02*
X119841Y285394D01*
X123181Y300812D02*
X123181D01*
X121000Y335442D02*
Y336370D01*
X116866Y234146D02*
Y236904D01*
X117260Y234146D02*
Y236741D01*
X116728Y234008D02*
X116866Y234146D01*
X113126Y234008D02*
X116728D01*
X117398D02*
X121000D01*
X117260Y234146D02*
X117398Y234008D01*
X116728Y281252D02*
X116866Y281391D01*
X113126Y281252D02*
X116728D01*
X113126Y281252D02*
X113126Y281252D01*
X116866Y281391D02*
Y282419D01*
X117260Y281391D02*
Y282256D01*
Y281391D02*
X117398Y281252D01*
X117260Y297139D02*
X117398Y297000D01*
X121000D02*
X121000Y297000D01*
X117398Y297000D02*
X121000D01*
X117881Y237362D02*
X124481D01*
X116866Y250923D02*
X119837Y253894D01*
X117260Y236741D02*
X117881Y237362D01*
X116866Y236904D02*
X117718Y237756D01*
X117260Y250760D02*
X120000Y253500D01*
X117398Y249756D02*
X121000D01*
X116728D02*
X116866Y249894D01*
X113126Y249756D02*
X116728D01*
X116866Y249894D02*
Y250923D01*
X117260Y249894D02*
Y250760D01*
Y249894D02*
X117398Y249756D01*
X189500Y296500D02*
X193000Y300000D01*
X177253Y297933D02*
X182478Y292708D01*
X143017Y303468D02*
X143049Y303500D01*
X135748Y298000D02*
X177088D01*
X142122Y299500D02*
X177000D01*
X143049Y303500D02*
X179937D01*
X143000Y301000D02*
X177402D01*
X179937Y303500D02*
X196095Y287343D01*
X177000Y299500D02*
X194020Y282480D01*
X177567Y300933D02*
X177567Y300933D01*
X188000Y290500D01*
X163034Y283887D02*
Y284000D01*
X139781Y283656D02*
X158631Y264806D01*
X164503Y282417D02*
X164617D01*
X163034Y283887D02*
X164503Y282417D01*
X164617D02*
X166034Y281000D01*
X164434Y275566D02*
X166000Y274000D01*
X164503Y269417D02*
X164583D01*
X163034Y270887D02*
X164503Y269417D01*
X164583D02*
X168000Y266000D01*
X163034Y270887D02*
Y271000D01*
X267834Y293334D02*
X283431Y308931D01*
X248000Y293500D02*
X278500Y324000D01*
X256573Y291569D02*
X285626Y320622D01*
X267500Y293500D02*
X267666Y293334D01*
X267834D01*
X257500Y289500D02*
X284500Y316500D01*
X259569Y287569D02*
X284748Y312748D01*
X262000Y286000D02*
X284547Y308547D01*
X262068Y284568D02*
X282306Y304806D01*
X282155Y285000D02*
X286622D01*
X228377Y298226D02*
X246128D01*
X229500Y286000D02*
X262000D01*
X226000Y284598D02*
Y291500D01*
X227270Y295500D02*
X247500D01*
X242937Y281437D02*
X246000Y284500D01*
X280000Y332000D02*
X289130D01*
X280594Y328496D02*
X285626D01*
X280592Y328496D02*
X280594Y328496D01*
X278500Y324000D02*
X289004D01*
X280532Y348031D02*
X288469D01*
X247500Y295500D02*
X280428Y328428D01*
X246294Y298294D02*
X280000Y332000D01*
X245000Y300500D02*
X277000Y332500D01*
X267500Y335000D02*
X280532Y348031D01*
X267445Y324445D02*
X267555D01*
X246000Y303000D02*
X267445Y324445D01*
X209874Y281437D02*
X242937D01*
X209609Y276457D02*
X232836D01*
X208086Y277319D02*
X208746D01*
X216761Y269394D02*
X252979D01*
X216761Y269000D02*
X252979D01*
X205937Y287343D02*
X206000Y287405D01*
X207906Y287343D02*
Y287405D01*
X228500Y287500D02*
X259402D01*
X203969Y285374D02*
X205000Y286405D01*
X205937Y285374D02*
X206980Y286417D01*
X207906Y285374D02*
X208949Y286417D01*
X213874Y285374D02*
X216000Y287500D01*
X208949Y286417D02*
X213417D01*
X209874Y285374D02*
X213874D01*
X214522Y283881D02*
X218453Y287812D01*
X210485Y283881D02*
X214522D01*
X210277Y282500D02*
X223902D01*
X224068Y282568D02*
X225933Y284433D01*
X226000Y282500D02*
X229500Y286000D01*
X208834Y284334D02*
X214334D01*
X210009Y283405D02*
X210485Y283881D01*
X190539Y260794D02*
X200957Y271211D01*
X194359Y269251D02*
Y271070D01*
X191061Y262568D02*
X199585Y271093D01*
X190929Y260468D02*
X201446Y270985D01*
X190406Y265200D02*
X194291Y269085D01*
X190615Y264806D02*
X197301Y271493D01*
X185000Y266000D02*
X193488Y274488D01*
X180731Y277358D02*
X194268D01*
X195319Y279556D02*
X196007D01*
X194268Y277358D02*
X196095Y275532D01*
X189190Y280906D02*
X193970D01*
X184303Y280453D02*
X193782D01*
X177861Y280000D02*
X193595D01*
X200000Y291000D02*
X200031Y290968D01*
Y287343D02*
Y290968D01*
Y285531D02*
X201000Y286500D01*
X202000Y285374D02*
X203000Y286374D01*
X163000Y277448D02*
X164434Y276014D01*
X157008Y260400D02*
X190763D01*
X165362Y262500D02*
X190894D01*
X158631Y264806D02*
X169200D01*
X173316D02*
X190615D01*
X158794Y265200D02*
X190406D01*
X168000Y266000D02*
X185000D01*
X203969Y287343D02*
Y292469D01*
X202925Y271860D02*
X203788Y272722D01*
X202925Y271211D02*
Y271860D01*
X203648Y271274D02*
X203969Y271595D01*
X203555Y271134D02*
X203616Y271233D01*
X207906Y277500D02*
X208086Y277319D01*
X174891Y271000D02*
X175187Y270704D01*
X168966Y271000D02*
X174891D01*
X175187Y270704D02*
X176632Y269259D01*
Y268774D02*
X177770Y267635D01*
X176632Y268774D02*
Y269259D01*
X166034Y281000D02*
X168000D01*
X201478Y271026D02*
X201540Y271125D01*
X200957Y271211D02*
Y271860D01*
X201819Y272722D01*
X175219Y277358D02*
Y277555D01*
X182213Y282347D02*
X182410D01*
X184303Y280453D01*
X176873Y279012D02*
X177861Y280000D01*
X176676Y279012D02*
X176873D01*
X175219Y277555D02*
X176676Y279012D01*
X140599Y237000D02*
X141335D01*
X140231Y236572D02*
Y236632D01*
X139495Y236572D02*
Y236632D01*
X138759Y236572D02*
Y236632D01*
X138022Y236572D02*
Y236632D01*
X136800Y237000D02*
X137654D01*
X137100Y253907D02*
X138246D01*
X139007Y253031D02*
Y253145D01*
X139744Y253031D02*
Y253809D01*
X141267Y253031D02*
Y253809D01*
X142004Y253031D02*
Y253809D01*
X143527Y253031D02*
Y253809D01*
X144263Y253031D02*
Y253809D01*
X145787Y253031D02*
Y253809D01*
X146523Y253031D02*
Y253145D01*
X147285Y253907D02*
X147600D01*
X137100Y253513D02*
X138246D01*
X138614Y253031D02*
Y253145D01*
X140137Y253031D02*
Y253809D01*
X140874Y253031D02*
Y253809D01*
X142397Y253031D02*
Y253809D01*
X143133Y253031D02*
Y253809D01*
X144657Y253031D02*
Y253809D01*
X145393Y253031D02*
Y253809D01*
X146917Y253031D02*
Y253145D01*
X147285Y253513D02*
X147600D01*
X156527D02*
X157822D01*
X156259Y252995D02*
Y253245D01*
X155723Y252995D02*
Y253245D01*
X155186Y252995D02*
Y253245D01*
X154650Y252995D02*
Y253245D01*
X153728Y253513D02*
X154382D01*
X155983Y260400D02*
X157008D01*
X155715Y260103D02*
Y260132D01*
X155179Y260103D02*
Y260132D01*
X154642Y260103D02*
Y260132D01*
X154106Y260103D02*
Y260132D01*
X153570Y260103D02*
Y260132D01*
X153034Y260103D02*
Y260132D01*
X152111Y260400D02*
X152766D01*
X142148D02*
X143657D01*
X141880Y259786D02*
Y260132D01*
X141218Y259124D02*
X141218D01*
X140557Y259786D02*
Y261336D01*
X140288Y261604D02*
X140288D01*
X140020Y259786D02*
Y261336D01*
X139358Y259124D02*
X139358D01*
X138697Y259786D02*
Y261336D01*
X138429Y261604D02*
X138429D01*
X138161Y259786D02*
Y261336D01*
X137499Y259124D02*
X137499D01*
X136837Y259786D02*
Y261336D01*
X136569Y261604D02*
X136569D01*
X136301Y261062D02*
Y261336D01*
X135324Y260400D02*
X135639D01*
X142148Y260794D02*
X143657D01*
X141486Y259786D02*
Y260132D01*
X141218Y259518D02*
X141218D01*
X140950Y259786D02*
Y261336D01*
X140288Y261998D02*
X140288D01*
X139627Y259786D02*
Y261336D01*
X139358Y259518D02*
X139358D01*
X139090Y259786D02*
Y261336D01*
X138429Y261998D02*
X138429D01*
X137767Y259786D02*
Y261336D01*
X137499Y259518D02*
X137499D01*
X137231Y259786D02*
Y261336D01*
X136569Y261998D02*
X136569D01*
X135907Y261062D02*
Y261336D01*
X135463Y260794D02*
X135639D01*
X135324Y260933D02*
X135463Y260794D01*
X135324Y260933D02*
X135324Y260933D01*
X169200Y264806D02*
X169980D01*
X170248Y264473D02*
Y264538D01*
X170785Y264473D02*
Y264538D01*
X171321Y264473D02*
Y264538D01*
X171857Y264473D02*
Y264538D01*
X172393Y264473D02*
Y264538D01*
X172930Y264473D02*
Y264538D01*
X173198Y264806D02*
X173316D01*
X164199Y262500D02*
X165362D01*
X163931Y261999D02*
Y262232D01*
X163395Y261999D02*
Y262232D01*
X162859Y261999D02*
Y262232D01*
X162322Y261999D02*
Y262232D01*
X161400Y262500D02*
X162054D01*
X139087Y284350D02*
X139781Y283656D01*
X139087Y285427D02*
X139454Y285795D01*
X137885Y285266D02*
X138936Y286317D01*
X136809Y286345D02*
X137856Y287393D01*
X136969Y287546D02*
X137338Y287915D01*
X135669Y287769D02*
X135891Y287546D01*
X140059Y283934D02*
X140059Y283934D01*
X139365Y284628D02*
X140059Y283934D01*
X139365Y285149D02*
X139733Y285516D01*
X137606Y285544D02*
X138654Y286592D01*
X137084Y286063D02*
X138135Y287114D01*
X136690Y287824D02*
X137056Y288190D01*
X135947Y288047D02*
X136170Y287824D01*
X135947Y288047D02*
X135947Y288047D01*
X139900Y270800D02*
X140065Y270635D01*
X139900Y270800D02*
X139900D01*
X138216Y272483D02*
X139900Y270800D01*
X138216Y272483D02*
X138216Y272483D01*
Y273561D02*
X138443Y273788D01*
Y273788D01*
X138445Y274307D02*
X138445Y274307D01*
X138442Y274310D02*
Y274310D01*
X137227Y273613D02*
X137925Y274310D01*
X136150Y273613D02*
X136150Y273613D01*
X136150Y273613D02*
X136150Y273613D01*
X136150D02*
X136150Y273613D01*
X136152Y274692D02*
X136846Y275386D01*
Y275386D01*
X136847Y275905D02*
X136847Y275905D01*
X136844Y275908D02*
Y275908D01*
X135629Y275211D02*
X136327Y275908D01*
X134554Y276290D02*
X135248Y276984D01*
Y276984D01*
X135249Y277503D02*
X135249Y277503D01*
X135246Y277505D02*
Y277505D01*
X134500Y277277D02*
X134729Y277506D01*
X133423Y277277D02*
X133423Y277277D01*
X133365Y277335D02*
X133423Y277277D01*
X133365Y277335D02*
Y277335D01*
X133200Y277500D02*
X133365Y277335D01*
X140343Y270914D02*
X140343Y270914D01*
X140178Y271078D02*
X140343Y270914D01*
X138495Y272762D02*
X140178Y271078D01*
X138495Y273282D02*
X138722Y273509D01*
X138722D01*
X138779Y274522D02*
Y274529D01*
X138724Y274585D02*
X138779Y274529D01*
X138722Y274587D02*
X138722Y274587D01*
X138664Y274644D02*
X138720Y274589D01*
X138657Y274644D02*
X138664D01*
X136949Y273891D02*
X137642Y274585D01*
X136428Y273891D02*
X136428Y273891D01*
X136426Y274410D02*
X137124Y275107D01*
X137124D01*
X137181Y276120D02*
Y276127D01*
X137126Y276183D02*
X137181Y276127D01*
X137124Y276185D02*
X137124Y276185D01*
X137066Y276242D02*
X137122Y276187D01*
X137059Y276242D02*
X137066D01*
X135351Y275489D02*
X136044Y276183D01*
X134829Y276008D02*
X135526Y276705D01*
X135526D01*
X135584Y277718D02*
Y277725D01*
X135528Y277781D02*
X135584Y277725D01*
X135526Y277783D02*
X135526Y277783D01*
X135468Y277840D02*
X135524Y277785D01*
X135461Y277840D02*
X135468D01*
X134222Y277556D02*
X134447Y277780D01*
X133643Y277613D02*
X133701Y277556D01*
X133478Y277778D02*
X133643Y277613D01*
X133478Y277778D02*
X133478Y277778D01*
X263650Y253683D02*
X265645D01*
X262888Y254445D02*
Y254604D01*
X262152Y252880D02*
Y254604D01*
X260628Y252880D02*
Y254604D01*
X259892Y254445D02*
Y254604D01*
X258815Y253683D02*
X259130D01*
X263650Y254077D02*
X265645D01*
X263282Y254445D02*
Y254604D01*
X261758Y252880D02*
Y254604D01*
X261022Y252880D02*
Y254604D01*
X259498Y254445D02*
Y254604D01*
X258815Y254077D02*
X259130D01*
X272090D02*
X273055D01*
X271472Y254695D02*
Y254720D01*
X270235Y254695D02*
Y254720D01*
X269499Y254077D02*
X269617D01*
X274102Y269394D02*
X275455D01*
X273834Y269662D02*
Y270127D01*
X273298Y269662D02*
Y270127D01*
X272912Y269394D02*
X273030D01*
X263814Y269000D02*
X265568D01*
X262302Y270512D02*
Y270908D01*
X260066Y268592D02*
Y270908D01*
X257042Y268592D02*
Y270908D01*
X254806Y270512D02*
Y270908D01*
X252979Y269000D02*
X253294D01*
X263814Y269394D02*
X265568D01*
X262696Y270512D02*
Y270908D01*
X259672Y268592D02*
Y270908D01*
X257436Y268592D02*
Y270908D01*
X254412Y270512D02*
Y270908D01*
X252979Y269394D02*
X253294D01*
D65*
X177567Y300933D02*
D03*
D66*
X163500Y352990D02*
G03*
X163123Y353851I-1181J-5D01*
G01*
X203969Y281437D02*
X205937D01*
X200031D02*
Y283405D01*
X221500Y342000D02*
Y363000D01*
X177000Y356000D02*
Y362000D01*
X173000Y366000D02*
X177000Y362000D01*
X154500Y366000D02*
X173000D01*
X156500Y360000D02*
X163123Y353851D01*
X175500Y354500D02*
X177000Y356000D01*
X166306Y328194D02*
X166500Y328000D01*
X163500Y351000D02*
X164425Y350075D01*
X166500D01*
X163500Y352990D02*
X163500Y352985D01*
Y351000D02*
Y352985D01*
X172799Y350075D02*
X174575D01*
X175500Y351000D02*
Y354500D01*
X174575Y350075D02*
X175500Y351000D01*
X223500Y365000D02*
X227860D01*
X228304Y365444D01*
X221500Y363000D02*
X223500Y365000D01*
X169500Y287500D02*
Y289936D01*
X168894Y290542D02*
X169500Y289936D01*
D67*
X257843Y321000D02*
G03*
X260672Y322172I0J4000D01*
G01*
X231610D02*
G03*
X234439Y321000I2828J2828D01*
G01*
X285626Y375740D02*
Y383614D01*
X293500Y359992D02*
Y367866D01*
X285626Y359992D02*
Y367866D01*
X293500Y375740D02*
Y383614D01*
X275500Y377992D02*
Y438500D01*
X285085Y359992D02*
X285626D01*
X275500Y377992D02*
X285626Y367866D01*
Y336370D02*
Y344244D01*
X284008Y360992D02*
X284085D01*
X285085Y359992D01*
X275500Y438500D02*
X283500Y446500D01*
X290500D01*
X223000Y392000D02*
X238157D01*
X227000Y380000D02*
X240500D01*
X238157Y392000D02*
X240500Y394343D01*
Y401807D02*
Y425193D01*
Y394343D02*
Y401807D01*
Y380000D02*
X249555Y389055D01*
X217500Y336282D02*
Y370500D01*
X249555Y389055D02*
Y401807D01*
X170000D02*
Y425193D01*
X149000Y375740D02*
X189547D01*
X160500Y328000D02*
X166500D01*
X149000Y339500D02*
X160500Y328000D01*
X170000Y401807D02*
X170165Y401642D01*
Y396335D02*
X173000Y393500D01*
X170165Y396335D02*
Y401642D01*
X218000Y397000D02*
Y399805D01*
Y397000D02*
X223000Y392000D01*
X188500Y384000D02*
X195000Y390500D01*
X190740Y375740D02*
X211500Y396500D01*
X195000Y390500D02*
X198000Y393500D01*
X217500Y370500D02*
X227000Y380000D01*
X211375Y399805D02*
X218000D01*
X211500Y396500D02*
Y399744D01*
X227134Y326648D02*
X231610Y322172D01*
X234439Y321000D02*
X257843D01*
X226589Y326648D02*
X227134D01*
X224804Y328433D02*
X226589Y326648D01*
X217500Y336282D02*
X222474Y331308D01*
X223019D01*
X224804Y329523D01*
Y328433D02*
Y328978D01*
X121000Y375740D02*
X149000D01*
Y339500D02*
Y375740D01*
X173000Y393500D02*
X184500D01*
X190744Y399744D01*
X191000D01*
X198000D01*
X122800Y384000D02*
X188500D01*
X198000Y393500D02*
Y399744D01*
X121383Y383997D02*
X122797D01*
X113126Y383614D02*
X121000D01*
X113126Y375740D02*
X121000D01*
X113126Y367866D02*
X121000D01*
Y383614D02*
X121383Y383997D01*
X122797D02*
X122800Y384000D01*
X113126Y359992D02*
X121000D01*
X274870Y336370D02*
X285626D01*
X260672Y322172D02*
X274870Y336370D01*
D68*
X171290Y343776D02*
X172799D01*
X172000Y342500D02*
X172073Y342573D01*
Y343769D01*
X202000Y279468D02*
Y281437D01*
Y279468D02*
X203969D01*
X205937D01*
X203969Y277500D02*
Y279468D01*
X202000Y277500D02*
X203969D01*
Y275532D02*
X205937D01*
X203969D02*
Y277500D01*
X161421Y346106D02*
X162240Y346925D01*
X161421Y349086D02*
X162007Y348500D01*
X167281Y342994D02*
Y343769D01*
X173203Y339584D02*
X173399D01*
X175000Y341185D01*
X172028Y338409D02*
X173203Y339584D01*
X170853D02*
X172028Y338409D01*
Y338213D02*
Y338409D01*
X170691Y339584D02*
X170853D01*
X167281Y342994D02*
X170691Y339584D01*
X175000Y341185D02*
Y344500D01*
X172284Y359213D02*
X172799Y358697D01*
X166500Y358941D02*
X166772Y359213D01*
X162007Y348500D02*
X166500D01*
X162240Y346925D02*
X166500D01*
X176181Y348500D02*
X177378Y349697D01*
X166500Y343776D02*
X167275D01*
X167281Y343769D01*
X166500Y345350D02*
X169369D01*
X172799Y351650D02*
Y358697D01*
X166500Y351650D02*
Y358941D01*
X169592Y345474D02*
X171290Y343776D01*
X169369Y345350D02*
X169758Y345739D01*
X174150Y345350D02*
X175000Y344500D01*
X172799Y345350D02*
X174150D01*
X172799Y346925D02*
X176984D01*
X178453Y345457D01*
X172799Y348500D02*
X176181D01*
X175244Y290595D02*
X175252Y290603D01*
X175244Y284000D02*
Y290595D01*
X168966Y284000D02*
X175244D01*
X172380Y274000D02*
X177403D01*
X170233Y276148D02*
X172380Y274000D01*
X170120Y276148D02*
X170233D01*
X168932Y277335D02*
X170120Y276148D01*
X179524Y272075D02*
X180699Y270901D01*
Y270704D02*
Y270901D01*
X179327Y272075D02*
X179524D01*
X169207Y280500D02*
Y281500D01*
X169000Y280293D02*
X169207Y280500D01*
X169139Y281568D02*
X169207Y281500D01*
X177403Y274000D02*
X179327Y272075D01*
X168932Y277335D02*
Y277448D01*
X169139Y281568D02*
Y283827D01*
X168966Y284000D02*
X169139Y283827D01*
X169000Y277516D02*
Y280293D01*
X168932Y277448D02*
X169000Y277516D01*
D69*
X211399Y460399D02*
X214449Y463449D01*
Y470699D01*
X195551Y461863D02*
Y470699D01*
X197016Y460399D02*
X211399D01*
X195551Y461863D02*
X197016Y460399D01*
X145500Y485992D02*
X145992Y485500D01*
X250500Y437000D02*
X252500D01*
X240415Y343000D02*
X240612D01*
X240090Y340265D02*
Y342675D01*
X240415Y343000D01*
X224804Y329523D02*
X227339Y332058D01*
X236804Y336978D02*
X240090Y340265D01*
X227884Y332058D02*
X232804Y336978D01*
X227804Y333523D02*
Y343046D01*
X227339Y332058D02*
X227884D01*
X232804Y336978D02*
X236804D01*
X249555Y401807D02*
Y404211D01*
X250470Y405126D01*
X179055Y401807D02*
X179970Y402723D01*
X204228Y405642D02*
Y405839D01*
Y405642D02*
X204553Y405317D01*
X205272Y405642D02*
Y405839D01*
X204553Y405317D02*
X204750D01*
X204947D02*
X205272Y405642D01*
X204750Y405317D02*
X204947D01*
D70*
X211399Y426944D02*
X214843Y423500D01*
X211399Y426944D02*
Y460399D01*
D71*
X145992Y485500D02*
X153500D01*
X157500Y481500D01*
X181000Y436500D02*
X189500Y428000D01*
X164964Y436500D02*
X181000D01*
X157500Y443964D02*
X164964Y436500D01*
X225000Y425567D02*
Y433500D01*
X228500Y437000D02*
X250500D01*
X225000Y433500D02*
X228500Y437000D01*
X252500D02*
X259500Y430000D01*
X157500Y443964D02*
Y481500D01*
X242621Y480500D02*
X250500D01*
Y437000D02*
Y480500D01*
X256799Y486799D02*
X261000D01*
X250500Y480500D02*
X256799Y486799D01*
X253626Y405126D02*
X259500Y411000D01*
Y430000D01*
X250470Y405126D02*
X253626D01*
X189500Y412000D02*
Y428000D01*
X185500Y412000D02*
X189500D01*
X185500Y408252D02*
Y412000D01*
X182008Y404760D02*
X185500Y408252D01*
X179252Y404760D02*
X182008D01*
X179055Y401807D02*
Y404563D01*
X179252Y404760D01*
X204750Y413408D02*
X214843Y423500D01*
X204750Y405317D02*
Y413408D01*
X205272Y405839D02*
X225000Y425567D01*
X189500Y412000D02*
X198067D01*
X204228Y405839D01*
D72*
X230280Y405256D02*
X231445Y404091D01*
Y401807D02*
Y404091D01*
X227838Y349012D02*
X234000D01*
X234772Y349587D02*
Y349784D01*
X234000Y349012D02*
X234197D01*
X234772Y349587D01*
Y349784D02*
X238466Y353478D01*
X246044Y356719D02*
Y357863D01*
X246422Y358241D02*
X247210D01*
X246044Y357863D02*
X246422Y358241D01*
X242804Y353478D02*
X246044Y356719D01*
X238466Y353478D02*
X242804D01*
X257398Y361974D02*
X263474D01*
X263500Y362000D01*
X211500Y405256D02*
X218000D01*
X230280D01*
X227804Y348978D02*
X227838Y349012D01*
X191000Y405256D02*
X198000D01*
D73*
X229255Y366395D02*
X235838Y372978D01*
X238741Y369978D02*
X242953D01*
X235056Y366293D02*
X238741Y369978D01*
X235056Y366180D02*
Y366293D01*
X234105Y359410D02*
X234173Y359478D01*
X239907D01*
X245794Y366350D02*
X246422Y365722D01*
X247210D01*
X245794Y366350D02*
Y367137D01*
X242953Y369978D02*
X245794Y367137D01*
X228304Y365444D02*
X228417D01*
X234105Y365342D02*
X234219D01*
X235056Y366180D01*
X255983Y366350D02*
Y367137D01*
Y366350D02*
X256611Y365722D01*
X257398D01*
X235838Y372978D02*
X250142D01*
X255983Y367137D01*
X229255Y366282D02*
Y366395D01*
X228417Y365444D02*
X229255Y366282D01*
D74*
X255049Y342178D02*
Y342808D01*
X256769Y344528D01*
X257398D02*
Y358234D01*
X256769Y344528D02*
X257398D01*
X246089Y333218D02*
X255049Y342178D01*
X246089Y331263D02*
Y333218D01*
X243804Y328978D02*
X246089Y331263D01*
D75*
X256304Y330196D02*
Y330288D01*
Y330196D02*
X256500Y330000D01*
X169000Y306500D02*
Y322500D01*
X185000Y338500D02*
Y345000D01*
X169000Y322500D02*
X185000Y338500D01*
X186153Y369500D02*
X196500D01*
X213000Y386000D01*
X185000Y354000D02*
X201036D01*
X185000Y368347D02*
X186153Y369500D01*
X185000Y345000D02*
Y354000D01*
Y345000D02*
X185138Y345138D01*
X185000Y354000D02*
Y368347D01*
X205862Y349075D02*
X205961D01*
Y347107D02*
Y349075D01*
X204878Y350060D02*
X205862Y349075D01*
X185138Y345138D02*
X194150D01*
X204878Y350060D02*
Y350158D01*
X201036Y354000D02*
X204878Y350158D01*
X168894Y290542D02*
X169000Y290648D01*
Y294500D01*
D76*
X166306Y328194D02*
Y333713D01*
D77*
X187992Y489301D02*
D03*
X222008D02*
D03*
D78*
Y472963D02*
D03*
X187992D02*
D03*
D79*
X293500Y234008D02*
D03*
X121000D02*
D03*
D80*
X285626D02*
D03*
X293500Y241882D02*
D03*
X285626D02*
D03*
X293500Y249756D02*
D03*
X285626D02*
D03*
X293500Y257630D02*
D03*
X285626D02*
D03*
X293500Y265504D02*
D03*
X285626D02*
D03*
X293500Y273378D02*
D03*
X285626D02*
D03*
X293500Y281252D02*
D03*
X285626D02*
D03*
X293500Y289126D02*
D03*
X285626D02*
D03*
X293500Y297000D02*
D03*
X285626D02*
D03*
X293500Y304874D02*
D03*
X285626D02*
D03*
X293500Y312748D02*
D03*
X285626D02*
D03*
X293500Y320622D02*
D03*
X285626D02*
D03*
X293500Y328496D02*
D03*
X285626D02*
D03*
X293500Y336370D02*
D03*
X285626D02*
D03*
X293500Y344244D02*
D03*
X285626D02*
D03*
X293500Y352118D02*
D03*
X285626D02*
D03*
X293500Y359992D02*
D03*
X285626D02*
D03*
X293500Y367866D02*
D03*
X285626D02*
D03*
X293500Y375740D02*
D03*
X285626D02*
D03*
X293500Y383614D02*
D03*
X285626D02*
D03*
X113126Y234008D02*
D03*
X121000Y241882D02*
D03*
X113126D02*
D03*
X121000Y249756D02*
D03*
X113126D02*
D03*
X121000Y257630D02*
D03*
X113126D02*
D03*
X121000Y265504D02*
D03*
X113126D02*
D03*
X121000Y273378D02*
D03*
X113126D02*
D03*
X121000Y281252D02*
D03*
X113126D02*
D03*
X121000Y289126D02*
D03*
X113126D02*
D03*
X121000Y297000D02*
D03*
X113126D02*
D03*
X121000Y304874D02*
D03*
X113126D02*
D03*
X121000Y312748D02*
D03*
X113126D02*
D03*
X121000Y320622D02*
D03*
X113126D02*
D03*
X121000Y328496D02*
D03*
X113126D02*
D03*
X121000Y336370D02*
D03*
X113126D02*
D03*
X121000Y344244D02*
D03*
X113126D02*
D03*
X121000Y352118D02*
D03*
X113126D02*
D03*
X121000Y359992D02*
D03*
X113126D02*
D03*
X121000Y367866D02*
D03*
X113126D02*
D03*
X121000Y375740D02*
D03*
X113126D02*
D03*
X121000Y383614D02*
D03*
X113126D02*
D03*
D81*
X214843Y423500D02*
D03*
D82*
X195158Y423500D02*
D03*
D83*
X117500Y431500D02*
D03*
X290500D02*
D03*
D84*
X117500Y436500D02*
D03*
Y441500D02*
D03*
Y446500D02*
D03*
X290500Y436500D02*
D03*
Y441500D02*
D03*
Y446500D02*
D03*
X189547Y375795D02*
D03*
D85*
X213000Y386000D02*
D03*
X169000Y306500D02*
D03*
Y294500D02*
D03*
X166500Y328000D02*
D03*
X169500Y287500D02*
D03*
X263500Y362000D02*
D03*
D86*
X195000Y390500D02*
D03*
M02*
