G04*
G04 #@! TF.GenerationSoftware,Altium Limited,Altium Designer,22.4.2 (48)*
G04*
G04 Layer_Color=65535*
%FSLAX25Y25*%
%MOIN*%
G70*
G04*
G04 #@! TF.SameCoordinates,3F43F253-9996-4CA0-957E-582612897B16*
G04*
G04*
G04 #@! TF.FilePolarity,Positive*
G04*
G01*
G75*
%ADD10C,0.01575*%
%ADD11C,0.01000*%
%ADD12C,0.00787*%
%ADD13C,0.00394*%
%ADD14C,0.00600*%
%ADD15C,0.00590*%
%ADD16C,0.00197*%
%ADD17C,0.00500*%
D10*
X192734Y290808D02*
G03*
X192734Y290808I-394J0D01*
G01*
D11*
X182196Y267908D02*
G03*
X183416Y269128I0J1220D01*
G01*
Y272278D02*
G03*
X182196Y273498I-1220J0D01*
G01*
X172410Y269151D02*
G03*
X173629Y267931I1220J-0D01*
G01*
Y273520D02*
G03*
X172410Y272301I0J-1220D01*
G01*
X173723Y280154D02*
G03*
X172503Y278934I0J-1220D01*
G01*
Y275784D02*
G03*
X173723Y274564I1220J-0D01*
G01*
X183509Y278911D02*
G03*
X182289Y280131I-1220J0D01*
G01*
Y274541D02*
G03*
X183509Y275761I0J1220D01*
G01*
X173755Y293398D02*
G03*
X172535Y292178I0J-1220D01*
G01*
Y289029D02*
G03*
X173755Y287809I1220J-0D01*
G01*
X183541Y292155D02*
G03*
X182321Y293375I-1220J0D01*
G01*
Y287786D02*
G03*
X183541Y289006I0J1220D01*
G01*
X173747Y286795D02*
G03*
X172528Y285576I0J-1220D01*
G01*
Y282426D02*
G03*
X173747Y281206I1220J-0D01*
G01*
X183534Y285553D02*
G03*
X182314Y286772I-1220J0D01*
G01*
Y281183D02*
G03*
X183534Y282403I0J1220D01*
G01*
X243408Y350009D02*
G03*
X242188Y351228I-1220J0D01*
G01*
X239038D02*
G03*
X237818Y350009I-0J-1220D01*
G01*
X242165Y340223D02*
G03*
X243385Y341442I0J1220D01*
G01*
X237795D02*
G03*
X239015Y340223I1220J0D01*
G01*
X231205Y342003D02*
G03*
X232424Y340784I1220J0D01*
G01*
X235574D02*
G03*
X236794Y342003I0J1220D01*
G01*
X232447Y351789D02*
G03*
X231227Y350570I-0J-1220D01*
G01*
X236817D02*
G03*
X235597Y351789I-1220J0D01*
G01*
X193795Y406753D02*
G03*
X192576Y407972I-1220J0D01*
G01*
X189426D02*
G03*
X188206Y406753I-0J-1220D01*
G01*
X192553Y396967D02*
G03*
X193772Y398186I0J1220D01*
G01*
X188183D02*
G03*
X189403Y396967I1220J0D01*
G01*
X165019Y341008D02*
G03*
X163799Y339788I0J-1220D01*
G01*
Y336639D02*
G03*
X165019Y335419I1220J-0D01*
G01*
X174805Y339765D02*
G03*
X173585Y340985I-1220J0D01*
G01*
Y335396D02*
G03*
X174805Y336616I0J1220D01*
G01*
X181445Y352465D02*
G03*
X180225Y353685I-1220J0D01*
G01*
X177076D02*
G03*
X175856Y352465I-0J-1220D01*
G01*
X180202Y342679D02*
G03*
X181422Y343899I0J1220D01*
G01*
X175833D02*
G03*
X177053Y342679I1220J0D01*
G01*
X157354Y343338D02*
G03*
X158574Y342118I1220J0D01*
G01*
X161723D02*
G03*
X162943Y343338I0J1220D01*
G01*
X158597Y353124D02*
G03*
X157377Y351904I-0J-1220D01*
G01*
X162966D02*
G03*
X161747Y353124I-1220J0D01*
G01*
X165275Y362008D02*
G03*
X164055Y360788I0J-1220D01*
G01*
Y357639D02*
G03*
X165275Y356419I1220J-0D01*
G01*
X175061Y360765D02*
G03*
X173841Y361985I-1220J0D01*
G01*
Y356396D02*
G03*
X175061Y357616I0J1220D01*
G01*
X200795Y406753D02*
G03*
X199576Y407972I-1220J0D01*
G01*
X196426D02*
G03*
X195206Y406753I-0J-1220D01*
G01*
X199553Y396967D02*
G03*
X200773Y398186I0J1220D01*
G01*
X195183D02*
G03*
X196403Y396967I1220J0D01*
G01*
X220795Y406753D02*
G03*
X219576Y407972I-1220J0D01*
G01*
X216426D02*
G03*
X215206Y406753I-0J-1220D01*
G01*
X219553Y396967D02*
G03*
X220773Y398186I0J1220D01*
G01*
X215183D02*
G03*
X216403Y396967I1220J0D01*
G01*
X214295Y406753D02*
G03*
X213076Y407972I-1220J0D01*
G01*
X209926D02*
G03*
X208706Y406753I-0J-1220D01*
G01*
X213053Y396967D02*
G03*
X214272Y398186I0J1220D01*
G01*
X208683D02*
G03*
X209903Y396967I1220J0D01*
G01*
X201955Y398308D02*
G03*
X203174Y397089I1220J0D01*
G01*
X206324D02*
G03*
X207544Y398308I0J1220D01*
G01*
X203197Y408095D02*
G03*
X201977Y406875I-0J-1220D01*
G01*
X207567D02*
G03*
X206347Y408095I-1220J0D01*
G01*
X258288Y355722D02*
G03*
X258288Y355722I-252J0D01*
G01*
X241968Y470761D02*
X261653D01*
X241968Y490446D02*
X261653D01*
Y470761D02*
Y490446D01*
X241968Y470761D02*
Y490446D01*
X257240Y470849D02*
X261500Y475201D01*
X146350Y469567D02*
X166035D01*
X146350Y489252D02*
X166035D01*
Y469567D02*
Y489252D01*
X146350Y469567D02*
Y489252D01*
X161850Y469567D02*
X165850Y473067D01*
X222000Y478500D02*
Y484500D01*
X188000Y494000D02*
Y500000D01*
X222000D01*
Y494000D02*
Y500000D01*
X188000Y478500D02*
Y484500D01*
X281689Y230071D02*
X297437D01*
X281689D02*
Y387551D01*
X297437D01*
Y230071D02*
Y387551D01*
X173630Y267931D02*
X176779D01*
X172410Y269151D02*
Y272301D01*
X173630Y273520D02*
X176779D01*
X179046Y267908D02*
X182196D01*
X179046Y273498D02*
X182196D01*
X183416Y269128D02*
Y272278D01*
X179139Y280131D02*
X182289D01*
X183509Y275761D02*
Y278911D01*
X179139Y274541D02*
X182289D01*
X173723Y280154D02*
X176872D01*
X173723Y274564D02*
X176872D01*
X172503Y275784D02*
Y278934D01*
X254304Y334978D02*
X258304D01*
X256304D02*
X257904Y338978D01*
X254704D02*
X257904D01*
X254704D02*
X256304Y334978D01*
X260244Y331068D02*
Y342888D01*
X252364Y331068D02*
Y342888D01*
X256304Y333978D02*
Y339978D01*
X109189Y230071D02*
X124937D01*
X109189D02*
Y387551D01*
X124937D01*
Y230071D02*
Y387551D01*
X179172Y293375D02*
X182321D01*
X183541Y289006D02*
Y292155D01*
X179172Y287786D02*
X182321D01*
X173755Y293398D02*
X176904D01*
X173755Y287809D02*
X176904D01*
X172535Y289029D02*
Y292178D01*
X179164Y286772D02*
X182314D01*
X183533Y282403D02*
Y285553D01*
X179164Y281183D02*
X182314D01*
X173747Y286795D02*
X176897D01*
X173747Y281206D02*
X176897D01*
X172528Y282426D02*
Y285576D01*
X243384Y341442D02*
Y344592D01*
X239015Y340223D02*
X242165D01*
X237795Y341442D02*
Y344592D01*
X243408Y346859D02*
Y350009D01*
X237818Y346859D02*
Y350009D01*
X239038Y351228D02*
X242188D01*
X231228Y347420D02*
Y350570D01*
X232447Y351789D02*
X235597D01*
X236817Y347420D02*
Y350570D01*
X231205Y342003D02*
Y345153D01*
X236794Y342003D02*
Y345153D01*
X232424Y340784D02*
X235574D01*
X193772Y398186D02*
Y401336D01*
X189403Y396967D02*
X192553D01*
X188183Y398186D02*
Y401336D01*
X193795Y403603D02*
Y406753D01*
X188206Y403603D02*
Y406753D01*
X189426Y407972D02*
X192576D01*
X170436Y340985D02*
X173585D01*
X174805Y336616D02*
Y339765D01*
X170436Y335396D02*
X173585D01*
X165019Y341008D02*
X168168D01*
X165019Y335419D02*
X168168D01*
X163799Y336639D02*
Y339788D01*
X181422Y343899D02*
Y347049D01*
X177053Y342679D02*
X180202D01*
X175833Y343899D02*
Y347049D01*
X181445Y349316D02*
Y352466D01*
X175856Y349316D02*
Y352466D01*
X177076Y353685D02*
X180225D01*
X157377Y348755D02*
Y351904D01*
X158597Y353124D02*
X161747D01*
X162966Y348755D02*
Y351904D01*
X157354Y343338D02*
Y346487D01*
X162943Y343338D02*
Y346487D01*
X158574Y342118D02*
X161723D01*
X170692Y361985D02*
X173841D01*
X175061Y357616D02*
Y360765D01*
X170692Y356396D02*
X173841D01*
X165275Y362008D02*
X168424D01*
X165275Y356419D02*
X168424D01*
X164055Y357639D02*
Y360788D01*
X200772Y398186D02*
Y401336D01*
X196403Y396967D02*
X199553D01*
X195183Y398186D02*
Y401336D01*
X200795Y403603D02*
Y406753D01*
X195206Y403603D02*
Y406753D01*
X196426Y407972D02*
X199576D01*
X220772Y398186D02*
Y401336D01*
X216403Y396967D02*
X219553D01*
X215183Y398186D02*
Y401336D01*
X220795Y403603D02*
Y406753D01*
X215206Y403603D02*
Y406753D01*
X216426Y407972D02*
X219576D01*
X214272Y398186D02*
Y401336D01*
X209903Y396967D02*
X213053D01*
X208683Y398186D02*
Y401336D01*
X214295Y403603D02*
Y406753D01*
X208706Y403603D02*
Y406753D01*
X209926Y407972D02*
X213076D01*
X201978Y403725D02*
Y406875D01*
X203197Y408094D02*
X206347D01*
X207567Y403725D02*
Y406875D01*
X201955Y398308D02*
Y401458D01*
X207544Y398308D02*
Y401458D01*
X203174Y397089D02*
X206324D01*
X248501Y360273D02*
Y363753D01*
X249131Y368313D02*
X255430Y368312D01*
X249289Y355643D02*
X255351D01*
X240004Y498499D02*
Y492501D01*
X244002D01*
X250000Y498499D02*
X246002D01*
Y492501D01*
X250000D01*
X246002Y495500D02*
X248001D01*
X252000Y498499D02*
Y492501D01*
X254999D01*
X255998Y493501D01*
Y497499D01*
X254999Y498499D01*
X252000D01*
X261997Y492501D02*
X257998D01*
X261997Y496500D01*
Y497499D01*
X260997Y498499D01*
X258997D01*
X257998Y497499D01*
X146503Y496999D02*
Y491001D01*
X150502D01*
X156500Y496999D02*
X152501D01*
Y491001D01*
X156500D01*
X152501Y494000D02*
X154501D01*
X158499Y496999D02*
Y491001D01*
X161498D01*
X162498Y492001D01*
Y495999D01*
X161498Y496999D01*
X158499D01*
X164497Y491001D02*
X166497D01*
X165497D01*
Y496999D01*
X164497Y495999D01*
X195003Y489499D02*
Y484501D01*
X196003Y483501D01*
X198002D01*
X199002Y484501D01*
Y489499D01*
X205000Y488499D02*
X204000Y489499D01*
X202001D01*
X201001Y488499D01*
Y487500D01*
X202001Y486500D01*
X204000D01*
X205000Y485500D01*
Y484501D01*
X204000Y483501D01*
X202001D01*
X201001Y484501D01*
X206999Y489499D02*
Y483501D01*
X209998D01*
X210998Y484501D01*
Y485500D01*
X209998Y486500D01*
X206999D01*
X209998D01*
X210998Y487500D01*
Y488499D01*
X209998Y489499D01*
X206999D01*
X212997Y483501D02*
X214997D01*
X213997D01*
Y489499D01*
X212997Y488499D01*
X282200Y397098D02*
Y391100D01*
Y394099D01*
X286199D01*
Y397098D01*
Y391100D01*
X288198D02*
X290197D01*
X289198D01*
Y397098D01*
X288198Y396098D01*
X192200Y300998D02*
Y296000D01*
X193200Y295000D01*
X195199D01*
X196199Y296000D01*
Y300998D01*
X202197D02*
X198198D01*
Y297999D01*
X200197Y298999D01*
X201197D01*
X202197Y297999D01*
Y296000D01*
X201197Y295000D01*
X199198D01*
X198198Y296000D01*
X109700Y397098D02*
Y391100D01*
Y394099D01*
X113699D01*
Y397098D01*
Y391100D01*
X119697D02*
X115698D01*
X119697Y395099D01*
Y396098D01*
X118697Y397098D01*
X116698D01*
X115698Y396098D01*
X157600Y438998D02*
Y434000D01*
X158600Y433000D01*
X160599D01*
X161599Y434000D01*
Y438998D01*
X166597Y433000D02*
Y438998D01*
X163598Y435999D01*
X167597D01*
X228100Y438998D02*
Y434000D01*
X229100Y433000D01*
X231099D01*
X232099Y434000D01*
Y438998D01*
X238097Y433000D02*
X234098D01*
X238097Y436999D01*
Y437998D01*
X237097Y438998D01*
X235098D01*
X234098Y437998D01*
X193200Y360698D02*
Y355700D01*
X194200Y354700D01*
X196199D01*
X197199Y355700D01*
Y360698D01*
X199198Y354700D02*
X201197D01*
X200198D01*
Y360698D01*
X199198Y359698D01*
X287600Y453400D02*
Y459398D01*
X290599D01*
X291599Y458398D01*
Y456399D01*
X290599Y455399D01*
X287600D01*
X297597Y453400D02*
X293598D01*
X297597Y457399D01*
Y458398D01*
X296597Y459398D01*
X294598D01*
X293598Y458398D01*
X114600Y453400D02*
Y459398D01*
X117599D01*
X118599Y458398D01*
Y456399D01*
X117599Y455399D01*
X114600D01*
X120598Y453400D02*
X122597D01*
X121598D01*
Y459398D01*
X120598Y458398D01*
D12*
X211640Y427732D02*
G03*
X197839Y426774I-6640J-4232D01*
G01*
Y420226D02*
G03*
X211640Y419268I7161J3274D01*
G01*
X121043Y427957D02*
Y450043D01*
X113957Y427957D02*
X121043D01*
X113957D02*
Y450043D01*
X121043D01*
X294043Y427957D02*
Y450043D01*
X286957Y427957D02*
X294043D01*
X286957D02*
Y450043D01*
X294043D01*
D13*
X165880Y352896D02*
G03*
X165880Y352896I-197J0D01*
G01*
X194126Y289311D02*
X194126Y269626D01*
X194126Y289311D02*
X211842Y289311D01*
X211842Y269626D01*
X194126Y269626D02*
X211842Y269626D01*
X166500Y342791D02*
X172799D01*
X166500Y352634D02*
X172799D01*
D14*
X167606Y287941D02*
X171381D01*
Y293143D01*
X167606D02*
X171381D01*
X160475Y287941D02*
X164250D01*
X160475D02*
Y293143D01*
X164250D01*
X167678Y281399D02*
X171453D01*
Y286601D01*
X167678D02*
X171453D01*
X160547Y281399D02*
X164322D01*
X160547D02*
Y286601D01*
X164322D01*
X167644Y274848D02*
X171419D01*
Y280049D01*
X167644D02*
X171419D01*
X160513Y274848D02*
X164288D01*
X160513D02*
Y280049D01*
X164288D01*
X167678Y268399D02*
X171453D01*
Y273601D01*
X167678D02*
X171453D01*
X160547Y268399D02*
X164322D01*
X160547D02*
Y273601D01*
X164322D01*
X231505Y356923D02*
Y360698D01*
Y356923D02*
X236706D01*
Y360698D01*
X231505Y364054D02*
Y367829D01*
X236706D01*
Y364054D02*
Y367829D01*
X225203Y340559D02*
Y344334D01*
Y340559D02*
X230405D01*
Y344334D01*
X225203Y347690D02*
Y351465D01*
X230405D01*
Y347690D02*
Y351465D01*
X163819Y336313D02*
X167594D01*
X163819Y331112D02*
Y336313D01*
Y331112D02*
X167594D01*
X170950Y336313D02*
X174725D01*
Y331112D02*
Y336313D01*
X170950Y331112D02*
X174725D01*
X230905Y364156D02*
Y367931D01*
X225703D02*
X230905D01*
X225703Y364156D02*
Y367931D01*
X230905Y357025D02*
Y360800D01*
X225703Y357025D02*
X230905D01*
X225703D02*
Y360800D01*
X237306Y356991D02*
Y360766D01*
Y356991D02*
X242508D01*
Y360766D01*
X237306Y364122D02*
Y367897D01*
X242508D01*
Y364122D02*
Y367897D01*
X227405Y419687D02*
X253595D01*
Y408101D02*
Y419687D01*
X227405Y408101D02*
X253595D01*
X227405D02*
Y419687D01*
X156905D02*
X183095D01*
Y408101D02*
Y419687D01*
X156905Y408101D02*
X183095D01*
X156905D02*
Y419687D01*
D15*
X224064Y319138D02*
Y324018D01*
Y319138D02*
X244544D01*
Y324018D01*
X224064Y333938D02*
Y338818D01*
X244544D01*
Y333938D02*
Y338818D01*
D16*
X194150Y350256D02*
X205961D01*
X194150Y341989D02*
X205961D01*
X194032Y350571D02*
Y350571D01*
X192969Y351634D02*
X194032Y350571D01*
Y350571D02*
X195095Y351634D01*
X192969D02*
X195095D01*
X194150Y349705D02*
Y350256D01*
Y341989D02*
Y342461D01*
X205961Y349666D02*
Y350256D01*
Y341989D02*
Y342540D01*
X185311Y271394D02*
X185115Y271590D01*
X184721D01*
X184524Y271394D01*
Y270606D01*
X184721Y270410D01*
X185115D01*
X185311Y270606D01*
X185705Y270410D02*
X186098D01*
X185902D01*
Y271590D01*
X185705Y271394D01*
X187476Y271590D02*
X187082Y271394D01*
X186689Y271000D01*
Y270606D01*
X186885Y270410D01*
X187279D01*
X187476Y270606D01*
Y270803D01*
X187279Y271000D01*
X186689D01*
X185311Y277394D02*
X185115Y277590D01*
X184721D01*
X184524Y277394D01*
Y276606D01*
X184721Y276410D01*
X185115D01*
X185311Y276606D01*
X185705Y276410D02*
X186098D01*
X185902D01*
Y277590D01*
X185705Y277394D01*
X186689D02*
X186885Y277590D01*
X187279D01*
X187476Y277394D01*
Y277197D01*
X187279Y277000D01*
X187082D01*
X187279D01*
X187476Y276803D01*
Y276606D01*
X187279Y276410D01*
X186885D01*
X186689Y276606D01*
X158016Y289410D02*
Y290590D01*
X158606D01*
X158803Y290394D01*
Y290000D01*
X158606Y289803D01*
X158016D01*
X158410D02*
X158803Y289410D01*
X159197Y290394D02*
X159394Y290590D01*
X159787D01*
X159984Y290394D01*
Y290197D01*
X159787Y290000D01*
X159984Y289803D01*
Y289606D01*
X159787Y289410D01*
X159394D01*
X159197Y289606D01*
Y289803D01*
X159394Y290000D01*
X159197Y290197D01*
Y290394D01*
X159394Y290000D02*
X159787D01*
X158016Y283410D02*
Y284590D01*
X158606D01*
X158803Y284394D01*
Y284000D01*
X158606Y283803D01*
X158016D01*
X158410D02*
X158803Y283410D01*
X159984Y284590D02*
X159590Y284394D01*
X159197Y284000D01*
Y283606D01*
X159394Y283410D01*
X159787D01*
X159984Y283606D01*
Y283803D01*
X159787Y284000D01*
X159197D01*
X158009Y276922D02*
Y278103D01*
X158599D01*
X158796Y277906D01*
Y277512D01*
X158599Y277315D01*
X158009D01*
X158402D02*
X158796Y276922D01*
X159977Y278103D02*
X159190D01*
Y277512D01*
X159583Y277709D01*
X159780D01*
X159977Y277512D01*
Y277119D01*
X159780Y276922D01*
X159386D01*
X159190Y277119D01*
X157896Y270703D02*
Y271884D01*
X158487D01*
X158684Y271687D01*
Y271294D01*
X158487Y271097D01*
X157896D01*
X158290D02*
X158684Y270703D01*
X159077Y270900D02*
X159274Y270703D01*
X159668D01*
X159864Y270900D01*
Y271687D01*
X159668Y271884D01*
X159274D01*
X159077Y271687D01*
Y271491D01*
X159274Y271294D01*
X159864D01*
X185239Y290793D02*
X185042Y290989D01*
X184648D01*
X184452Y290793D01*
Y290005D01*
X184648Y289809D01*
X185042D01*
X185239Y290005D01*
X185632Y289809D02*
X186026D01*
X185829D01*
Y290989D01*
X185632Y290793D01*
X187207Y289809D02*
Y290989D01*
X186616Y290399D01*
X187403D01*
X185311Y284394D02*
X185115Y284590D01*
X184721D01*
X184524Y284394D01*
Y283606D01*
X184721Y283410D01*
X185115D01*
X185311Y283606D01*
X185705Y283410D02*
X186098D01*
X185902D01*
Y284590D01*
X185705Y284394D01*
X187476Y284590D02*
X186689D01*
Y284000D01*
X187082Y284197D01*
X187279D01*
X187476Y284000D01*
Y283606D01*
X187279Y283410D01*
X186885D01*
X186689Y283606D01*
D17*
X263971Y346478D02*
Y344478D01*
X264971D01*
X265304Y344812D01*
Y346145D01*
X264971Y346478D01*
X263971D01*
X265970Y344478D02*
X266637D01*
X266303D01*
Y346478D01*
X265970Y346145D01*
X241420Y336368D02*
X241754Y336034D01*
X242420D01*
X242753Y336368D01*
Y337700D01*
X242420Y338034D01*
X241754D01*
X241420Y337700D01*
X240754Y338034D02*
X240088D01*
X240421D01*
Y336034D01*
X240754Y336368D01*
X232971Y355145D02*
X232637Y355478D01*
X231971D01*
X231638Y355145D01*
Y353812D01*
X231971Y353478D01*
X232637D01*
X232971Y353812D01*
X234970Y353478D02*
X233637D01*
X234970Y354811D01*
Y355145D01*
X234637Y355478D01*
X233970D01*
X233637Y355145D01*
X231700Y370600D02*
Y372599D01*
X232700D01*
X233033Y372266D01*
Y371600D01*
X232700Y371266D01*
X231700D01*
X232366D02*
X233033Y370600D01*
X235032D02*
X233699D01*
X235032Y371933D01*
Y372266D01*
X234699Y372599D01*
X234033D01*
X233699Y372266D01*
X225138Y352478D02*
Y354478D01*
X226137D01*
X226471Y354145D01*
Y353478D01*
X226137Y353145D01*
X225138D01*
X225804D02*
X226471Y352478D01*
X228137D02*
Y354478D01*
X227137Y353478D01*
X228470D01*
X217971Y338478D02*
Y336478D01*
X219304D01*
X219970D02*
X220637D01*
X220304D01*
Y338478D01*
X219970Y338144D01*
X191458Y393394D02*
X191791Y393061D01*
X192458D01*
X192791Y393394D01*
Y394727D01*
X192458Y395061D01*
X191791D01*
X191458Y394727D01*
X190792Y393061D02*
X189459D01*
Y393394D01*
X190792Y394727D01*
Y395061D01*
X216667Y430833D02*
X217000Y431166D01*
Y431833D01*
X216667Y432166D01*
X215334D01*
X215000Y431833D01*
Y431166D01*
X215334Y430833D01*
X216667Y430167D02*
X217000Y429834D01*
Y429167D01*
X216667Y428834D01*
X216333D01*
X216000Y429167D01*
Y429500D01*
Y429167D01*
X215667Y428834D01*
X215334D01*
X215000Y429167D01*
Y429834D01*
X215334Y430167D01*
X162727Y337546D02*
X162394Y337213D01*
Y336547D01*
X162727Y336213D01*
X164060D01*
X164393Y336547D01*
Y337213D01*
X164060Y337546D01*
X164393Y338213D02*
Y338879D01*
Y338546D01*
X162394D01*
X162727Y338213D01*
X164393Y341212D02*
Y339879D01*
X163060Y341212D01*
X162727D01*
X162394Y340879D01*
Y340212D01*
X162727Y339879D01*
X167572Y362879D02*
X167239Y363212D01*
X166573D01*
X166239Y362879D01*
Y361546D01*
X166573Y361213D01*
X167239D01*
X167572Y361546D01*
X168239D02*
X168572Y361213D01*
X169238D01*
X169572Y361546D01*
Y362879D01*
X169238Y363212D01*
X168572D01*
X168239Y362879D01*
Y362546D01*
X168572Y362213D01*
X169572D01*
X177667Y356666D02*
X177334Y357000D01*
X176667D01*
X176334Y356666D01*
Y355334D01*
X176667Y355000D01*
X177334D01*
X177667Y355334D01*
X178333Y355000D02*
X179000D01*
X178667D01*
Y357000D01*
X178333Y356666D01*
X179999Y355000D02*
X180666D01*
X180333D01*
Y357000D01*
X179999Y356666D01*
X165983Y357212D02*
Y355546D01*
X166317Y355213D01*
X166983D01*
X167316Y355546D01*
Y357212D01*
X169316D02*
X168649Y356879D01*
X167983Y356213D01*
Y355546D01*
X168316Y355213D01*
X168983D01*
X169316Y355546D01*
Y355879D01*
X168983Y356213D01*
X167983D01*
X159483Y355757D02*
X159150Y356090D01*
X158484D01*
X158150Y355757D01*
Y354424D01*
X158484Y354091D01*
X159150D01*
X159483Y354424D01*
X160150Y354091D02*
X160816D01*
X160483D01*
Y356090D01*
X160150Y355757D01*
X161816D02*
X162149Y356090D01*
X162816D01*
X163149Y355757D01*
Y354424D01*
X162816Y354091D01*
X162149D01*
X161816Y354424D01*
Y355757D01*
X245100Y373299D02*
Y371633D01*
X245433Y371300D01*
X246100D01*
X246433Y371633D01*
Y373299D01*
X247099Y372966D02*
X247433Y373299D01*
X248099D01*
X248432Y372966D01*
Y372633D01*
X248099Y372300D01*
X247766D01*
X248099D01*
X248432Y371966D01*
Y371633D01*
X248099Y371300D01*
X247433D01*
X247099Y371633D01*
X164000Y339100D02*
Y341099D01*
X165000D01*
X165333Y340766D01*
Y340100D01*
X165000Y339766D01*
X164000D01*
X164666D02*
X165333Y339100D01*
X165999Y341099D02*
X167332D01*
Y340766D01*
X165999Y339433D01*
Y339100D01*
X225900Y370700D02*
Y372699D01*
X226900D01*
X227233Y372366D01*
Y371700D01*
X226900Y371366D01*
X225900D01*
X226566D02*
X227233Y370700D01*
X227899Y372366D02*
X228233Y372699D01*
X228899D01*
X229232Y372366D01*
Y372033D01*
X228899Y371700D01*
X228566D01*
X228899D01*
X229232Y371366D01*
Y371033D01*
X228899Y370700D01*
X228233D01*
X227899Y371033D01*
X237500Y370700D02*
Y372699D01*
X238500D01*
X238833Y372366D01*
Y371700D01*
X238500Y371366D01*
X237500D01*
X238166D02*
X238833Y370700D01*
X239499D02*
X240166D01*
X239833D01*
Y372699D01*
X239499Y372366D01*
X196533Y412666D02*
X196200Y412999D01*
X195533D01*
X195200Y412666D01*
Y411333D01*
X195533Y411000D01*
X196200D01*
X196533Y411333D01*
X197199Y412666D02*
X197533Y412999D01*
X198199D01*
X198532Y412666D01*
Y412333D01*
X198199Y412000D01*
X198532Y411666D01*
Y411333D01*
X198199Y411000D01*
X197533D01*
X197199Y411333D01*
Y411666D01*
X197533Y412000D01*
X197199Y412333D01*
Y412666D01*
X197533Y412000D02*
X198199D01*
X216533Y412666D02*
X216200Y412999D01*
X215533D01*
X215200Y412666D01*
Y411333D01*
X215533Y411000D01*
X216200D01*
X216533Y411333D01*
X218532Y412999D02*
X217866Y412666D01*
X217199Y412000D01*
Y411333D01*
X217533Y411000D01*
X218199D01*
X218532Y411333D01*
Y411666D01*
X218199Y412000D01*
X217199D01*
X210033Y412666D02*
X209700Y412999D01*
X209033D01*
X208700Y412666D01*
Y411333D01*
X209033Y411000D01*
X209700D01*
X210033Y411333D01*
X212032Y412999D02*
X210699D01*
Y412000D01*
X211366Y412333D01*
X211699D01*
X212032Y412000D01*
Y411333D01*
X211699Y411000D01*
X211033D01*
X210699Y411333D01*
X203283Y412727D02*
X202950Y413060D01*
X202283D01*
X201950Y412727D01*
Y411394D01*
X202283Y411061D01*
X202950D01*
X203283Y411394D01*
X204949Y411061D02*
Y413060D01*
X203949Y412061D01*
X205282D01*
M02*
