M48
;Layer_Color=9474304
;FILE_FORMAT=2:5
INCH,LZ
;TYPE=PLATED
T1F00S00C0.00591
T2F00S00C0.01181
T3F00S00C0.01968
T4F00S00C0.02362
T6F00S00C0.03150
T7F00S00C0.03937
%
T01
X0198063Y0275532
X0200027Y0277491
X0200011Y0279487
X0205937Y02775
X0207906Y0281437
T02
X01635Y02435
X01705Y02485
X01735Y02565
X017777Y0267635
X01785Y0271
X01855Y02725
X01895
X0203969Y0275532
X0205937
Y0281437
X0202
Y0279468
Y0283405
X0203969
X0198063
X0196095Y0285374
X0200031Y0281437
X0209886Y028735
X02125Y02895
X0215Y02915
X021217Y0293711
X02125Y0298
X0215Y03005
X02145Y0303
X0215973Y029587
X0227251Y0295481
X0228315Y0298288
X0225Y03005
X0224Y0303
X02235Y0308488
X022024Y0309068
X01995Y0309
X0200871Y0305549
X0191Y0301
X0188Y02995
X01895Y02965
Y0292
X0188Y02905
X0178Y0294
X01755Y0295
X01725Y02945
X0165522Y0287717
X0167Y0284
X0168Y0281
X01665Y02775
X0166Y0274
X01775Y0282
Y0284
X01575Y02565
X0221Y0273
X02335
Y02655
X02355Y02585
X0244
X0246Y0265
X0249Y0273
X0261Y02645
X02555Y02585
X0252Y025
X0257Y02435
X0266
Y025
X02755Y02495
X02765Y0243
X0277Y0258
X02685Y02585
X02725Y0265
X02675Y02935
X02285Y02915
X0229336Y0289575
X02285Y02875
X0226Y02825
X02405Y025
X0243Y02435
X0299Y03105
X0302Y03095
X0143017Y0303468
X01395Y02785
X01325Y0284
X013Y02875
X0128Y0276
X0132Y0271
X01385Y02665
X0147Y0271
X01435Y0257
X01305Y02585
X01325Y02485
X0134Y02425
X0148Y0243
X01505Y0248
X01445Y03125
X0142Y03145
X0143Y03175
X0147Y03185
Y0321
X01435Y0325
X013Y03165
X01545Y03435
Y0366
X0145Y037
X0143Y0369
X0142993Y0387993
X0145Y039
X0153Y0404
X0131Y03985
X0123Y04115
X01105Y0411
X01375Y0436
X01475Y04295
X01345Y0467
X0167Y04605
X01845Y0463
X0191Y04525
X01785Y04415
X0175
X01655Y0391
X01565Y0396
Y036
X017Y03525
X016965Y0347713
X0172Y03425
X01605Y03385
X0157Y03395
X0191Y03405
X0193Y03395
X019415Y034317
X019Y0343347
X01875Y035
X02015Y0341
X02055
X02215Y0342
X0224Y0355
X024Y0351
X0246
X02465Y03495
X0244Y03465
X0249Y0343
X02565Y033
X02675Y0335
X0267555Y0324445
X0277Y03325
X0275Y03545
X02695
X0269Y03595
X02675Y035
X02655Y04035
X0267Y04275
X0283Y0418
X02915Y0413
X0294Y04045
X02265Y0401
X0223Y04125
X02295Y0416
X0226Y04625
X02755Y0461
X01985Y03185
X01975Y0316
X0256Y04795
X027Y0476
X02835Y04735
X02885Y0483
X0278Y0487
X02995Y04725
X01305Y0478
X0124Y0489
X0111Y0476
T03
X01695Y02875
X0169Y02945
Y03065
X01665Y0328
X0213Y0386
X02635Y0362
T04
X01175Y04315
Y04365
Y04415
Y04465
X02905
Y04415
Y04365
Y04315
T06
X0195158Y04235
X0214843Y04235
T07
X0285626Y0234008
X02935
Y0241882
X0285626
Y0249756
X02935
Y025763
Y0265504
X0285626
Y025763
Y0273378
X02935
Y0281252
X0285626
Y0289126
X02935
Y0297
X0285626
Y0304874
X02935
X0121
Y0297
Y0289126
Y0281252
Y0273378
Y0265504
Y025763
Y0249756
Y0241882
Y0234008
X0113126
Y0241882
Y0249756
Y025763
Y0265504
Y0273378
Y0281252
Y0289126
Y0297
Y0304874
Y0312748
X0121
Y0320622
X0113126
Y0328496
X0121
Y033637
X0113126
Y0344244
X0121
Y0352118
Y0359992
X0113126
Y0352118
Y0367866
X0121
Y037574
X0113126
Y0383614
X0121
X0189547Y0375795
X0195Y03905
X0285626Y0383614
Y037574
Y0367866
Y0359992
Y0352118
Y0344244
Y033637
Y0328496
Y0320622
Y0312748
X02935
Y0320622
Y0328496
Y033637
Y0344244
Y0352118
Y0359992
Y0367866
Y037574
Y0383614
M30
